<?xml version="1.0" encoding="UTF-8"?>
<svg id="Layer_1" xmlns="http://www.w3.org/2000/svg" version="1.1" viewBox="0 0 220 220">
  <!-- Generator: Adobe Illustrator 30.1.0, SVG Export Plug-In . SVG Version: 2.1.1 Build 136)  -->
  <defs>
    <style>
      .st0 {
        fill: #025055;
      }

      .st1 {
        fill: #fff;
      }
    </style>
  </defs>
  <rect class="st1" x=".33" y=".49" width="219.34" height="219.34" rx="109.67" ry="109.67"/>
  <g>
    <path class="st0" d="M138.8,43.68h-56.62c-21.35,0-38.66,17.31-38.66,38.66v56.62c0,21.35,17.31,38.66,38.66,38.66h56.62c21.35,0,38.66-17.31,38.66-38.66v-56.62c0-21.35-17.31-38.66-38.66-38.66M165.13,139.95c0,14.17-11.49,25.66-25.66,25.66h-57.95c-14.17,0-25.66-11.49-25.66-25.66v-57.95c0-14.17,11.49-25.66,25.66-25.66h57.95c14.17,0,25.66,11.49,25.66,25.66v57.95Z"/>
    <path class="st0" d="M110.49,76.23c-19.19,0-34.75,15.56-34.75,34.75s15.56,34.75,34.75,34.75,34.76-15.56,34.76-34.75-15.56-34.75-34.76-34.75M110.49,133.51c-12.44,0-22.53-10.09-22.53-22.53s10.09-22.53,22.53-22.53,22.53,10.09,22.53,22.53-10.09,22.53-22.53,22.53"/>
    <path class="st0" d="M146.41,66.81c-4.47,0-8.1,3.62-8.1,8.1s3.63,8.1,8.1,8.1,8.09-3.62,8.09-8.1-3.63-8.1-8.09-8.1"/>
  </g>
</svg>