<?xml version="1.0" encoding="UTF-8"?>
<svg id="Layer_1" xmlns="http://www.w3.org/2000/svg" version="1.1" viewBox="0 0 220 220">
  <!-- Generator: Adobe Illustrator 30.1.0, SVG Export Plug-In . SVG Version: 2.1.1 Build 136)  -->
  <defs>
    <style>
      .st0 {
        fill: #025055;
      }

      .st1 {
        fill: #fff;
      }
    </style>
  </defs>
  <rect class="st1" x=".33" y=".49" width="219.34" height="219.34" rx="109.67" ry="109.67"/>
  <g>
    <path class="st0" d="M52.32,83.54h25.26v81.27h-25.26v-81.27ZM64.96,43.14c8.07,0,14.64,6.57,14.64,14.66s-6.56,14.63-14.64,14.63-14.64-6.55-14.64-14.63,6.54-14.66,14.64-14.66"/>
    <path class="st0" d="M93.43,83.54h24.23v11.12h.35c3.37-6.4,11.61-13.12,23.89-13.12,25.58,0,30.3,16.83,30.3,38.7v44.57h-25.25v-39.52c0-9.42-.16-21.55-13.13-21.55s-15.15,10.28-15.15,20.88v40.2h-25.25v-81.27Z"/>
  </g>
</svg>