<?xml version="1.0" encoding="UTF-8"?>
<svg id="Layer_1" xmlns="http://www.w3.org/2000/svg" version="1.1" viewBox="0 0 4187.1 782.43">
  <!-- Generator: Adobe Illustrator 29.2.1, SVG Export Plug-In . SVG Version: 2.1.0 Build 116)  -->
  <defs>
    <style>
      .st0 {
        fill: #fff;
      }
    </style>
  </defs>
  <g>
    <path class="st0" d="M968.93,389.05c-42.3,0-76.83-7.76-104.77-36.47l43.46-43.46c14.36,14.36,39.58,19.4,61.7,19.4,26.78,0,39.58-8.92,39.58-24.84,0-6.6-1.55-12.03-5.43-16.3-3.49-3.49-9.31-6.21-18.24-7.37l-33.37-4.66c-24.44-3.49-43.07-11.64-55.49-24.44-12.81-13.19-19.01-31.82-19.01-55.49,0-50.45,38.03-87.31,100.89-87.31,39.58,0,69.46,9.31,93.13,32.98l-42.68,42.68c-17.46-17.46-40.35-16.3-52.38-16.3-23.67,0-33.37,13.58-33.37,25.61,0,3.49,1.16,8.54,5.43,12.81,3.49,3.49,9.31,6.99,19.01,8.15l33.37,4.66c24.84,3.49,42.68,11.25,54.33,22.89,14.75,14.36,20.57,34.92,20.57,60.53,0,56.26-48.5,86.92-106.71,86.92Z"/>
    <path class="st0" d="M1120.26,386.72V110.44h187.81v60.53h-119.9v46.18h102.44v60.53h-102.44v48.5h119.9v60.53h-187.81Z"/>
    <path class="st0" d="M1452.03,389.05c-32.21,0-56.66-10.86-76.83-31.04-29.1-29.1-27.94-67.91-27.94-109.43s-1.16-80.32,27.94-109.43c20.18-20.18,44.63-31.04,76.83-31.04,52.38,0,94.68,29.1,104.77,90.02h-69.07c-4.27-15.52-12.81-29.49-35.31-29.49-12.42,0-21.73,5.04-26.78,11.64-6.21,8.15-10.48,17.85-10.48,68.29s4.27,60.14,10.48,68.29c5.04,6.6,14.36,11.64,26.78,11.64,22.51,0,31.04-13.97,35.31-29.49h69.07c-10.09,60.92-52.39,90.02-104.77,90.02Z"/>
    <path class="st0" d="M1692.22,389.05c-57.43,0-104.38-38.8-104.38-99.34V110.44h67.91v177.72c0,25.61,13.97,40.36,36.47,40.36s37.25-14.75,37.25-40.36V110.44h67.9v179.27c0,60.53-47.73,99.34-105.16,99.34Z"/>
    <path class="st0" d="M1988.29,386.72l-48.89-102.83h-22.89v102.83h-67.91V110.44h109.43c61.31,0,94.29,43.46,94.29,88.86,0,37.64-23.28,61.31-45.01,72.18l59.75,115.25h-78.77ZM1954.91,171.36h-38.41v55.88h38.41c18.63,0,29.49-13.58,29.49-27.94s-10.86-27.94-29.49-27.94Z"/>
    <path class="st0" d="M2101.59,386.72V110.44h67.91v276.28h-67.91Z"/>
    <path class="st0" d="M2341,170.97v215.75h-67.9v-215.75h-67.91v-60.53h203.72v60.53h-67.9Z"/>
    <path class="st0" d="M2577.7,274.19v112.53h-67.91v-112.53l-83.43-163.75h74.12l43.46,99.34,43.08-99.34h74.11l-83.43,163.75Z"/>
    <path class="st0" d="M2789.95,389.05c-41.52,0-71.4-9.7-97.78-36.47l27.94-27.55c20.18,20.18,42.29,26.39,70.62,26.39,36.09,0,57.04-15.52,57.04-42.29,0-12.03-3.49-22.12-10.86-28.72-6.99-6.6-13.97-9.31-30.27-11.64l-32.6-4.66c-22.5-3.1-40.36-10.86-52.38-22.12-13.58-12.81-20.18-30.27-20.18-52.77,0-48.11,34.92-81.1,92.35-81.1,36.47,0,62.08,9.31,85.76,31.43l-26.77,26.39c-17.08-16.3-36.86-21.34-60.15-21.34-32.59,0-50.45,18.63-50.45,43.07,0,10.09,3.11,19.01,10.48,25.61,6.99,6.21,18.24,10.86,31.04,12.81l31.43,4.66c25.61,3.88,39.97,10.09,51.61,20.57,15.13,13.19,22.5,32.98,22.5,56.65,0,50.83-41.52,81.1-99.34,81.1Z"/>
    <path class="st0" d="M2937.79,386.72V110.44h176.56v37.64h-134.65v80.71h114.86v37.25h-114.86v83.04h134.65v37.64h-176.56Z"/>
    <path class="st0" d="M3324.27,386.72l-58.2-116.41h-52.39v116.41h-41.91V110.44h107.1c52.38,0,85.76,33.76,85.76,80.71,0,39.58-24.06,64.8-55.1,73.34l63.64,122.23h-48.89ZM3275.77,148.07h-62.08v86.53h62.08c27.94,0,46.96-15.91,46.96-43.07s-19.01-43.46-46.96-43.46Z"/>
    <path class="st0" d="M3515.19,386.72h-32.6l-90.8-276.28h43.46l63.64,201,63.64-201h44.24l-91.58,276.28Z"/>
    <path class="st0" d="M3648.67,386.72V110.44h41.91v276.28h-41.91Z"/>
    <path class="st0" d="M3848.12,389.05c-28.72,0-53.55-10.48-72.57-29.49-27.16-27.16-26.77-57.82-26.77-110.98s-.39-83.82,26.77-110.98c19.02-19.01,43.85-29.49,72.57-29.49,50.83,0,88.86,29.88,98.56,84.98h-42.68c-6.6-27.94-25.22-47.34-55.88-47.34-16.3,0-31.05,6.21-40.74,16.69-13.58,14.75-16.69,30.66-16.69,86.14s3.11,71.4,16.69,86.14c9.7,10.48,24.44,16.68,40.74,16.68,30.66,0,49.67-19.4,56.27-47.34h42.29c-9.31,55.1-48.51,84.98-98.56,84.98Z"/>
    <path class="st0" d="M3998.68,386.72V110.44h176.56v37.64h-134.65v80.71h114.86v37.25h-114.86v83.04h134.65v37.64h-176.56Z"/>
  </g>
  <polygon class="st0" points="742.34 106.33 742.34 773.12 752.52 773.12 752.52 773.12 752.52 773.12 762.69 773.12 762.69 106.33 752.52 106.33 752.52 106.33 752.52 106.33 742.34 106.33"/>
  <g>
    <path class="st0" d="M1089.29,766.03v-99.73c0-14.74.78-49.28.78-59.75-3.88,10.09-12.03,29.49-19.01,45.01l-55.1,120.68-55.1-120.68c-6.99-15.53-15.13-34.92-19.01-45.01,0,10.48.78,45.01.78,59.75v99.73h-53.16v-271.63h52.38l56.65,123.01c6.99,15.13,15.13,35.7,18.63,45.4,3.49-10.09,11.25-29.88,18.24-45.4l54.71-123.01h53.55v271.63h-54.32Z"/>
    <path class="st0" d="M1203.75,766.03v-271.63h54.33v271.63h-54.33Z"/>
    <path class="st0" d="M1409.02,770.29c-39.19,0-71.79-7.76-105.93-29.1l26.39-46.18c25.22,14.36,52,22.9,79.55,22.9,36.86,0,58.21-15.52,58.21-44.63s-20.57-40.36-46.18-40.36-40.74,7.37-53.55,16.3l-51.61-19.01,9.31-135.81h180.83v52.39h-130.77l-3.1,46.95c15.13-8.15,31.43-12.42,57.04-12.42,60.92,0,93.13,38.8,93.13,90.02,0,65.19-46.56,98.95-113.31,98.95Z"/>
  </g>
  <path class="st0" d="M327.64,61.04c23.39,5.61,42.08,23.29,49.03,46.13l8.46,3.54c-6.24-28.35-28.46-50.65-56.76-57.03l-.73,7.36Z"/>
  <path class="st0" d="M246.91,107.18c6.95-22.85,25.64-40.53,49.04-46.14l-.73-7.36c-28.31,6.38-50.54,28.69-56.77,57.04l8.46-3.54Z"/>
  <path class="st0" d="M290.22,48.41c0,2.81-2.28,5.08-5.08,5.08s-5.08-2.28-5.08-5.08,2.28-5.08,5.08-5.08,5.08,2.28,5.08,5.08"/>
  <path class="st0" d="M268.06,59.87c0,2.81-2.28,5.08-5.08,5.08s-5.08-2.28-5.08-5.08,2.27-5.08,5.08-5.08,5.08,2.28,5.08,5.08"/>
  <path class="st0" d="M250.05,77.79c0,2.81-2.28,5.08-5.08,5.08s-5.08-2.28-5.08-5.08,2.28-5.08,5.08-5.08,5.08,2.28,5.08,5.08"/>
  <path class="st0" d="M238.5,99.9c0,2.81-2.28,5.08-5.08,5.08s-5.08-2.28-5.08-5.08,2.28-5.08,5.08-5.08,5.08,2.28,5.08,5.08"/>
  <path class="st0" d="M333.45,48.41c0,2.81,2.28,5.08,5.08,5.08s5.08-2.28,5.08-5.08-2.28-5.08-5.08-5.08-5.08,2.28-5.08,5.08"/>
  <path class="st0" d="M355.61,59.87c0,2.81,2.28,5.08,5.08,5.08s5.08-2.28,5.08-5.08-2.27-5.08-5.08-5.08-5.08,2.28-5.08,5.08"/>
  <path class="st0" d="M373.62,77.79c0,2.81,2.28,5.08,5.08,5.08s5.08-2.28,5.08-5.08-2.28-5.08-5.08-5.08-5.08,2.28-5.08,5.08"/>
  <path class="st0" d="M385.17,99.9c0,2.81,2.28,5.08,5.08,5.08s5.08-2.28,5.08-5.08-2.28-5.08-5.08-5.08-5.08,2.28-5.08,5.08"/>
  <path class="st0" d="M311.8,96.74h-.47s0,0,0,0l-8.06.07s-.7.14-.13.69c.55.56,5.44,6.23,5.72,7.61.28,1.38.42,2.63.42,2.63,0,.52.34,2.81-.02,3.23-1.33,1.61-4.33-1.28-5.1-2.27-.86-1.1-1.47-1.7-1.85-3.05,0,0-.96-.28-.96.64,0,3.2.07,3.42.13,6.56l.15,2.91c-.08,3.12-.15,2.11-.15,5.31,0,.9.98.62.98.62,0,0,1.08-3.46,4.42-4.56.19-.06,2.35-.63,2.34-.75.23,3.84-.78,7.95-2.21,11.53-1.02,2.58-4.54,6.42-7.32,7.03-1.75.4-3.63.71-5.43.77-3.42.09-6.44-1.12-8.25-4.2-3.27-5.52-.88-10.45,1.63-10.92,1.66-.32,2.53.36,3.64,1.45,2.96,2.93,4.11-2.73,4.31-4.69.36-3.44-.9-9.06-5-9.9-2.15-.44-6.05.33-7.89,3.38-1.68,2.77-1.17,2.16-1.78,1.82-1.2-.7-.34-7.86-.36-9.1-.05-3.36.36-7.57-1.81-10.42-1.44-1.88-4.17-3.28-6.38-4.06-1.69,2.16-3.75,4.55-3.93,7.4-.21,3.18,1.35,6.42,2.53,9.27.65,1.56,1.56,3.02,2.25,4.55.43.96.83,2.12.9,3.18.17,2.04-1.26.51-2.25-.19-2.91-2.06-6.78-1.24-8.57,0-2.95,2.05-2.6,6.64-1.53,9.59.64,1.77,4.85,8.51,6.65,4.1.58-1.45,1.13-2.39,2.77-2.76,2.48-.56,6.63,3.04,5.8,9.4-.84,6.5-7.47,8.99-13.01,9.12-4.7.11-10.14-4.42-12.16-8.57-.94-1.91-.13-2.84,1.38-3.6,1.11-.55,2.02-.24,4.02.73,1.27.63.99-.69.99-.7-1.44-3.14-3.16-6.14-4.42-9.36,0,0-.89-1.66-1.25.31-.21,1.16-.21.8-.4,1.99-.43,2.53-2.52,3.12-4.35.81-3.27-4.18,2.58-12.56,2.58-12.56l-10.53,4.33,19.1,46.66c.1-.01.21-.03.32-.05,12.19-7.4,31.07-12.16,52.31-12.16"/>
  <path class="st0" d="M311.4,96.74h.47s0,0,0,0l8.06.07s.7.14.13.69c-.55.56-5.44,6.23-5.72,7.61-.28,1.38-.42,2.63-.42,2.63,0,.52-.34,2.81.02,3.23,1.33,1.61,4.33-1.28,5.1-2.27.86-1.1,1.47-1.7,1.85-3.05,0,0,.96-.28.96.64,0,3.2-.07,3.42-.13,6.56l-.15,2.91c.08,3.12.15,2.11.15,5.31,0,.9-.98.62-.98.62,0,0-1.08-3.46-4.42-4.56-.19-.06-2.35-.63-2.34-.75-.23,3.84.78,7.95,2.21,11.53,1.02,2.58,4.54,6.42,7.32,7.03,1.75.4,3.63.71,5.43.77,3.42.09,6.44-1.12,8.25-4.2,3.27-5.52.88-10.45-1.63-10.92-1.66-.32-2.53.36-3.64,1.45-2.96,2.93-4.11-2.73-4.31-4.69-.36-3.44.9-9.06,5-9.9,2.15-.44,6.05.33,7.89,3.38,1.68,2.77,1.17,2.16,1.78,1.82,1.2-.7.34-7.86.36-9.1.05-3.36-.36-7.57,1.81-10.42,1.44-1.88,4.17-3.28,6.38-4.06,1.69,2.16,3.75,4.55,3.93,7.4.21,3.18-1.35,6.42-2.53,9.27-.65,1.56-1.56,3.02-2.25,4.55-.43.96-.83,2.12-.9,3.18-.17,2.04,1.26.51,2.25-.19,2.91-2.06,6.78-1.24,8.57,0,2.95,2.05,2.6,6.64,1.53,9.59-.64,1.77-4.85,8.51-6.65,4.1-.58-1.45-1.13-2.39-2.77-2.76-2.48-.56-6.63,3.04-5.8,9.4.84,6.5,7.47,8.99,13.01,9.12,4.7.11,10.14-4.42,12.16-8.57.94-1.91.13-2.84-1.38-3.6-1.11-.55-2.02-.24-4.02.73-1.27.63-.99-.69-.99-.7,1.44-3.14,3.16-6.14,4.42-9.36,0,0,.89-1.66,1.25.31.21,1.16.21.8.4,1.99.43,2.53,2.52,3.12,4.35.81,3.27-4.18-2.58-12.56-2.58-12.56l10.53,4.33-19.1,46.66c-.1-.01-.21-.03-.32-.05-12.19-7.4-31.07-12.16-52.31-12.16"/>
  <path class="st0" d="M321.37,52.46c-2.54,2.31-5.88,3.75-9.58,3.75s-7.04-1.45-9.58-3.75c-.05,0-.1.02-.14.02l1.69,37.39,8.09,1.22,8.09-1.22,1.69-37.38c-.08,0-.16-.03-.24-.04"/>
  <path class="st0" d="M315.29,27.21l8.18,3.95v-11.09l-8.18,2.39h-.02c-.23-.29-.5-.54-.8-.75h-.02l3.28-9.54h-11.79l3.28,9.52h-.02c-.29.23-.56.48-.8.75h-.02l-8.18-2.36v11.09l8.18-3.95c.25.32.52.56.84.8l-2.8,7.78c-1.82,1.53-2.99,3.83-2.99,6.4,0,4.62,3.75,8.36,8.37,8.36s8.37-3.74,8.37-8.36c0-2.58-1.15-4.88-2.99-6.4l-2.81-7.78c.32-.21.61-.48.84-.77l.09-.02Z"/>
  <path class="st0" d="M141.35,352.14s0-.03-.01-.05v-.07h-.02c-.51-1.64-2.24-5.24-3.4-6.09-1.18-.88-1.87-2.21-2.8-3.33-.61-.74-1.26-1.47-1.95-2.15-1.92-1.92-4.28-3.37-7.12-3.49-5.35-.23-9.27,5.15-11.9,9.02-4.74,6.96-9.15,5.38-11.18,4.05-1.14-1.36-4.57-6.51,3.66-11.91,3.9-2.55,9.36-6.38,9.21-11.72-.07-2.84-1.48-5.24-3.37-7.19-.66-.7-1.38-1.36-2.11-1.98-1.11-.94-2.43-1.65-3.29-2.86-.83-1.17-4.42-2.98-6.04-3.51v-.02s-.04,0-.06,0c-.01,0-.03-.01-.04-.02v.02c-1.71-.03-5.69.51-6.85,1.34-1.2.87-2.7,1.11-4.05,1.65-.9.36-1.78.74-2.64,1.18-2.42,1.24-4.54,3.05-5.52,5.7-1.88,5.01,2.03,10.41,4.89,14.1,5.17,6.67,2.29,10.38.4,11.87-1.65.67-7.61,2.34-10.19-7.15-1.23-4.5-3.19-10.87-8.32-12.39-2.72-.8-5.43-.2-7.87.99-.88.42-1.71.89-2.52,1.39-1.25.76-2.34,1.8-3.75,2.25-1.36.42-4.16,3.27-5.19,4.66h-.02s-.01.03-.02.05c-.01.01-.03.04-.04.05h.02c-.56,1.64-1.27,5.57-.84,6.94.45,1.41.23,2.9.31,4.35.06.96.15,1.92.31,2.86.43,2.69,1.5,5.26,3.71,7.02,4.18,3.33,10.53,1.29,14.92-.29,7.96-2.87,10.59,1.04,11.43,3.3.13,1.81-.18,7.93-9.96,7.46-4.66-.23-11.33-.32-14.36,4.08-1.6,2.34-1.87,5.11-1.5,7.79.13.96.33,1.9.55,2.85.34,1.41,1.01,2.77.98,4.24-.01,1.43,1.82,4.98,2.82,6.38v.02s.02.02.04.04c0,.01.03.04.04.05h.02c1.39,1.02,4.89,2.91,6.33,2.92,1.48,0,2.83.69,4.23,1.05.95.24,1.88.44,2.83.6,2.68.41,5.46.2,7.81-1.36,4.48-2.96,4.48-9.63,4.33-14.29-.27-8.42,4.22-9.74,6.64-9.84,1.72.42,7.56,2.56,4.06,11.77-1.65,4.37-3.81,10.68-.55,14.92,1.72,2.24,4.27,3.35,6.94,3.82.95.18,1.92.28,2.88.37,1.44.12,2.95-.1,4.35.38,1.35.46,5.29-.19,6.93-.71v.02s.05-.03.07-.04c.02,0,.05,0,.06-.02v-.02c1.4-.99,4.28-3.75,4.73-5.11.46-1.41,1.53-2.48,2.3-3.71.54-.81,1.03-1.65,1.45-2.5,1.22-2.42,1.87-5.13,1.12-7.86-1.44-5.16-7.78-7.23-12.25-8.53-8.12-2.35-7.94-7.07-7.29-9.39.97-1.54,4.81-6.31,12.42-.18,3.65,2.92,8.99,6.93,14.03,5.14,2.66-.94,4.5-3.03,5.78-5.43.46-.85.86-1.73,1.23-2.61.55-1.35.83-2.83,1.7-4.02.86-1.15,1.45-5.11,1.46-6.83h.02ZM86.88,347.49h.07-.08s0,0,0,0Z"/>
  <path class="st0" d="M359.24,739.54c.27-1.71.31-5.7-.36-6.96-.68-1.32-.73-2.81-1.05-4.23-.23-.94-.47-1.87-.79-2.78-.89-2.57-2.37-4.92-4.87-6.28-4.7-2.57-10.59.55-14.66,2.86-7.28,4.15-10.55.84-11.8-1.25-.42-1.69-1.3-7.88,8.53-9.1,4.63-.58,11.21-1.63,13.44-6.48,1.17-2.58.96-5.35.14-7.94-.3-.9-.65-1.8-1.04-2.71-.56-1.31-1.44-2.54-1.68-4-.24-1.42-2.65-4.62-3.88-5.82h0s-.03-.03-.04-.03c-.02-.02-.04-.05-.05-.06v.02c-1.55-.78-5.34-2.04-6.76-1.8-1.45.24-2.89-.19-4.35-.32-.96-.08-1.92-.11-2.89-.09-2.71.04-5.41.73-7.46,2.67-3.9,3.68-2.76,10.26-1.82,14.83,1.7,8.27-2.53,10.32-4.89,10.83-1.8-.13-7.83-1.29-5.98-10.91.89-4.6,1.94-11.16-2.02-14.8-2.08-1.92-4.76-2.58-7.49-2.58-.96,0-1.91.05-2.87.14-1.46.15-2.9.6-4.36.36-1.43-.21-5.21,1.12-6.73,1.9h0s-.02,0-.03.02c-.02,0-.05.02-.06.03v.02c-1.18,1.21-3.58,4.43-3.78,5.85-.22,1.47-1.08,2.71-1.64,4.05-.37.89-.7,1.8-.98,2.72-.8,2.58-.98,5.36.24,7.93,2.28,4.82,8.88,5.78,13.53,6.3,8.43.94,9.04,5.65,8.78,8.03-.71,1.71-3.69,6.99-12.21,2.28-4.09-2.25-10.03-5.28-14.7-2.67-2.46,1.4-3.92,3.77-4.78,6.33-.3.93-.55,1.86-.75,2.8-.31,1.42-.33,2.92-.99,4.24-.64,1.28-.56,5.28-.28,6.98h-.01s.01.02.02.04c0,.03,0,.07.01.09h.03c.78,1.52,3.09,4.77,4.39,5.4,1.32.66,2.24,1.86,3.33,2.81.73.62,1.48,1.22,2.27,1.78,2.22,1.55,4.82,2.58,7.62,2.22,5.31-.7,8.26-6.67,10.17-10.91,3.47-7.68,8.08-6.88,10.31-5.91,1.35,1.13,5.65,5.62-1.54,12.35-3.41,3.2-8.14,7.92-7.09,13.14.56,2.79,2.36,4.91,4.55,6.51.78.57,1.59,1.08,2.41,1.58,1.26.75,2.68,1.22,3.74,2.26,1.02,1,4.84,2.17,6.54,2.42v.02s.04,0,.06-.01c.02,0,.05,0,.06.01v-.02c1.69-.27,5.51-1.48,6.51-2.5,1.06-1.04,2.47-1.54,3.71-2.32.82-.5,1.63-1.03,2.4-1.61,2.16-1.63,3.93-3.76,4.46-6.56.98-5.26-3.78-9.9-7.22-13.07-6.24-5.67-4.05-9.81-2.44-11.62,1.51-.94,7.1-3.61,11.25,5.3,1.98,4.22,5.01,10.17,10.32,10.78,2.82.34,5.39-.73,7.59-2.31.77-.56,1.53-1.18,2.25-1.8,1.1-.96,1.97-2.19,3.31-2.86,1.27-.66,3.54-3.92,4.31-5.48h.02s0-.04,0-.05c.01-.02.03-.05.04-.07h-.03ZM299.97,720.68l.05-.05-.05.06h0Z"/>
  <path class="st0" d="M579.56,336.53h.02s-.04-.05-.05-.07c0-.02,0-.04-.02-.05h-.02c-1.01-1.38-3.84-4.22-5.18-4.65-1.42-.44-2.51-1.48-3.74-2.25-.83-.5-1.68-.97-2.55-1.39-2.44-1.19-5.15-1.79-7.86-.98-5.15,1.53-7.09,7.89-8.32,12.39-2.58,9.44-8.48,7.84-10.16,7.16-1.89-1.49-4.81-5.2.38-11.89,2.86-3.68,6.76-9.09,4.91-14.1-.99-2.65-3.11-4.46-5.53-5.7-.86-.44-1.75-.83-2.64-1.18-1.35-.54-2.83-.78-4.03-1.64-1.18-.83-5.14-1.37-6.85-1.35v-.02s-.03.01-.05.02h-.07v.02c-1.62.53-5.21,2.33-6.04,3.5-.86,1.21-2.18,1.92-3.29,2.86-.73.62-1.45,1.28-2.11,1.97-1.88,1.96-3.31,4.36-3.37,7.19-.15,5.34,5.31,9.17,9.19,11.72,8.25,5.41,4.8,10.56,3.66,11.91-2.02,1.33-6.43,2.91-11.16-4.05-2.61-3.86-6.56-9.25-11.89-9.02-2.83.12-5.2,1.58-7.12,3.49-.68.68-1.34,1.41-1.94,2.15-.92,1.12-1.62,2.45-2.81,3.33-1.15.85-2.89,4.45-3.39,6.09h-.03s0,.05,0,.07c0,.01-.01.04-.02.05h.02c.01,1.72.61,5.68,1.46,6.83.89,1.18,1.16,2.67,1.71,4.02.37.89.77,1.77,1.23,2.62,1.28,2.39,3.13,4.48,5.78,5.42,5.06,1.79,10.38-2.21,14.03-5.13,7.73-6.21,11.55-1.23,12.45.24.64,2.34.73,6.99-7.32,9.33-4.48,1.3-10.81,3.37-12.25,8.53-.75,2.73-.1,5.44,1.11,7.86.45.85.94,1.69,1.44,2.5.8,1.23,1.85,2.3,2.31,3.71.46,1.36,3.34,4.12,4.74,5.11v.02s.04,0,.05.02c.02,0,.04.03.05.04v-.02c1.66.53,5.61,1.17,6.94.71,1.41-.47,2.89-.26,4.35-.37.96-.08,1.93-.19,2.88-.37,2.67-.47,5.22-1.58,6.94-3.82,3.26-4.24,1.1-10.55-.55-14.92-3.5-9.21,2.33-11.35,4.05-11.77,2.42.11,6.9,1.43,6.64,9.85-.15,4.66-.14,11.32,4.33,14.29,2.36,1.57,5.13,1.78,7.82,1.37.95-.16,1.9-.36,2.83-.61,1.41-.36,2.74-1.04,4.23-1.04,1.43,0,4.94-1.9,6.33-2.94v.02s.04-.04.05-.05c.02-.01.04-.03.05-.04l-.02-.02c1-1.4,2.84-4.95,2.82-6.38-.02-1.48.64-2.83.96-4.24.23-.95.43-1.89.56-2.85.35-2.68.1-5.45-1.5-7.79-3.04-4.4-9.7-4.31-14.37-4.08-9.84.48-10.06-5.74-9.93-7.5.86-2.27,3.51-6.12,11.41-3.26,4.39,1.58,10.73,3.62,14.92.29,2.22-1.76,3.29-4.33,3.72-7.02.14-.94.23-1.91.29-2.87.09-1.45-.15-2.94.31-4.34.43-1.37-.28-5.3-.84-6.93M541.95,347.5h-.08s.08,0,.08,0h0Z"/>
  <path class="st0" d="M196,260.33c-1.71-4.92,2.22-12.21-2.04-15.11-3.41-2.33-5.35,2.26-6.56,4.89-1.45,3.16-3.96,6.22-8.46,4.03-3.47-3.61-1.32-6.93,1.22-9.28,2.12-1.95,5.9-5.22,2.62-7.75-4.08-3.14-9.8,2.85-15,2.74-5.2.11-10.93-5.89-15-2.74-3.28,2.53.49,5.8,2.61,7.75,2.56,2.35,4.7,5.68,1.22,9.28-4.49,2.19-7.02-.87-8.45-4.03-1.21-2.63-3.14-7.22-6.56-4.89-4.26,2.9-.33,10.19-2.03,15.11-1.49,4.98-8.99,8.58-7.26,13.43,1.41,3.9,5.68,1.32,8.2-.09,3.02-1.7,6.82-2.7,9.19,1.67.7,4.97-2.98,6.42-6.43,6.83-2.86.33-7.83.76-6.69,4.73,1.45,4.94,9.58,3.47,13.74,6.58h0c4.3,2.95,5.4,11.21,10.55,11.06,4.14-.13,3.01-4.97,2.45-7.82-.68-3.41-.47-7.35,4.46-8.23,4.92.88,5.17,4.82,4.48,8.23-.58,2.84-1.69,7.69,2.43,7.82,5.16.15,6.26-8.09,10.53-11.05,4.15-3.14,12.31-1.65,13.75-6.6,1.16-3.97-3.81-4.4-6.68-4.73-3.47-.41-7.13-1.86-6.43-6.83,2.36-4.36,6.17-3.38,9.19-1.67,2.52,1.42,6.8,3.99,8.19.09,1.73-4.85-5.77-8.45-7.25-13.43M167.78,281.74c-6.94,0-12.57-5.63-12.57-12.59s5.63-12.58,12.57-12.58,12.59,5.63,12.59,12.58-5.63,12.59-12.59,12.59M185.64,275.33l-.26-.84.28.82h-.02Z"/>
  <path class="st0" d="M215.76,277.57c-.75-.23-1.5-.35-2.25-.34.47-2.63.72-5.32.72-8.07,0-12.72-5.15-24.26-13.46-32.66.69-.47,1.31-1.06,1.82-1.78,2.37-3.32-1.69-10.29-1.69-10.29,0,0-7.92-1.6-10.29,1.7-.46.63-.8,1.31-1.02,2.02-6.51-3.47-13.93-5.45-21.8-5.45s-14.59,1.8-20.87,4.97c-.23-.8-.6-1.56-1.12-2.26-2.42-3.28-10.31-1.56-10.31-1.56,0,0-3.98,7.03-1.55,10.31.46.63,1.01,1.17,1.62,1.6-8.75,8.45-14.21,20.3-14.21,33.39,0,2.39.18,4.75.53,7.05-.82-.02-1.65.09-2.48.37-3.87,1.28-4.67,9.31-4.67,9.31,0,0,5.46,5.95,9.31,4.66.74-.24,1.41-.6,2.01-1.03,6.51,13.29,19.17,23.02,34.26,25.48-.27.78-.42,1.61-.42,2.49.01,4.07,7.41,7.31,7.41,7.31,0,0,7.34-3.34,7.31-7.41,0-.78-.13-1.53-.36-2.23,15.17-2.12,28.01-11.6,34.8-24.71.66.51,1.41.91,2.25,1.18,3.89,1.23,9.25-4.79,9.25-4.79,0,0-.9-8.03-4.79-9.25M169.99,310.59c-.86-.35-1.8-.54-2.79-.53-.89,0-1.73.18-2.51.47-16.29-1.21-29.98-11.84-35.63-26.47.06-.93-.05-1.88-.36-2.83-.28-.84-.71-1.59-1.23-2.25-.77-3.15-1.18-6.44-1.18-9.82,0-13,6.01-24.62,15.4-32.24.89-.23,1.76-.62,2.54-1.2.71-.52,1.29-1.16,1.75-1.85,6.34-3.93,13.81-6.21,21.8-6.21s16.1,2.48,22.61,6.72c.49.77,1.13,1.46,1.92,2.03.71.51,1.48.86,2.27,1.09,8.99,7.62,14.72,18.98,14.72,31.66,0,3.7-.49,7.28-1.41,10.7-.61.72-1.08,1.56-1.38,2.51-.27.85-.37,1.71-.33,2.56-5.95,14.44-19.83,24.81-36.18,25.68"/>
  <path class="st0" d="M91.91,470.94c-.47-5.17,5.06-11.33,1.62-15.14-2.77-3.08-5.76.93-7.55,3.19-2.15,2.72-5.3,5.11-9.17,1.92-2.51-4.32.34-7.05,3.38-8.73,2.53-1.41,6.97-3.69,4.37-6.92-3.2-4.02-10.17.44-15.19-.88-5.11-1.09-9.25-8.32-13.96-6.22-3.78,1.69-.89,5.75.71,8.16,1.92,2.89,3.2,6.61-.99,9.29-4.89,1.09-6.62-2.48-7.28-5.9-.55-2.84-1.35-7.76-5.22-6.31-4.82,1.82-2.73,9.84-5.55,14.2-2.63,4.49-10.75,6.22-10.22,11.34.45,4.12,5.19,2.63,7.98,1.85,3.35-.94,7.29-1.01,8.53,3.83-.51,4.98-4.41,5.51-7.87,5.08-2.86-.35-7.79-1.1-7.59,3.03.22,5.13,8.48,5.63,11.76,9.64,3.48,3.87,2.59,12.16,7.64,13.23,4.05.86,4.11-4.13,4.23-7.02.15-3.47,1.31-7.23,6.32-6.91,4.55,2.02,3.83,5.9,2.35,9.02-1.22,2.63-3.46,7.08.54,8.18,4.95,1.36,7.98-6.35,12.81-8.23,4.76-2.11,12.37,1.3,14.93-3.16,2.08-3.59-2.65-5.19-5.35-6.19-3.28-1.2-6.53-3.49-4.64-8.16,3.33-3.69,6.81-1.82,9.33.53,2.11,1.99,5.65,5.5,7.93,2.04,2.83-4.31-3.61-9.57-3.87-14.77M74.64,475.83c-1.63,6.75-8.45,10.9-15.2,9.24-6.75-1.63-10.9-8.44-9.25-15.19,1.64-6.75,8.45-10.89,15.2-9.25,6.75,1.65,10.9,8.45,9.25,15.2M78.31,483.08l-.03-.47.04.47h0Z"/>
  <path class="st0" d="M107.05,492.37c-.67-.4-1.38-.69-2.1-.86,1.07-2.44,1.96-5,2.61-7.67,3-12.36.73-24.8-5.36-34.93.78-.29,1.52-.72,2.19-1.3,3.09-2.65.79-10.39.79-10.39,0,0-7.31-3.43-10.4-.78-.59.51-1.08,1.09-1.47,1.73-5.5-4.92-12.24-8.59-19.89-10.45-7.3-1.78-14.61-1.7-21.47-.1-.04-.83-.22-1.66-.56-2.47-1.57-3.75-9.64-3.95-9.64-3.95,0,0-5.53,5.89-3.96,9.64.31.73.72,1.38,1.21,1.95-10.5,6.14-18.61,16.36-21.72,29.09-.56,2.32-.94,4.65-1.14,6.96-.8-.21-1.64-.3-2.51-.23-4.06.33-6.73,7.96-6.73,7.96,0,0,3.89,7.07,7.95,6.73.78-.07,1.52-.25,2.2-.53,3.18,14.44,13.18,26.9,27.24,32.86-.45.69-.8,1.46-.99,2.31-.92,3.96,5.48,8.87,5.48,8.87,0,0,7.92-1.52,8.87-5.49.18-.75.23-1.5.17-2.24,15.25,1.52,29.96-4.65,39.66-15.78.52.65,1.15,1.22,1.9,1.68,3.47,2.11,10.13-2.48,10.13-2.48,0,0,.99-8.01-2.46-10.12M54.74,513.63c-.75-.54-1.62-.94-2.58-1.17-.85-.2-1.7-.23-2.53-.14-15.56-5.02-26.35-18.62-28.36-34.19.27-.88.39-1.82.31-2.79-.07-.89-.3-1.71-.66-2.48,0-3.25.37-6.54,1.17-9.83,3.08-12.64,11.67-22.51,22.6-27.68.91-.02,1.83-.2,2.72-.57.81-.33,1.53-.81,2.14-1.37,7.09-2.32,14.89-2.77,22.66-.88,8.1,1.97,15.05,6.21,20.38,11.87.29.87.75,1.7,1.38,2.44.57.66,1.24,1.19,1.97,1.6,6.93,9.53,9.8,21.92,6.8,34.23-.88,3.6-2.2,6.96-3.9,10.07-.76.55-1.42,1.26-1.94,2.11-.46.76-.76,1.58-.92,2.4-9.21,12.63-25.14,19.42-41.24,16.38"/>
  <path class="st0" d="M232.49,685.72c-2.03-3.62-5.81-.37-8.05,1.45-2.72,2.18-6.33,3.81-9.38-.19-1.46-4.73,1.92-6.78,5.25-7.75,2.77-.79,7.59-2.06,5.78-5.77-2.23-4.63-10.03-1.81-14.65-4.22-4.71-2.2-7.17-10.13-12.23-9.13-4.05.8-2.14,5.41-1.1,8.11,1.25,3.23,1.67,7.16-3.03,8.84-5-.05-5.9-3.89-5.8-7.35.1-2.91.4-7.88-3.69-7.3-5.11.7-4.83,8.95-8.52,12.61h0c-3.55,3.81-11.88,3.69-12.49,8.81-.47,4.13,4.51,3.7,7.39,3.57,3.48-.19,7.34.64,7.47,5.66-1.59,4.7-5.51,4.35-8.77,3.19-2.73-.98-7.37-2.81-8.08,1.26-.92,5.08,7.09,7.37,9.38,12.06,2.5,4.55-.17,12.39,4.5,14.53,3.75,1.74,4.92-3.11,5.67-5.9.9-3.36,2.87-6.79,7.66-5.38,4.03,2.98,2.47,6.61.35,9.36-1.78,2.29-4.96,6.14-1.29,8.08,4.53,2.44,9.19-4.45,14.34-5.19,5.11-.97,11.75,3.97,15.24.21,2.81-3.05-1.47-5.65-3.89-7.22-2.91-1.89-5.56-4.83-2.74-8.95,4.07-2.91,7.06-.31,9,2.56,1.64,2.4,4.32,6.6,7.28,3.73,3.72-3.58-1.39-10.14-.51-15.27.66-5.16,7.42-9.94,4.91-14.41M209.66,701.08c-3.1,6.24-10.65,8.77-16.88,5.68-6.21-3.08-8.77-10.64-5.66-16.86,3.08-6.23,10.64-8.78,16.88-5.68,6.21,3.1,8.75,10.64,5.67,16.86M211.66,708.96h-.01l.08-.5-.07.5Z"/>
  <path class="st0" d="M247.94,670.16s-6.38-4.95-9.97-3.04c-.69.37-1.29.83-1.81,1.36-4.28-6.01-10.05-11.09-17.1-14.6-6.73-3.33-13.88-4.88-20.92-4.83.14-.82.16-1.67,0-2.53-.71-4.01-8.54-5.98-8.54-5.98,0,0-6.68,4.52-5.98,8.53.14.78.39,1.5.75,2.17-11.6,3.67-21.76,11.85-27.59,23.58-1.07,2.15-1.95,4.33-2.66,6.54-.73-.38-1.53-.66-2.39-.79-4.03-.56-8.34,6.27-8.34,6.27,0,0,2.24,7.77,6.28,8.33.78.11,1.54.09,2.27-.03-.09,14.79,6.92,29.15,19.33,38.05-.6.58-1.11,1.26-1.49,2.05-1.78,3.65,3.4,9.85,3.4,9.85,0,0,8.07.27,9.85-3.39.34-.7.56-1.43.67-2.16,14.54,4.87,30.26,2.09,42.18-6.64.37.74.85,1.44,1.48,2.04,2.92,2.84,10.43-.17,10.43-.17,0,0,2.74-7.6-.18-10.42-.56-.54-1.19-.98-1.85-1.31,1.58-2.14,3-4.44,4.22-6.89,5.66-11.4,6.19-24.04,2.47-35.26.82-.11,1.64-.37,2.42-.78,3.59-1.91,3.05-9.97,3.05-9.97M235.56,713.97c-1.64,3.31-3.68,6.3-6.01,8.95-.85.37-1.66.91-2.35,1.62-.62.65-1.09,1.38-1.44,2.15-11.75,10.28-28.79,13.41-43.81,6.92-.62-.71-1.39-1.31-2.29-1.75-.8-.39-1.64-.61-2.47-.7-14.04-8.34-21.56-23.96-20.11-39.57.47-.8.79-1.71.93-2.68.13-.88.08-1.73-.09-2.56.71-3.16,1.8-6.29,3.31-9.33,5.78-11.65,16.34-19.37,28.14-22.01.89.19,1.84.22,2.79.05.86-.15,1.66-.46,2.37-.87,7.44-.7,15.15.58,22.32,4.13,7.46,3.71,13.31,9.38,17.25,16.07.1.92.36,1.83.81,2.69.42.77.95,1.43,1.56,1.98,4.66,10.82,4.72,23.54-.92,34.89"/>
  <path class="st0" d="M454.41,696.25c-3.25,1.16-7.15,1.51-8.77-3.16.11-5.05,3.98-5.87,7.46-5.69,2.89.13,7.86.56,7.39-3.57-.6-5.11-8.95-5-12.47-8.81h0c-3.71-3.65-3.43-11.91-8.53-12.61-4.09-.58-3.79,4.39-3.7,7.3.1,3.47-.8,7.3-5.8,7.35-4.69-1.68-4.25-5.61-3.01-8.84,1.03-2.71,2.94-7.32-1.11-8.11-5.06-1-7.52,6.94-12.23,9.13-4.6,2.42-12.4-.4-14.64,4.22-1.81,3.71,3.01,4.98,5.8,5.77,3.33.97,6.71,3.01,5.22,7.77-3.05,3.97-6.65,2.34-9.36.17-2.25-1.82-6.03-5.07-8.05-1.45-2.53,4.48,4.29,9.28,4.91,14.46.85,5.12-4.22,11.65-.52,15.22,2.98,2.86,5.67-1.33,7.3-3.73,1.94-2.87,4.92-5.47,9-2.56,2.82,4.13.15,7.06-2.76,8.95-2.42,1.57-6.67,4.17-3.87,7.22,3.49,3.77,10.12-1.17,15.23-.21,5.16.74,9.81,7.63,14.36,5.19,3.65-1.94.49-5.79-1.29-8.08-2.12-2.74-3.68-6.38.33-9.36,4.81-1.41,6.77,2.02,7.68,5.38.76,2.79,1.9,7.64,5.65,5.9,4.67-2.14,2.02-9.98,4.52-14.53,2.27-4.69,10.29-6.98,9.37-12.06-.73-4.08-5.35-2.24-8.1-1.26M413.41,708.96l-.07-.49.08.49h-.01ZM432.29,706.76c-6.23,3.09-13.79.56-16.88-5.68-3.08-6.21-.56-13.76,5.67-16.86,6.23-3.1,13.78-.55,16.88,5.68,3.09,6.21.55,13.78-5.66,16.86"/>
  <path class="st0" d="M473.33,680.58c-.86.13-1.66.4-2.39.79-.71-2.21-1.59-4.4-2.66-6.54-5.83-11.73-15.99-19.91-27.6-23.58.35-.66.61-1.4.74-2.17.71-4-5.98-8.53-5.98-8.53,0,0-7.83,1.97-8.53,5.98-.15.86-.14,1.72,0,2.53-7.04-.05-14.19,1.49-20.91,4.83-7.06,3.51-12.82,8.59-17.11,14.6-.52-.53-1.12-.99-1.82-1.36-3.59-1.91-9.97,3.04-9.97,3.04,0,0-.53,8.06,3.06,9.97.78.41,1.6.66,2.43.78-3.71,11.23-3.19,23.86,2.46,35.26,1.22,2.46,2.65,4.76,4.23,6.9-.66.33-1.28.76-1.84,1.3-2.94,2.81-.18,10.42-.18,10.42,0,0,7.49,3.01,10.41.17.63-.61,1.12-1.3,1.49-2.05,11.91,8.73,27.64,11.51,42.19,6.64.11.73.33,1.46.67,2.16,1.76,3.66,9.85,3.39,9.85,3.39,0,0,5.17-6.2,3.37-9.85-.38-.79-.89-1.47-1.48-2.05,12.42-8.9,19.42-23.26,19.34-38.06.73.13,1.5.14,2.27.03,4.02-.56,6.26-8.33,6.26-8.33,0,0-4.28-6.83-8.32-6.27M447.89,731.16c-.84.09-1.67.31-2.47.7-.9.44-1.68,1.04-2.3,1.75-15.03,6.48-32.05,3.36-43.81-6.92-.34-.77-.81-1.5-1.43-2.15-.7-.71-1.5-1.26-2.37-1.63-2.33-2.65-4.36-5.63-6.01-8.94-5.63-11.35-5.57-24.07-.91-34.89.61-.56,1.14-1.22,1.55-1.99.46-.86.72-1.77.82-2.68,3.94-6.7,9.8-12.38,17.26-16.08,7.17-3.56,14.88-4.84,22.31-4.13.72.41,1.51.71,2.37.86.95.17,1.9.14,2.8-.05,11.8,2.64,22.36,10.36,28.16,22.01,1.5,3.03,2.59,6.16,3.3,9.32-.18.82-.23,1.69-.1,2.56.14.98.47,1.88.94,2.68,1.45,15.61-6.07,31.23-20.1,39.57"/>
  <path class="st0" d="M591.8,470.79c2.79.79,7.53,2.27,7.97-1.85.54-5.11-7.6-6.84-10.22-11.34-2.82-4.36-.74-12.38-5.55-14.2-3.87-1.45-4.67,3.47-5.23,6.31-.65,3.42-2.36,6.98-7.27,5.9-4.21-2.68-2.92-6.41-.99-9.3,1.6-2.41,4.48-6.47.71-8.16-4.72-2.1-8.87,5.13-13.97,6.22h0c-5.02,1.31-11.98-3.14-15.17.88-2.59,3.23,1.83,5.51,4.36,6.92,3.04,1.68,5.89,4.4,3.41,8.72-3.87,3.21-7.03.84-9.18-1.9-1.81-2.27-4.76-6.27-7.55-3.19-3.46,3.83,2.13,10.02,1.6,15.2-.31,5.19-6.69,10.42-3.86,14.72,2.29,3.46,5.81-.05,7.94-2.04,2.53-2.35,6-4.22,9.33-.52,1.86,4.66-1.38,6.94-4.65,8.15-2.7,1-7.43,2.59-5.35,6.19,2.56,4.45,10.14,1.07,14.93,3.16,4.84,1.87,7.85,9.59,12.82,8.23,3.99-1.11,1.75-5.56.52-8.18-1.48-3.12-2.17-7,2.36-9.02,5-.33,6.18,3.44,6.33,6.91.12,2.89.16,7.88,4.22,7.02,5.04-1.07,4.17-9.36,7.64-13.23,3.3-4.02,11.55-4.51,11.77-9.64.19-4.13-4.73-3.38-7.61-3.03-3.46.43-7.38-.1-7.86-5.1,1.27-4.82,5.19-4.74,8.55-3.81M548.33,483.08h0s.04-.44.04-.44l-.03.44ZM567.21,485.07c-6.75,1.66-13.57-2.48-15.22-9.24-1.63-6.75,2.51-13.55,9.25-15.2,6.76-1.64,13.57,2.49,15.22,9.25,1.63,6.75-2.5,13.56-9.25,15.19"/>
  <path class="st0" d="M613.01,468.6c-.87-.07-1.71.02-2.5.23-.2-2.31-.58-4.64-1.15-6.97-3.1-12.72-11.2-22.94-21.71-29.08.49-.57.91-1.22,1.22-1.95,1.55-3.75-3.96-9.64-3.96-9.64,0,0-8.07.19-9.64,3.95-.34.81-.51,1.64-.56,2.47-6.85-1.6-14.17-1.68-21.47.1-7.65,1.87-14.39,5.54-19.9,10.45-.39-.63-.88-1.22-1.47-1.73-3.07-2.65-10.39.78-10.39.78,0,0-2.31,7.74.78,10.39.66.57,1.41,1,2.19,1.3-6.09,10.13-8.37,22.56-5.35,34.93.65,2.67,1.53,5.23,2.6,7.67-.72.17-1.43.46-2.1.86-3.47,2.11-2.46,10.12-2.46,10.12,0,0,6.65,4.59,10.13,2.48.75-.46,1.38-1.03,1.9-1.68,9.7,11.13,24.42,17.31,39.66,15.78-.05.73,0,1.49.18,2.24.94,3.97,8.86,5.48,8.86,5.48,0,0,6.41-4.91,5.48-8.87-.2-.85-.55-1.62-1-2.31,14.07-5.96,24.07-18.42,27.25-32.86.68.28,1.41.47,2.19.53,4.07.34,7.95-6.73,7.95-6.73,0,0-2.67-7.62-6.73-7.96M577.01,512.32c-.82-.09-1.66-.05-2.51.14-.96.23-1.83.63-2.58,1.17-16.11,3.05-32.06-3.75-41.26-16.4-.16-.82-.46-1.63-.92-2.39-.51-.84-1.17-1.55-1.92-2.1-1.7-3.11-3.03-6.48-3.9-10.08-3-12.32-.13-24.71,6.8-34.24.71-.41,1.38-.93,1.95-1.59.63-.74,1.09-1.56,1.39-2.43,5.32-5.66,12.28-9.9,20.37-11.88,7.77-1.89,15.57-1.45,22.66.88.61.56,1.32,1.03,2.14,1.37.89.38,1.83.56,2.74.57,10.93,5.18,19.53,15.05,22.6,27.68.8,3.29,1.17,6.58,1.17,9.82-.36.77-.59,1.6-.67,2.49-.08.98.04,1.93.32,2.81-2.02,15.56-12.82,29.14-28.37,34.16"/>
  <path class="st0" d="M489.64,260.33c-1.7-4.92,2.22-12.21-2.02-15.11-3.42-2.34-5.37,2.26-6.57,4.89-1.45,3.16-3.95,6.21-8.44,4.02-3.48-3.6-1.34-6.93,1.22-9.28,2.12-1.95,5.89-5.22,2.61-7.75-4.07-3.15-9.8,2.86-15,2.74-5.2.12-10.93-5.89-15-2.74-3.28,2.53.51,5.8,2.62,7.75,2.54,2.35,4.69,5.68,1.2,9.29-4.5,2.17-6.99-.88-8.44-4.03-1.2-2.63-3.14-7.23-6.57-4.89-4.24,2.89-.31,10.18-2,15.1h-.01c-1.48,4.99-8.99,8.59-7.26,13.45,1.41,3.89,5.67,1.33,8.17-.09,3.04-1.7,6.84-2.69,9.2,1.68.7,4.97-2.96,6.42-6.43,6.82-2.86.33-7.83.76-6.67,4.74,1.43,4.93,9.56,3.47,13.72,6.58h0c4.3,2.95,5.4,11.21,10.55,11.06,4.15-.13,3.03-4.97,2.45-7.82-.69-3.4-.46-7.34,4.47-8.23,4.93.88,5.16,4.83,4.47,8.23-.56,2.84-1.69,7.69,2.44,7.82,5.12.15,6.24-8.09,10.53-11.05,4.13-3.14,12.29-1.65,13.74-6.6,1.17-3.97-3.81-4.4-6.68-4.74-3.46-.4-7.13-1.86-6.41-6.83,2.34-4.37,6.17-3.37,9.19-1.67,2.5,1.41,6.78,3.98,8.17.08,1.75-4.84-5.76-8.44-7.25-13.42M443.56,275.32h0l.12-.33-.11.33ZM461.43,281.74c-6.95,0-12.59-5.63-12.59-12.59s5.64-12.58,12.59-12.58,12.58,5.63,12.58,12.58-5.64,12.59-12.58,12.59"/>
  <path class="st0" d="M509.83,276.57c-.82-.28-1.66-.39-2.48-.37.35-2.3.53-4.65.53-7.05,0-13.1-5.46-24.94-14.21-33.39.61-.44,1.15-.97,1.62-1.6,2.42-3.28-1.57-10.31-1.57-10.31,0,0-7.88-1.72-10.28,1.56-.52.7-.89,1.47-1.12,2.27-6.28-3.18-13.37-4.98-20.88-4.98-7.88,0-15.31,1.98-21.82,5.45-.23-.7-.56-1.39-1.02-2.02-2.36-3.3-10.28-1.7-10.28-1.7,0,0-4.06,6.97-1.69,10.29.51.71,1.13,1.3,1.81,1.77-8.32,8.4-13.47,19.94-13.47,32.67,0,2.75.25,5.45.71,8.07-.74,0-1.49.11-2.23.34-3.87,1.22-4.79,9.25-4.79,9.25,0,0,5.37,6.02,9.24,4.79.84-.27,1.59-.67,2.25-1.18,6.79,13.11,19.64,22.59,34.81,24.71-.23.7-.35,1.45-.36,2.23-.03,4.07,7.3,7.41,7.3,7.41,0,0,7.4-3.24,7.43-7.31,0-.88-.14-1.71-.42-2.49,15.08-2.46,27.75-12.19,34.26-25.48.6.43,1.27.78,2,1.03,3.87,1.29,9.33-4.66,9.33-4.66,0,0-.81-8.02-4.67-9.31M464.53,310.53c-.78-.29-1.62-.46-2.5-.47-.99,0-1.94.19-2.8.53-16.37-.86-30.24-11.24-36.19-25.69.04-.84-.06-1.69-.33-2.54-.3-.95-.78-1.79-1.38-2.51-.91-3.42-1.41-7-1.41-10.7,0-12.68,5.72-24.04,14.7-31.65.8-.23,1.56-.58,2.27-1.09.79-.56,1.43-1.26,1.92-2.03,6.51-4.24,14.27-6.72,22.61-6.72s15.47,2.28,21.81,6.22c.47.69,1.05,1.32,1.76,1.84.78.58,1.64.97,2.52,1.2,9.39,7.61,15.4,19.23,15.4,32.24,0,3.39-.42,6.69-1.19,9.84-.52.65-.94,1.4-1.22,2.23-.31.93-.42,1.88-.36,2.8-5.64,14.64-19.33,25.29-35.63,26.5"/>
  <path class="st0" d="M273.79,486.67c-4.97,2.87-13.03,7.57-13.03,7.57,0,0,27.11-8.35,28.41-9.14l-3.66-7.56s-6.78,6.26-11.72,9.13"/>
  <path class="st0" d="M420.29,522.15c14.06-41.57,14.28-133.31,14.28-133.31l-3.9.18.26-.62-5.12.85-12.13.57c10.27-5.55,19.12-13.95,19.75-26.47l.34-6.78-6.21,2.73c-5.63,2.47-11.53,4.97-17.16,7.26,7.06-6.17,12.73-14.73,13.05-26.39l.2-7.3-6.4,3.52c-15.9,8.72-33.72,18.28-39.86,21.24l-.62-.87h-2.23c-2.89,0-20.94,9.98-29.77,18.51-.81-1.96-2.15-3.61-4.09-4.5,1.52-.95,3.08-1.92,4.57-2.81l8.55-5.2-41.52-10.47-.45-.09c-.29-.04-7.12-.98-11.88-.98-2.96,0-5.24.31-6.77,1.84-.18.16-.83.33-1.22.35h-.85l-.78.33c-.7.29-2.32,1.04-3.48,2.04-.65.29-2.13.83-3.25,1.24-4.7,1.72-6.89,2.61-8.17,3.88-2.78,2.81-3.16,7.84-.8,10.8.32.39.68.73,1.08,1.01.07,1.39.77,3.71,2.89,8.42-4.11-1-8.52-2.21-11.01-2.92-.57-.28-1.3-.52-2.11-.52l-2.58.05-1.19,2.17c-1.32,2.39.11,4.64.72,5.61,2.08,3.27,5.61,5.63,9.17,7.18l-26.64-1.25c.33-.38.72-.75,1.17-1.07,2.6-1.88,3.95-3.87,4.13-6.09.05-.59,0-1.19-.14-1.75.33-4.61-2.39-9.09-4.87-12.14-4.4-5.43-6.66-5.43-7.52-5.43-1.31,0-2.55.58-3.37,1.6l-1.28,1.69.43,1.96c.1.74-.14,2.87-.41,4.3-.91.22-2.13.59-3.54,1.35-.27.14-.53.29-.77.45-.53-1.4-1.02-2.97-1.43-4.4-.48-1.64-.42-2.67-.36-3.76.09-1.55.23-3.88-1.71-6.04-1.47-1.66-3.95-2.69-11.79-2.69-2.28,0-4.08.09-4.08.09l-7.35.38,4.09,6.12c.44.67,1.38,1.67,3.38,2.71.07.17.16.4.26.65-.39.43-.75.97-1.05,1.64-.98,2.25-1.27,4.52-1.32,7.16-.34-.06-.67-.09-1.01-.09l-.45.02c-3.18.27-10.05,6.2-12.53,10.71h-4.42c-.6,47.27,3.94,83.35,8.05,105.99l-.17.22c-.86,1.1-8.35,11.04-7.09,20.34l1.07,7.9,5.9-5.36c1.4-1.27,3.04-2.69,4.36-3.78,1.29,5.27,2.15,8.01,2.15,8.01,8.39,31.71,28.85,59.38,49.74,80.8,1.91,4.76,4.39,9.35,7.54,13.59,7.88,10.58,18.97,17.74,32.58,21.16,10.98,8.08,18.37,12.48,18.37,12.48,6.74-4.76,13.13-9.68,19.2-14.7,13.07-4.68,29.03-14.11,35.92-32.94l1.98-1.32c.1-.07,2.55-1.71,4.26-3.14,1.87-1.56,1.85-3.65,1.48-5.79,3.37-3.96,6.53-7.87,9.52-11.69,3.74,3.54,8.13,5.32,11.02,5.85l7.88,1.51-3.27-7.27c-.68-1.99-.39-9.13.85-21.27,14.87-21.88,19.41-35.41,19.94-37.27M267.03,384.09c-1.36-2.15,0-1.18,0-1.18,0,0,7.79,2.24,14.16,3.7,0,0,.67.17,1.68.37,1.98.42,3.71.73,4.89.82,1.02.08,1.85.08,2.55.05h.04s.02,0,.03,0c2.27-.1,2.96-.56,3.4-.06.09.09.18.22.26.41.28.64,1.02,1.67,1.37,2.62.11.36.17.61.17.63.05.35.02.66-.15.93-.17.21-.46.42-.94.6-.19.05-.4.09-.64.12-1.1.12-2,.13-2.73.09-.51-.04-.98-.1-1.37-.17-.67-.14-.99-.29-.99-.29h0c-.36-.37-2.67-2.68-2.72-2.73h0s-.64.04-2.16,1.36c-1.17,1.03-7.92-.21-12.82-3.41-1.64-1.07-3.06-2.35-4.01-3.84M207.23,383.17c2.36-.19,10.58,7.04,14.67,6.26,4.11-.78,2.15-.39.38-1.56-1.75-1.17-9.77-5.09-9.77-7.83s.2-4.69.98-6.45c.79-1.76,2.75-.59,1.77-3.13-.98-2.53-1.17-3.71-2.74-4.5-1.56-.78-1.96-1.38-1.96-1.38,0,0,10.96-.57,12.52,1.18,1.57,1.76-.19,3.52,1.19,8.21,1.36,4.69,2.53,7.62,4.09,9.39,1.57,1.76,2.54,2.15,2.54.79s-1.35-2.15,1.57-3.72c2.93-1.57,4.49-.78,5.1-2.15.58-1.37,1.35-6.26.97-8.02-.39-1.76,9.58,7.24,8.21,13.69,0,0,1.36,1.36-2.15,3.91-3.53,2.54-5.87,7.43-1.77,12.32,4.11,4.89,19.76,14.07,19.76,14.07,0,0-9,13.11-7.24,23.28,0,0-14.07-8.41-18.19-13.1,0,0-1.38,1.75.4,4.3,1.75,2.54,19.15,19.94,19.15,19.94v7.24s-4.26-3.26-8.29-3.62c-.63-.1-1.26-.11-1.87.02-.31.07-.61.16-.91.28-4.11,1.28-6.83,5.5-8.48,5.86-1.77.4-9.98-7.62-8.81-11.53,1.19-3.92,5.67-6.66,6.66-7.43.98-.78-12.13,4.11-15.07-3.32-2.92-7.43-3.13-8.8-2.34-9,.77-.19,9.78-.39,10.37-1.76.58-1.36-13.5-.19-15.05-9.39-1.57-9.19-.4-6.25-.4-6.25,0,0,5.86,1.55,6.85-.59.98-2.15,1.17-6.85-2.55-7.63-3.71-.78-8.6-.58-11.34-7.23,0,0-4.89-1.17-7.44-1.36-2.53-.19,6.85-9.58,9.19-9.78M337.76,629.36h0c-.38.19-.76.37-1.14.54-.05.02-.09.04-.14.06-.33.15-.67.31-1.01.46-.12.05-.23.1-.35.15-.27.12-.54.23-.8.34-11.89,4.99-22.46,5.67-22.46,5.67-11.58-.28-21.13-2.76-28.93-6.72.05.04.09.08.14.11-7.99-4.02-14.14-9.61-18.73-16.03.07.06.14.13.21.2-11.92-16.54-13.42-38.7-9.27-53.95,7.07-26.01,41.03-35.4,43.16-35.96.04,0,.06-.02.06-.02,9.87,1.83,17.43,19.68,17.48,19.81-1.17.07-2.39.25-3.61.54-18.67,4.36-41.87,33.24-20.65,50.85,7.55,6.26,14.26,7.38,19.85,6.07,11.44-2.64,18.27-15.47,18.27-15.47,12.52-41.47-31.55-75.09-31.82-76.65-.25-1.56,1.44-1.73,1.44-3.35,0-.24-.07-.49-.18-.74-.44-1.31-1.83-2.42-1.83-2.42-.52-17.21,13.03-8.87,13.03-8.87-.03-.03-.05-.05-.08-.08.08.05.12.07.12.07-7.81-8.08-8.85-20.85-8.85-20.85,0,0-.02,0-.05.02h0s-2.22.6-2.22,6.03,3.01,3.35,0,6.52c-3,3.18-7.43,6.99-8.22,11.42-.77,4.44,2.09,7.83,2.09,7.83,0,0-5.44,3.61-9.86,4.68-4.44,1.03-5.8-9.2-5.8-9.2,0,0-.33-.52-1.17-.59-.02,0-.06,0-.11.02-.28.06-1.01.5-1.12,1.36-.37,2.98-.43,10.02-2.02,11.8-.71.8-2.5,1.48-4.53,1.97-3.89.94-8.64,1.2-8.46.35.47-2.36,1.04-6.59.15-8.91-.38-.98-.88-1.33-1.33-1.23-.57.09-1.09.89-1.21,2.08-.25,2.6.79,6.25-4.17,9.37-.92.58-1.94.97-3,1.21-4.65,1.04-9.99-.69-9.99-.69,0,0,1.55-7.04,0-8.34-.77-.65-1.45-.8-2.05-.63-2.57.67-3.59,7.6-4.01,8.93-1.14,3.56-4.28,6.76-7.89,7.87-.46.1-4.88.63-4.85.53,0,0,0,0,0,.02-.02,0-.04,0-.04,0,0,0-.25.8-1.29,5.45-.45,2.03-.84,2.69-1.16,2.8-.38.06-.62-.72-.62-.72-5.2-6.25-4.7-15.11-4.7-15.11,8.88-7.31,7.04-12.51,7.04-12.51-.01.01-.03.03-.04.04,0-.02-.01-.03-.01-.03-3.49,4.06-6.46,5.9-8.94,6.52-5.24,1.31-8.3-2.76-9.62-2.43-.07.01-.14.03-.2.07-1.84,1.04-7.3,5.99-7.3,5.99-.61-4.53,1.59-9.59,3.54-13.04,0,.02,0,.04,0,.05,1.33-2.36,2.56-3.99,2.72-4.21,2.94,1.33,7.57,1.08,10.88.28,3.17-.75,5.14-2.02,3.23-2.91-3.92-1.83-6.01-8.09-6.01-8.09-.86-.03-5.5-.66-6.83-.42-.14.02-.23.05-.3.09,3.04-4.22,6.6-7.55,11.53-8.79.7-.18,1.42-.31,2.18-.39.62-.07,7.57-.38,7.71.66.79,5.48,4.44,7.83,6.52,7.3,0,0,.02,0,.03,0,0,0,.01,0,.02,0,2.07-.51,12.81-8.9,31.15-19.93,21.64-13.05,19.42-18.9,19.42-18.9l-.04.02s0-.01,0-.01l-16.39,9.36-1.55-2.81c-2.08-15.33,13.55-25.08,9.39-24.56-4.17.52-10.17.52-10.17.52,2.48-10.05,9.54-14.24,15.97-15.92,4.39-1.14,8.48-1.12,10.59-1.02,2.47-.14,4.67-.43,6.63-.83,0,0,0,0,.01,0,.42-.09.83-.18,1.23-.28l.47-.12c.23-.06.46-.12.68-.19.2-.06.41-.12.61-.18.13-.04.26-.09.38-.13,10.55-3.4,12.12-10.91,11.54-16.64h-.05c-.42-4.2-1.97-7.44-1.97-7.44.24,2.54.12,5.01-.39,7.33h0c-.03.14-.07.28-.11.42-.05.2-.1.4-.15.6-.06.21-.13.42-.19.63-.06.18-.12.36-.19.54-.08.22-.15.43-.24.65-.12.3-.25.6-.38.9-.06.14-.13.27-.19.4-.14.28-.29.57-.44.85-.04.07-.08.14-.12.21-.22.38-.46.75-.71,1.12,0,0-.01.02-.02.03-1.61,2.31-3.84,4.31-6.77,5.87-.97.52-1.97.89-2.98,1.16-7.13,1.83-14.7-1.95-14.7-1.95,1.04-.52.79-2.09,1.29-4.7.4-1.93,2.06-4.85,2.89-6.24l.43.44.62.31c.31.15.95.42,1.94.62.26.22.54.46.85.72,1.7,1.44,4.19,1.24,6.24.68,2.06-.55,3.71-1.47,3.71-1.47.48-.71.81-1.44,1.05-2.17h-.03c1.84-5.68-2.92-11.58-5.23-13.21-2.61-1.82-3.65-1.82-4.7-1.04-.53.41-1.57,1.81-2.44,3.06-.05,0-.1,0-.16-.01-.63-.05-1.5-.18-2.51-.37-1.5-3.23-3.84-8.48-3.49-9.19.53-1.04,2.36-1.04,3.14-2.34.78-1.3-1.32-1.3-1.32-1.3,0,0-2.85,1.55-3.9.26-1.03-1.3-.77-3.91.52-5.21,1.31-1.3,10.16-3.91,10.96-4.69.77-.79,2.6-1.56,2.6-1.56,0,0,2.61,0,4.18-1.57,1.56-1.56,15.11.32,15.11.32l31.81,8.02s-15.89,9.65-14.61,9.9c1.31.27,5.22-.51,9.39,0,4.18.52,3.66,7.05,3.66,7.05.25,15.13-13.56,10.17-13.56,10.17,0,0,1.04,3.39,3.12,5.22,2.09,1.82,2.61,3.13,2.61,3.13-2.09,6.52,8.35,20.33,7.3,23.73-.16.52-.57.84-1.15.99-2.97.75-10.17-2.38-11.19-1.96-.11.03-.17.09-.17.18,0,1.31.53,19.04.53,19.04-1.05.5-2.04.84-2.98,1.06-11.25,2.47-15.23-14.29-15.23-13.33,0,0,0,.02,0,.02-.03-.06-.05-.07-.05,0,0,1.04-8.6,16.16-8.6,16.16l.05-.03s0,.02,0,.02l8.04-4.15c5.72,8.33,18.24,5.72,18.24,5.72,0,0,0,0,.01,0,.02,0,.03,0,.03,0,24.27-8.76,19.04-39.03,16.48-55.07h-.05c-.72-4.47-1.22-7.84-.83-9.32,1.82-6.77,29.99-22.68,30.51-21.91.52.8,0,1.58,1.83,1.58s42.81-22.49,42.81-22.49c-.77,28.16-38.13,36.57-38.13,36.57,0,0-3.71,1.56.6,3.52,4.37,1.97,47.51-17.02,47.51-17.02-.67,13.4-12.77,21.51-24.42,26.25-10.78,4.38-21.18,5.88-21.8,6.01-.01,0-.02,0-.04,0,0,0,0,0-.01,0-1.31.26-3.2,4.3,1.83,4.17,5.37-.14,39.36-5.81,39.36-5.81-1.74,4.18-5.04,8.6-8.22,11.8-5.29,5.34-12.46,7.93-19.59,9.8-.02,0-.06.02-.09.03-1.65.39-13.96,2.95-13.89,2.28,0,.02-.01.04-.02.05-.01-.01-.02-.03-.02-.04-1.57,3.9.2,2,2.92,2.55,4.66.91,8.78,1.68,13.51,2.47,5,.81,10.27,1.49,15.24.26v.2c-2.81,6.05-9.87,11.62-16.39,12.9-4.61.88-9.55.21-14.12-.55-2.24-.37-4.87-1.47-7.11-1.47-.33,0-.61.04-.84.11-3.38.94,4.5,8.63,5.34,9.47,3.86,3.89,7.39,6.29,10.77,10.61,1.42,1.82,4.04,3.33,1.33,4.98-1.65,1.02-4.11.9-5.98,1.09-2.77.28-4.84.17-7.51-.28-.21-.05-.43-.09-.65-.13-3.74-.69-6.75-2.59-9.73-4.83-.82-.62-3.61-3.19-5.44-2.69-.43.1-.81.38-1.11.89-2.28,4.02,6.26,11.35,9.02,16.13,1.18,2.07,2.93,4.41,4.22,6.41,1.61,2.51.99,3.1-.52,4.27-4.22,3.23-10.61-.6-14.67-1.97l-.57-.59c-1.07-.71-9.67-7.59-11.28-9.18-.16-.19-.24-.32-.21-.34-.01.01-.03.02-.05.04,0,0,0-.02,0-.03-1.13.98-2.14,1.53-1.2,3.06,1.36,2.2,2.03,7.25,3.14,9.59,1.88,3.99.74,11.67.74,11.67,0,0-1.72,1.41-3.16,1.77-.09.02-.19.04-.28.05-5.99.79-17.67-15.58-18.97-15.84-1.31-.27-9.19,1.17-9.19,1.17h0s-.05.01-.05.01c27.36,14.34,47,79.91,47,79.91,0-.05,0-.09,0-.14.02.08.04.13.04.13,1.57-17.48-17.72-58.66-17.72-58.66.12-.04.24-.08.37-.11,4.13-1.11,13.14-.14,13.14-.14-9.66,23.2,13.57,29.2,13.57,29.2-16.44,15.65,2.07,32.33,2.07,32.33-15.38,15.91-6.26,31.55-7.83,32.86-1.45,1.21-3.57,2.65-3.86,2.85l-1.82-2.61s0,.04-.01.06l-.03-.05c-4.04,17.72-16.09,27.76-27.76,33.44M382,566.77h0c-.09-.6-.23-1.71-.26-2.58l2.32-2.4-3.22-2.91c-.07-.06-7.38-6.87-7.49-14.82-.05-4.06,1.74-7.78,5.5-11.35l5.39-5.16-7.22-1.93c-.08-.02-8.29-2.28-11.49-8.78-1.08-2.19-1.48-4.68-1.22-7.46l3.4-.99s12.59-2.96,18.58-17.29c5.99-14.35,11.35-31.31,28.55-27.91,0,0-5.35,2.35-4.82,35.2,0,0-1.05,15.66-17.22,22.95,0,0,7.82,9.13,7.05,16.17-.79,7.05-5.48,40.4-3.13,45.61,0,0-12.89-2.53-14.71-16.36"/>
  <path class="st0" d="M295.01,367.65s.59,2.94.99,3.92c.37.98.96.77,3.5,0,2.55-.79,7.64-2.16,13.11-1.76,5.48.39,3.14-1.95,3.14-1.95-4.5-2.34-24.44-4.11-24.44-4.11l.19,1.37c1.17,0,3.52,2.54,3.52,2.54"/>
  <path class="st0" d="M247.51,194.09c0,1.47-1.33,2.66-2.98,2.66s-3.01-1.19-3.01-2.66v-11.02c0-1.46,1.35-2.66,3.01-2.66s2.98,1.19,2.98,2.66v11.02Z"/>
  <path class="st0" d="M247.51,216.88c0,1.47-1.33,2.65-2.98,2.65s-3.01-1.18-3.01-2.65v-11.01c0-1.47,1.35-2.66,3.01-2.66s2.98,1.19,2.98,2.66v11.01Z"/>
  <path class="st0" d="M247.51,239.67c0,1.46-1.33,2.66-2.98,2.66s-3.01-1.19-3.01-2.66v-11.02c0-1.46,1.35-2.66,3.01-2.66s2.98,1.2,2.98,2.66v11.02Z"/>
  <path class="st0" d="M247.51,262.46c0,1.46-1.33,2.66-2.98,2.66s-3.01-1.19-3.01-2.66v-11.01c0-1.47,1.35-2.66,3.01-2.66s2.98,1.19,2.98,2.66v11.01Z"/>
  <path class="st0" d="M233.45,174.13c0,1.53.8,5.53,1.87,6.7.74.83,1.9,1.13,3,1.47v-8.17c0-3.37,2.74-6.11,6.11-6.11s6.13,2.74,6.13,6.11v8.17c.96-.3,2.22-.41,2.79-1.24,1.63-2.32,2.06-4.2,2.06-6.93,0-6.05-4.92-10.98-10.97-10.98s-10.97,4.92-10.97,10.98"/>
  <path class="st0" d="M233.45,273.11c0-1.53.8-5.53,1.87-6.7.74-.82,1.9-1.12,3-1.47v8.17c0,3.37,2.74,6.11,6.11,6.11s6.13-2.74,6.13-6.11v-8.17c.96.3,2.22.41,2.79,1.24,1.63,2.32,2.06,4.2,2.06,6.93,0,6.05-4.92,10.98-10.97,10.98s-10.97-4.92-10.97-10.98"/>
  <path class="st0" d="M376.59,194.09c0,1.47,1.34,2.66,3,2.66s2.98-1.19,2.98-2.66v-11.02c0-1.46-1.33-2.66-2.98-2.66s-3,1.19-3,2.66v11.02Z"/>
  <path class="st0" d="M376.59,216.88c0,1.47,1.34,2.65,3,2.65s2.98-1.18,2.98-2.65v-11.01c0-1.47-1.33-2.66-2.98-2.66s-3,1.19-3,2.66v11.01Z"/>
  <path class="st0" d="M376.59,239.67c0,1.46,1.34,2.66,3,2.66s2.98-1.19,2.98-2.66v-11.02c0-1.46-1.33-2.66-2.98-2.66s-3,1.2-3,2.66v11.02Z"/>
  <path class="st0" d="M376.59,262.46c0,1.46,1.34,2.66,3,2.66s2.98-1.19,2.98-2.66v-11.01c0-1.47-1.33-2.66-2.98-2.66s-3,1.19-3,2.66v11.01Z"/>
  <path class="st0" d="M390.65,174.13c0,1.53-.8,5.53-1.87,6.7-.75.83-1.88,1.13-3,1.47v-8.17c0-3.37-2.73-6.11-6.11-6.11s-6.11,2.74-6.11,6.11v8.17c-.96-.3-2.24-.41-2.82-1.24-1.63-2.32-2.04-4.2-2.04-6.93,0-6.05,4.92-10.98,10.97-10.98s10.97,4.92,10.97,10.98"/>
  <path class="st0" d="M390.65,273.11c0-1.53-.8-5.53-1.87-6.7-.75-.82-1.88-1.12-3-1.47v8.17c0,3.37-2.73,6.11-6.11,6.11s-6.11-2.74-6.11-6.11v-8.17c-.96.3-2.24.41-2.82,1.24-1.63,2.32-2.04,4.2-2.04,6.93,0,6.05,4.92,10.98,10.97,10.98s10.97-4.92,10.97-10.98"/>
  <path class="st0" d="M258.97,166.62v115.57l14.91-21.43-3.66-3.87v-18.29h19.65v18.34l-4.98,3.86,9.95,21.76,10.25-21.76-4.98-3.86v-18.34h24.17v18.34l-4.98,3.86,9.94,21.76,10.25-21.76-4.97-3.86v-18.34h19.65v18.29l-3.68,3.87,14.12,21.43v-115.57h-105.63ZM289.87,227.65h-19.65v-20.06h19.65v20.06ZM289.87,197.22h-19.65v-20.06h19.65v20.06ZM324.28,227.65h-24.78v-20.06h24.78v20.06ZM324.28,197.22h-24.78v-20.06h24.78v20.06ZM354.45,227.65h-19.65v-20.06h19.65v20.06ZM354.45,197.22h-19.65v-20.06h19.65v20.06Z"/>
  <path class="st0" d="M482.46,631.41c.92.59,1.13,1.9.47,2.92-.66,1.04-1.95,1.41-2.86.82l-6.88-4.41c-.91-.59-1.12-1.91-.45-2.94.66-1.03,1.93-1.39,2.85-.8l6.88,4.41Z"/>
  <path class="st0" d="M496.69,640.53c.92.59,1.12,1.89.47,2.92-.66,1.03-1.94,1.41-2.86.82l-6.88-4.4c-.92-.59-1.12-1.91-.46-2.95.66-1.03,1.93-1.39,2.86-.8l6.87,4.4Z"/>
  <path class="st0" d="M510.93,649.65c.91.59,1.12,1.89.47,2.92-.66,1.03-1.95,1.41-2.86.82l-6.88-4.41c-.92-.59-1.12-1.91-.46-2.95.66-1.03,1.94-1.38,2.85-.8l6.88,4.41Z"/>
  <path class="st0" d="M525.16,658.76c.91.59,1.12,1.9.47,2.92-.66,1.04-1.95,1.41-2.86.82l-6.88-4.41c-.92-.59-1.12-1.91-.45-2.94.66-1.03,1.93-1.39,2.85-.8l6.88,4.41Z"/>
  <path class="st0" d="M464.38,632.21c.95.61,3.77,1.71,4.93,1.51.82-.13,1.46-.73,2.12-1.28l-5.1-3.27c-2.11-1.35-2.72-4.16-1.37-6.26,1.35-2.1,4.16-2.73,6.27-1.38l5.1,3.27c.2-.72.63-1.55.34-2.24-.8-1.95-1.8-2.97-3.5-4.06-3.78-2.42-8.82-1.31-11.25,2.46-2.42,3.78-1.31,8.82,2.47,11.25"/>
  <path class="st0" d="M526.19,671.8c-.95-.61-3.13-2.71-3.43-3.84-.22-.79.06-1.64.28-2.46l5.1,3.27c2.1,1.35,4.91.73,6.26-1.37,1.35-2.1.74-4.92-1.36-6.27l-5.1-3.27c.57-.48,1.14-1.23,1.89-1.24,2.11-.09,3.45.39,5.15,1.48,3.78,2.42,4.89,7.47,2.47,11.25-2.42,3.78-7.46,4.88-11.25,2.46"/>
  <path class="st0" d="M534.09,550.81c.92.59,2.2.23,2.86-.81.66-1.03.45-2.34-.47-2.92l-6.88-4.41c-.91-.58-2.19-.23-2.85.8-.66,1.04-.46,2.35.46,2.94l6.88,4.41Z"/>
  <path class="st0" d="M548.32,559.92c.92.59,2.19.23,2.86-.81.66-1.03.46-2.33-.47-2.92l-6.87-4.41c-.92-.59-2.2-.23-2.86.8-.66,1.04-.46,2.35.47,2.94l6.87,4.4Z"/>
  <path class="st0" d="M562.56,569.04c.91.59,2.19.23,2.86-.81.66-1.03.45-2.34-.47-2.92l-6.88-4.41c-.92-.59-2.2-.23-2.86.8-.66,1.04-.45,2.35.46,2.94l6.88,4.41Z"/>
  <path class="st0" d="M576.79,578.15c.91.59,2.2.23,2.86-.81.66-1.03.44-2.34-.47-2.92l-6.88-4.41c-.92-.59-2.19-.23-2.85.8-.66,1.04-.46,2.35.46,2.94l6.88,4.41Z"/>
  <path class="st0" d="M527.25,534.04c.95.61,3.13,2.71,3.43,3.84.22.8-.05,1.63-.28,2.46l-5.1-3.27c-2.11-1.35-4.91-.74-6.26,1.37-1.35,2.1-.74,4.91,1.37,6.26l5.1,3.27c-.57.48-1.15,1.23-1.9,1.26-2.1.09-3.44-.4-5.14-1.49-3.78-2.42-4.89-7.47-2.47-11.25,2.42-3.78,7.46-4.88,11.25-2.46"/>
  <path class="st0" d="M589.06,573.63c-.95-.61-3.77-1.71-4.93-1.51-.82.14-1.45.73-2.12,1.28l5.1,3.27c2.11,1.35,2.72,4.15,1.37,6.26-1.35,2.1-4.16,2.72-6.26,1.37l-5.1-3.27c-.19.72-.64,1.56-.35,2.25.8,1.95,1.8,2.96,3.51,4.05,3.78,2.42,8.82,1.31,11.25-2.46,2.42-3.78,1.31-8.82-2.47-11.25"/>
  <path class="st0" d="M469.89,613.27l72.18,46.23-7.42-17.89-3.89.74-11.42-7.32,7.86-12.27,11.46,7.34.42,4.66,17.57,2.49-9.49-15.1-4.41,1.57-11.46-7.34,9.67-15.1,11.46,7.34.42,4.66,17.56,2.5-9.49-15.1-4.4,1.56-11.46-7.34,7.86-12.27,11.43,7.31.94,3.84,19.03-.24-72.17-46.23-42.25,65.97ZM520.37,618.38l-7.86,12.27-12.53-8.02,7.86-12.27,12.53,8.02ZM501.36,606.21l-7.86,12.27-12.53-8.02,7.86-12.27,12.53,8.02ZM534.13,596.9l-9.91,15.48-12.53-8.02,9.91-15.47,12.53,8.02ZM515.12,584.72l-9.91,15.47-12.53-8.02,9.91-15.48,12.53,8.02ZM546.2,578.05l-7.86,12.27-12.53-8.02,7.86-12.27,12.53,8.02ZM527.19,565.88l-7.86,12.27-12.52-8.02,7.86-12.27,12.53,8.02Z"/>
  <path class="st0" d="M143.5,631.41c-.92.59-1.13,1.9-.47,2.92.66,1.04,1.95,1.41,2.86.82l6.88-4.41c.91-.59,1.12-1.91.45-2.94-.66-1.03-1.93-1.39-2.85-.8l-6.88,4.41Z"/>
  <path class="st0" d="M129.26,640.53c-.92.59-1.12,1.89-.47,2.92.66,1.03,1.94,1.41,2.86.82l6.88-4.4c.92-.59,1.12-1.91.46-2.95-.66-1.03-1.93-1.39-2.86-.8l-6.87,4.4Z"/>
  <path class="st0" d="M115.03,649.65c-.91.59-1.12,1.89-.47,2.92.66,1.03,1.95,1.41,2.86.82l6.88-4.41c.92-.59,1.12-1.91.46-2.95-.66-1.03-1.94-1.38-2.85-.8l-6.88,4.41Z"/>
  <path class="st0" d="M100.8,658.76c-.91.59-1.12,1.9-.47,2.92.66,1.04,1.95,1.41,2.86.82l6.88-4.41c.92-.59,1.12-1.91.45-2.94-.66-1.03-1.93-1.39-2.85-.8l-6.88,4.41Z"/>
  <path class="st0" d="M161.58,632.21c-.95.61-3.77,1.71-4.93,1.51-.82-.13-1.46-.73-2.12-1.28l5.1-3.27c2.11-1.35,2.72-4.16,1.37-6.26-1.35-2.1-4.16-2.73-6.27-1.38l-5.1,3.27c-.2-.72-.63-1.55-.34-2.24.8-1.95,1.8-2.97,3.5-4.06,3.78-2.42,8.82-1.31,11.25,2.46,2.42,3.78,1.31,8.82-2.47,11.25"/>
  <path class="st0" d="M99.77,671.8c.95-.61,3.13-2.71,3.43-3.84.22-.79-.06-1.64-.28-2.46l-5.1,3.27c-2.1,1.35-4.91.73-6.26-1.37-1.35-2.1-.74-4.92,1.36-6.27l5.1-3.27c-.57-.48-1.14-1.23-1.89-1.24-2.11-.09-3.45.39-5.15,1.48-3.78,2.42-4.89,7.47-2.47,11.25,2.42,3.78,7.46,4.88,11.25,2.46"/>
  <path class="st0" d="M91.87,550.81c-.92.59-2.2.23-2.86-.81-.66-1.03-.45-2.34.47-2.92l6.88-4.41c.91-.58,2.19-.23,2.85.8.66,1.04.46,2.35-.46,2.94l-6.88,4.41Z"/>
  <path class="st0" d="M77.64,559.92c-.92.59-2.19.23-2.86-.81-.66-1.03-.46-2.33.47-2.92l6.87-4.41c.92-.59,2.2-.23,2.86.8.66,1.04.46,2.35-.47,2.94l-6.87,4.4Z"/>
  <path class="st0" d="M63.4,569.04c-.91.59-2.19.23-2.86-.81-.66-1.03-.45-2.34.47-2.92l6.88-4.41c.92-.59,2.2-.23,2.86.8.66,1.04.45,2.35-.46,2.94l-6.88,4.41Z"/>
  <path class="st0" d="M49.17,578.15c-.91.59-2.2.23-2.86-.81-.66-1.03-.44-2.34.47-2.92l6.88-4.41c.92-.59,2.19-.23,2.85.8.66,1.04.46,2.35-.46,2.94l-6.88,4.41Z"/>
  <path class="st0" d="M98.71,534.04c-.95.61-3.13,2.71-3.43,3.84-.22.8.05,1.63.28,2.46l5.1-3.27c2.11-1.35,4.91-.74,6.26,1.37,1.35,2.1.74,4.91-1.37,6.26l-5.1,3.27c.57.48,1.15,1.23,1.9,1.26,2.1.09,3.44-.4,5.14-1.49,3.78-2.42,4.89-7.47,2.47-11.25-2.42-3.78-7.46-4.88-11.25-2.46"/>
  <path class="st0" d="M36.9,573.63c.95-.61,3.77-1.71,4.93-1.51.82.14,1.45.73,2.12,1.28l-5.1,3.27c-2.11,1.35-2.72,4.15-1.37,6.26,1.35,2.1,4.16,2.72,6.26,1.37l5.1-3.27c.19.72.64,1.56.35,2.25-.8,1.95-1.8,2.96-3.51,4.05-3.78,2.42-8.82,1.31-11.25-2.46-2.42-3.78-1.31-8.82,2.47-11.25"/>
  <path class="st0" d="M113.82,547.3l-72.18,46.23,19.03.24.95-3.84,11.42-7.32,7.86,12.28-11.45,7.34-4.4-1.56-9.49,15.1,17.56-2.5.42-4.66,11.45-7.34,9.67,15.1-11.45,7.34-4.41-1.57-9.49,15.1,17.57-2.48.42-4.66,11.45-7.34,7.86,12.27-11.43,7.32-3.88-.74-7.42,17.89,72.17-46.23-42.25-65.97ZM118.12,610.36l7.86,12.27-12.53,8.02-7.86-12.27,12.52-8.02ZM137.13,598.19l7.86,12.27-12.53,8.02-7.86-12.27,12.53-8.02ZM104.36,588.87l9.91,15.48-12.52,8.02-9.91-15.48,12.52-8.02ZM123.36,576.7l9.91,15.47-12.52,8.02-9.91-15.47,12.52-8.02ZM92.29,570.03l7.86,12.27-12.53,8.02-7.86-12.27,12.53-8.02ZM111.3,557.86l7.86,12.27-12.53,8.02-7.86-12.27,12.53-8.02Z"/>
  <path class="st0" d="M327.64,61.04c23.39,5.61,42.08,23.29,49.03,46.13l8.46,3.54c-6.24-28.35-28.46-50.65-56.76-57.03l-.73,7.36Z"/>
  <path class="st0" d="M246.91,107.18c6.95-22.85,25.64-40.53,49.04-46.14l-.73-7.36c-28.31,6.38-50.54,28.69-56.77,57.04l8.46-3.54Z"/>
  <path class="st0" d="M290.22,48.41c0,2.81-2.28,5.08-5.08,5.08s-5.08-2.28-5.08-5.08,2.28-5.08,5.08-5.08,5.08,2.28,5.08,5.08"/>
  <path class="st0" d="M268.06,59.87c0,2.81-2.28,5.08-5.08,5.08s-5.08-2.28-5.08-5.08,2.27-5.08,5.08-5.08,5.08,2.28,5.08,5.08"/>
  <path class="st0" d="M250.05,77.79c0,2.81-2.28,5.08-5.08,5.08s-5.08-2.28-5.08-5.08,2.28-5.08,5.08-5.08,5.08,2.28,5.08,5.08"/>
  <path class="st0" d="M238.5,99.9c0,2.81-2.28,5.08-5.08,5.08s-5.08-2.28-5.08-5.08,2.28-5.08,5.08-5.08,5.08,2.28,5.08,5.08"/>
  <path class="st0" d="M333.45,48.41c0,2.81,2.28,5.08,5.08,5.08s5.08-2.28,5.08-5.08-2.28-5.08-5.08-5.08-5.08,2.28-5.08,5.08"/>
  <path class="st0" d="M355.61,59.87c0,2.81,2.28,5.08,5.08,5.08s5.08-2.28,5.08-5.08-2.27-5.08-5.08-5.08-5.08,2.28-5.08,5.08"/>
  <path class="st0" d="M373.62,77.79c0,2.81,2.28,5.08,5.08,5.08s5.08-2.28,5.08-5.08-2.28-5.08-5.08-5.08-5.08,2.28-5.08,5.08"/>
  <path class="st0" d="M385.17,99.9c0,2.81,2.28,5.08,5.08,5.08s5.08-2.28,5.08-5.08-2.28-5.08-5.08-5.08-5.08,2.28-5.08,5.08"/>
  <path class="st0" d="M311.8,96.74h-.47s0,0,0,0l-8.06.07s-.7.14-.13.69c.55.56,5.44,6.23,5.72,7.61.28,1.38.42,2.63.42,2.63,0,.52.34,2.81-.02,3.23-1.33,1.61-4.33-1.28-5.1-2.27-.86-1.1-1.47-1.7-1.85-3.05,0,0-.96-.28-.96.64,0,3.2.07,3.42.13,6.56l.15,2.91c-.08,3.12-.15,2.11-.15,5.31,0,.9.98.62.98.62,0,0,1.08-3.46,4.42-4.56.19-.06,2.35-.63,2.34-.75.23,3.84-.78,7.95-2.21,11.53-1.02,2.58-4.54,6.42-7.32,7.03-1.75.4-3.63.71-5.43.77-3.42.09-6.44-1.12-8.25-4.2-3.27-5.52-.88-10.45,1.63-10.92,1.66-.32,2.53.36,3.64,1.45,2.96,2.93,4.11-2.73,4.31-4.69.36-3.44-.9-9.06-5-9.9-2.15-.44-6.05.33-7.89,3.38-1.68,2.77-1.17,2.16-1.78,1.82-1.2-.7-.34-7.86-.36-9.1-.05-3.36.36-7.57-1.81-10.42-1.44-1.88-4.17-3.28-6.38-4.06-1.69,2.16-3.75,4.55-3.93,7.4-.21,3.18,1.35,6.42,2.53,9.27.65,1.56,1.56,3.02,2.25,4.55.43.96.83,2.12.9,3.18.17,2.04-1.26.51-2.25-.19-2.91-2.06-6.78-1.24-8.57,0-2.95,2.05-2.6,6.64-1.53,9.59.64,1.77,4.85,8.51,6.65,4.1.58-1.45,1.13-2.39,2.77-2.76,2.48-.56,6.63,3.04,5.8,9.4-.84,6.5-7.47,8.99-13.01,9.12-4.7.11-10.14-4.42-12.16-8.57-.94-1.91-.13-2.84,1.38-3.6,1.11-.55,2.02-.24,4.02.73,1.27.63.99-.69.99-.7-1.44-3.14-3.16-6.14-4.42-9.36,0,0-.89-1.66-1.25.31-.21,1.16-.21.8-.4,1.99-.43,2.53-2.52,3.12-4.35.81-3.27-4.18,2.58-12.56,2.58-12.56l-10.53,4.33,19.1,46.66c.1-.01.21-.03.32-.05,12.19-7.4,31.07-12.16,52.31-12.16"/>
  <path class="st0" d="M311.4,96.74h.47s0,0,0,0l8.06.07s.7.14.13.69c-.55.56-5.44,6.23-5.72,7.61-.28,1.38-.42,2.63-.42,2.63,0,.52-.34,2.81.02,3.23,1.33,1.61,4.33-1.28,5.1-2.27.86-1.1,1.47-1.7,1.85-3.05,0,0,.96-.28.96.64,0,3.2-.07,3.42-.13,6.56l-.15,2.91c.08,3.12.15,2.11.15,5.31,0,.9-.98.62-.98.62,0,0-1.08-3.46-4.42-4.56-.19-.06-2.35-.63-2.34-.75-.23,3.84.78,7.95,2.21,11.53,1.02,2.58,4.54,6.42,7.32,7.03,1.75.4,3.63.71,5.43.77,3.42.09,6.44-1.12,8.25-4.2,3.27-5.52.88-10.45-1.63-10.92-1.66-.32-2.53.36-3.64,1.45-2.96,2.93-4.11-2.73-4.31-4.69-.36-3.44.9-9.06,5-9.9,2.15-.44,6.05.33,7.89,3.38,1.68,2.77,1.17,2.16,1.78,1.82,1.2-.7.34-7.86.36-9.1.05-3.36-.36-7.57,1.81-10.42,1.44-1.88,4.17-3.28,6.38-4.06,1.69,2.16,3.75,4.55,3.93,7.4.21,3.18-1.35,6.42-2.53,9.27-.65,1.56-1.56,3.02-2.25,4.55-.43.96-.83,2.12-.9,3.18-.17,2.04,1.26.51,2.25-.19,2.91-2.06,6.78-1.24,8.57,0,2.95,2.05,2.6,6.64,1.53,9.59-.64,1.77-4.85,8.51-6.65,4.1-.58-1.45-1.13-2.39-2.77-2.76-2.48-.56-6.63,3.04-5.8,9.4.84,6.5,7.47,8.99,13.01,9.12,4.7.11,10.14-4.42,12.16-8.57.94-1.91.13-2.84-1.38-3.6-1.11-.55-2.02-.24-4.02.73-1.27.63-.99-.69-.99-.7,1.44-3.14,3.16-6.14,4.42-9.36,0,0,.89-1.66,1.25.31.21,1.16.21.8.4,1.99.43,2.53,2.52,3.12,4.35.81,3.27-4.18-2.58-12.56-2.58-12.56l10.53,4.33-19.1,46.66c-.1-.01-.21-.03-.32-.05-12.19-7.4-31.07-12.16-52.31-12.16"/>
  <path class="st0" d="M321.37,52.46c-2.54,2.31-5.88,3.75-9.58,3.75s-7.04-1.45-9.58-3.75c-.05,0-.1.02-.14.02l1.69,37.39,8.09,1.22,8.09-1.22,1.69-37.38c-.08,0-.16-.03-.24-.04"/>
  <path class="st0" d="M315.29,27.21l8.18,3.95v-11.09l-8.18,2.39h-.02c-.23-.29-.5-.54-.8-.75h-.02l3.28-9.54h-11.79l3.28,9.52h-.02c-.29.23-.56.48-.8.75h-.02l-8.18-2.36v11.09l8.18-3.95c.25.32.52.56.84.8l-2.8,7.78c-1.82,1.53-2.99,3.83-2.99,6.4,0,4.62,3.75,8.36,8.37,8.36s8.37-3.74,8.37-8.36c0-2.58-1.15-4.88-2.99-6.4l-2.81-7.78c.32-.21.61-.48.84-.77l.09-.02Z"/>
  <path class="st0" d="M141.35,352.14s0-.03-.01-.05v-.07h-.02c-.51-1.64-2.24-5.24-3.4-6.09-1.18-.88-1.87-2.21-2.8-3.33-.61-.74-1.26-1.47-1.95-2.15-1.92-1.92-4.28-3.37-7.12-3.49-5.35-.23-9.27,5.15-11.9,9.02-4.74,6.96-9.15,5.38-11.18,4.05-1.14-1.36-4.57-6.51,3.66-11.91,3.9-2.55,9.36-6.38,9.21-11.72-.07-2.84-1.48-5.24-3.37-7.19-.66-.7-1.38-1.36-2.11-1.98-1.11-.94-2.43-1.65-3.29-2.86-.83-1.17-4.42-2.98-6.04-3.51v-.02s-.04,0-.06,0c-.01,0-.03-.01-.04-.02v.02c-1.71-.03-5.69.51-6.85,1.34-1.2.87-2.7,1.11-4.05,1.65-.9.36-1.78.74-2.64,1.18-2.42,1.24-4.54,3.05-5.52,5.7-1.88,5.01,2.03,10.41,4.89,14.1,5.17,6.67,2.29,10.38.4,11.87-1.65.67-7.61,2.34-10.19-7.15-1.23-4.5-3.19-10.87-8.32-12.39-2.72-.8-5.43-.2-7.87.99-.88.42-1.71.89-2.52,1.39-1.25.76-2.34,1.8-3.75,2.25-1.36.42-4.16,3.27-5.19,4.66h-.02s-.01.03-.02.05c-.01.01-.03.04-.04.05h.02c-.56,1.64-1.27,5.57-.84,6.94.45,1.41.23,2.9.31,4.35.06.96.15,1.92.31,2.86.43,2.69,1.5,5.26,3.71,7.02,4.18,3.33,10.53,1.29,14.92-.29,7.96-2.87,10.59,1.04,11.43,3.3.13,1.81-.18,7.93-9.96,7.46-4.66-.23-11.33-.32-14.36,4.08-1.6,2.34-1.87,5.11-1.5,7.79.13.96.33,1.9.55,2.85.34,1.41,1.01,2.77.98,4.24-.01,1.43,1.82,4.98,2.82,6.38v.02s.02.02.04.04c0,.01.03.04.04.05h.02c1.39,1.02,4.89,2.91,6.33,2.92,1.48,0,2.83.69,4.23,1.05.95.24,1.88.44,2.83.6,2.68.41,5.46.2,7.81-1.36,4.48-2.96,4.48-9.63,4.33-14.29-.27-8.42,4.22-9.74,6.64-9.84,1.72.42,7.56,2.56,4.06,11.77-1.65,4.37-3.81,10.68-.55,14.92,1.72,2.24,4.27,3.35,6.94,3.82.95.18,1.92.28,2.88.37,1.44.12,2.95-.1,4.35.38,1.35.46,5.29-.19,6.93-.71v.02s.05-.03.07-.04c.02,0,.05,0,.06-.02v-.02c1.4-.99,4.28-3.75,4.73-5.11.46-1.41,1.53-2.48,2.3-3.71.54-.81,1.03-1.65,1.45-2.5,1.22-2.42,1.87-5.13,1.12-7.86-1.44-5.16-7.78-7.23-12.25-8.53-8.12-2.35-7.94-7.07-7.29-9.39.97-1.54,4.81-6.31,12.42-.18,3.65,2.92,8.99,6.93,14.03,5.14,2.66-.94,4.5-3.03,5.78-5.43.46-.85.86-1.73,1.23-2.61.55-1.35.83-2.83,1.7-4.02.86-1.15,1.45-5.11,1.46-6.83h.02ZM86.88,347.49h.07-.08s0,0,0,0Z"/>
  <path class="st0" d="M359.24,739.54c.27-1.71.31-5.7-.36-6.96-.68-1.32-.73-2.81-1.05-4.23-.23-.94-.47-1.87-.79-2.78-.89-2.57-2.37-4.92-4.87-6.28-4.7-2.57-10.59.55-14.66,2.86-7.28,4.15-10.55.84-11.8-1.25-.42-1.69-1.3-7.88,8.53-9.1,4.63-.58,11.21-1.63,13.44-6.48,1.17-2.58.96-5.35.14-7.94-.3-.9-.65-1.8-1.04-2.71-.56-1.31-1.44-2.54-1.68-4-.24-1.42-2.65-4.62-3.88-5.82h0s-.03-.03-.04-.03c-.02-.02-.04-.05-.05-.06v.02c-1.55-.78-5.34-2.04-6.76-1.8-1.45.24-2.89-.19-4.35-.32-.96-.08-1.92-.11-2.89-.09-2.71.04-5.41.73-7.46,2.67-3.9,3.68-2.76,10.26-1.82,14.83,1.7,8.27-2.53,10.32-4.89,10.83-1.8-.13-7.83-1.29-5.98-10.91.89-4.6,1.94-11.16-2.02-14.8-2.08-1.92-4.76-2.58-7.49-2.58-.96,0-1.91.05-2.87.14-1.46.15-2.9.6-4.36.36-1.43-.21-5.21,1.12-6.73,1.9h0s-.02,0-.03.02c-.02,0-.05.02-.06.03v.02c-1.18,1.21-3.58,4.43-3.78,5.85-.22,1.47-1.08,2.71-1.64,4.05-.37.89-.7,1.8-.98,2.72-.8,2.58-.98,5.36.24,7.93,2.28,4.82,8.88,5.78,13.53,6.3,8.43.94,9.04,5.65,8.78,8.03-.71,1.71-3.69,6.99-12.21,2.28-4.09-2.25-10.03-5.28-14.7-2.67-2.46,1.4-3.92,3.77-4.78,6.33-.3.93-.55,1.86-.75,2.8-.31,1.42-.33,2.92-.99,4.24-.64,1.28-.56,5.28-.28,6.98h-.01s.01.02.02.04c0,.03,0,.07.01.09h.03c.78,1.52,3.09,4.77,4.39,5.4,1.32.66,2.24,1.86,3.33,2.81.73.62,1.48,1.22,2.27,1.78,2.22,1.55,4.82,2.58,7.62,2.22,5.31-.7,8.26-6.67,10.17-10.91,3.47-7.68,8.08-6.88,10.31-5.91,1.35,1.13,5.65,5.62-1.54,12.35-3.41,3.2-8.14,7.92-7.09,13.14.56,2.79,2.36,4.91,4.55,6.51.78.57,1.59,1.08,2.41,1.58,1.26.75,2.68,1.22,3.74,2.26,1.02,1,4.84,2.17,6.54,2.42v.02s.04,0,.06-.01c.02,0,.05,0,.06.01v-.02c1.69-.27,5.51-1.48,6.51-2.5,1.06-1.04,2.47-1.54,3.71-2.32.82-.5,1.63-1.03,2.4-1.61,2.16-1.63,3.93-3.76,4.46-6.56.98-5.26-3.78-9.9-7.22-13.07-6.24-5.67-4.05-9.81-2.44-11.62,1.51-.94,7.1-3.61,11.25,5.3,1.98,4.22,5.01,10.17,10.32,10.78,2.82.34,5.39-.73,7.59-2.31.77-.56,1.53-1.18,2.25-1.8,1.1-.96,1.97-2.19,3.31-2.86,1.27-.66,3.54-3.92,4.31-5.48h.02s0-.04,0-.05c.01-.02.03-.05.04-.07h-.03ZM299.97,720.68l.05-.05-.05.06h0Z"/>
  <path class="st0" d="M579.56,336.53h.02s-.04-.05-.05-.07c0-.02,0-.04-.02-.05h-.02c-1.01-1.38-3.84-4.22-5.18-4.65-1.42-.44-2.51-1.48-3.74-2.25-.83-.5-1.68-.97-2.55-1.39-2.44-1.19-5.15-1.79-7.86-.98-5.15,1.53-7.09,7.89-8.32,12.39-2.58,9.44-8.48,7.84-10.16,7.16-1.89-1.49-4.81-5.2.38-11.89,2.86-3.68,6.76-9.09,4.91-14.1-.99-2.65-3.11-4.46-5.53-5.7-.86-.44-1.75-.83-2.64-1.18-1.35-.54-2.83-.78-4.03-1.64-1.18-.83-5.14-1.37-6.85-1.35v-.02s-.03.01-.05.02h-.07v.02c-1.62.53-5.21,2.33-6.04,3.5-.86,1.21-2.18,1.92-3.29,2.86-.73.62-1.45,1.28-2.11,1.97-1.88,1.96-3.31,4.36-3.37,7.19-.15,5.34,5.31,9.17,9.19,11.72,8.25,5.41,4.8,10.56,3.66,11.91-2.02,1.33-6.43,2.91-11.16-4.05-2.61-3.86-6.56-9.25-11.89-9.02-2.83.12-5.2,1.58-7.12,3.49-.68.68-1.34,1.41-1.94,2.15-.92,1.12-1.62,2.45-2.81,3.33-1.15.85-2.89,4.45-3.39,6.09h-.03s0,.05,0,.07c0,.01-.01.04-.02.05h.02c.01,1.72.61,5.68,1.46,6.83.89,1.18,1.16,2.67,1.71,4.02.37.89.77,1.77,1.23,2.62,1.28,2.39,3.13,4.48,5.78,5.42,5.06,1.79,10.38-2.21,14.03-5.13,7.73-6.21,11.55-1.23,12.45.24.64,2.34.73,6.99-7.32,9.33-4.48,1.3-10.81,3.37-12.25,8.53-.75,2.73-.1,5.44,1.11,7.86.45.85.94,1.69,1.44,2.5.8,1.23,1.85,2.3,2.31,3.71.46,1.36,3.34,4.12,4.74,5.11v.02s.04,0,.05.02c.02,0,.04.03.05.04v-.02c1.66.53,5.61,1.17,6.94.71,1.41-.47,2.89-.26,4.35-.37.96-.08,1.93-.19,2.88-.37,2.67-.47,5.22-1.58,6.94-3.82,3.26-4.24,1.1-10.55-.55-14.92-3.5-9.21,2.33-11.35,4.05-11.77,2.42.11,6.9,1.43,6.64,9.85-.15,4.66-.14,11.32,4.33,14.29,2.36,1.57,5.13,1.78,7.82,1.37.95-.16,1.9-.36,2.83-.61,1.41-.36,2.74-1.04,4.23-1.04,1.43,0,4.94-1.9,6.33-2.94v.02s.04-.04.05-.05c.02-.01.04-.03.05-.04l-.02-.02c1-1.4,2.84-4.95,2.82-6.38-.02-1.48.64-2.83.96-4.24.23-.95.43-1.89.56-2.85.35-2.68.1-5.45-1.5-7.79-3.04-4.4-9.7-4.31-14.37-4.08-9.84.48-10.06-5.74-9.93-7.5.86-2.27,3.51-6.12,11.41-3.26,4.39,1.58,10.73,3.62,14.92.29,2.22-1.76,3.29-4.33,3.72-7.02.14-.94.23-1.91.29-2.87.09-1.45-.15-2.94.31-4.34.43-1.37-.28-5.3-.84-6.93M541.95,347.5h-.08s.08,0,.08,0h0Z"/>
  <path class="st0" d="M196,260.33c-1.71-4.92,2.22-12.21-2.04-15.11-3.41-2.33-5.35,2.26-6.56,4.89-1.45,3.16-3.96,6.22-8.46,4.03-3.47-3.61-1.32-6.93,1.22-9.28,2.12-1.95,5.9-5.22,2.62-7.75-4.08-3.14-9.8,2.85-15,2.74-5.2.11-10.93-5.89-15-2.74-3.28,2.53.49,5.8,2.61,7.75,2.56,2.35,4.7,5.68,1.22,9.28-4.49,2.19-7.02-.87-8.45-4.03-1.21-2.63-3.14-7.22-6.56-4.89-4.26,2.9-.33,10.19-2.03,15.11-1.49,4.98-8.99,8.58-7.26,13.43,1.41,3.9,5.68,1.32,8.2-.09,3.02-1.7,6.82-2.7,9.19,1.67.7,4.97-2.98,6.42-6.43,6.83-2.86.33-7.83.76-6.69,4.73,1.45,4.94,9.58,3.47,13.74,6.58h0c4.3,2.95,5.4,11.21,10.55,11.06,4.14-.13,3.01-4.97,2.45-7.82-.68-3.41-.47-7.35,4.46-8.23,4.92.88,5.17,4.82,4.48,8.23-.58,2.84-1.69,7.69,2.43,7.82,5.16.15,6.26-8.09,10.53-11.05,4.15-3.14,12.31-1.65,13.75-6.6,1.16-3.97-3.81-4.4-6.68-4.73-3.47-.41-7.13-1.86-6.43-6.83,2.36-4.36,6.17-3.38,9.19-1.67,2.52,1.42,6.8,3.99,8.19.09,1.73-4.85-5.77-8.45-7.25-13.43M167.78,281.74c-6.94,0-12.57-5.63-12.57-12.59s5.63-12.58,12.57-12.58,12.59,5.63,12.59,12.58-5.63,12.59-12.59,12.59M185.64,275.33l-.26-.84.28.82h-.02Z"/>
  <path class="st0" d="M215.76,277.57c-.75-.23-1.5-.35-2.25-.34.47-2.63.72-5.32.72-8.07,0-12.72-5.15-24.26-13.46-32.66.69-.47,1.31-1.06,1.82-1.78,2.37-3.32-1.69-10.29-1.69-10.29,0,0-7.92-1.6-10.29,1.7-.46.63-.8,1.31-1.02,2.02-6.51-3.47-13.93-5.45-21.8-5.45s-14.59,1.8-20.87,4.97c-.23-.8-.6-1.56-1.12-2.26-2.42-3.28-10.31-1.56-10.31-1.56,0,0-3.98,7.03-1.55,10.31.46.63,1.01,1.17,1.62,1.6-8.75,8.45-14.21,20.3-14.21,33.39,0,2.39.18,4.75.53,7.05-.82-.02-1.65.09-2.48.37-3.87,1.28-4.67,9.31-4.67,9.31,0,0,5.46,5.95,9.31,4.66.74-.24,1.41-.6,2.01-1.03,6.51,13.29,19.17,23.02,34.26,25.48-.27.78-.42,1.61-.42,2.49.01,4.07,7.41,7.31,7.41,7.31,0,0,7.34-3.34,7.31-7.41,0-.78-.13-1.53-.36-2.23,15.17-2.12,28.01-11.6,34.8-24.71.66.51,1.41.91,2.25,1.18,3.89,1.23,9.25-4.79,9.25-4.79,0,0-.9-8.03-4.79-9.25M169.99,310.59c-.86-.35-1.8-.54-2.79-.53-.89,0-1.73.18-2.51.47-16.29-1.21-29.98-11.84-35.63-26.47.06-.93-.05-1.88-.36-2.83-.28-.84-.71-1.59-1.23-2.25-.77-3.15-1.18-6.44-1.18-9.82,0-13,6.01-24.62,15.4-32.24.89-.23,1.76-.62,2.54-1.2.71-.52,1.29-1.16,1.75-1.85,6.34-3.93,13.81-6.21,21.8-6.21s16.1,2.48,22.61,6.72c.49.77,1.13,1.46,1.92,2.03.71.51,1.48.86,2.27,1.09,8.99,7.62,14.72,18.98,14.72,31.66,0,3.7-.49,7.28-1.41,10.7-.61.72-1.08,1.56-1.38,2.51-.27.85-.37,1.71-.33,2.56-5.95,14.44-19.83,24.81-36.18,25.68"/>
  <path class="st0" d="M91.91,470.94c-.47-5.17,5.06-11.33,1.62-15.14-2.77-3.08-5.76.93-7.55,3.19-2.15,2.72-5.3,5.11-9.17,1.92-2.51-4.32.34-7.05,3.38-8.73,2.53-1.41,6.97-3.69,4.37-6.92-3.2-4.02-10.17.44-15.19-.88-5.11-1.09-9.25-8.32-13.96-6.22-3.78,1.69-.89,5.75.71,8.16,1.92,2.89,3.2,6.61-.99,9.29-4.89,1.09-6.62-2.48-7.28-5.9-.55-2.84-1.35-7.76-5.22-6.31-4.82,1.82-2.73,9.84-5.55,14.2-2.63,4.49-10.75,6.22-10.22,11.34.45,4.12,5.19,2.63,7.98,1.85,3.35-.94,7.29-1.01,8.53,3.83-.51,4.98-4.41,5.51-7.87,5.08-2.86-.35-7.79-1.1-7.59,3.03.22,5.13,8.48,5.63,11.76,9.64,3.48,3.87,2.59,12.16,7.64,13.23,4.05.86,4.11-4.13,4.23-7.02.15-3.47,1.31-7.23,6.32-6.91,4.55,2.02,3.83,5.9,2.35,9.02-1.22,2.63-3.46,7.08.54,8.18,4.95,1.36,7.98-6.35,12.81-8.23,4.76-2.11,12.37,1.3,14.93-3.16,2.08-3.59-2.65-5.19-5.35-6.19-3.28-1.2-6.53-3.49-4.64-8.16,3.33-3.69,6.81-1.82,9.33.53,2.11,1.99,5.65,5.5,7.93,2.04,2.83-4.31-3.61-9.57-3.87-14.77M74.64,475.83c-1.63,6.75-8.45,10.9-15.2,9.24-6.75-1.63-10.9-8.44-9.25-15.19,1.64-6.75,8.45-10.89,15.2-9.25,6.75,1.65,10.9,8.45,9.25,15.2M78.31,483.08l-.03-.47.04.47h0Z"/>
  <path class="st0" d="M107.05,492.37c-.67-.4-1.38-.69-2.1-.86,1.07-2.44,1.96-5,2.61-7.67,3-12.36.73-24.8-5.36-34.93.78-.29,1.52-.72,2.19-1.3,3.09-2.65.79-10.39.79-10.39,0,0-7.31-3.43-10.4-.78-.59.51-1.08,1.09-1.47,1.73-5.5-4.92-12.24-8.59-19.89-10.45-7.3-1.78-14.61-1.7-21.47-.1-.04-.83-.22-1.66-.56-2.47-1.57-3.75-9.64-3.95-9.64-3.95,0,0-5.53,5.89-3.96,9.64.31.73.72,1.38,1.21,1.95-10.5,6.14-18.61,16.36-21.72,29.09-.56,2.32-.94,4.65-1.14,6.96-.8-.21-1.64-.3-2.51-.23-4.06.33-6.73,7.96-6.73,7.96,0,0,3.89,7.07,7.95,6.73.78-.07,1.52-.25,2.2-.53,3.18,14.44,13.18,26.9,27.24,32.86-.45.69-.8,1.46-.99,2.31-.92,3.96,5.48,8.87,5.48,8.87,0,0,7.92-1.52,8.87-5.49.18-.75.23-1.5.17-2.24,15.25,1.52,29.96-4.65,39.66-15.78.52.65,1.15,1.22,1.9,1.68,3.47,2.11,10.13-2.48,10.13-2.48,0,0,.99-8.01-2.46-10.12M54.74,513.63c-.75-.54-1.62-.94-2.58-1.17-.85-.2-1.7-.23-2.53-.14-15.56-5.02-26.35-18.62-28.36-34.19.27-.88.39-1.82.31-2.79-.07-.89-.3-1.71-.66-2.48,0-3.25.37-6.54,1.17-9.83,3.08-12.64,11.67-22.51,22.6-27.68.91-.02,1.83-.2,2.72-.57.81-.33,1.53-.81,2.14-1.37,7.09-2.32,14.89-2.77,22.66-.88,8.1,1.97,15.05,6.21,20.38,11.87.29.87.75,1.7,1.38,2.44.57.66,1.24,1.19,1.97,1.6,6.93,9.53,9.8,21.92,6.8,34.23-.88,3.6-2.2,6.96-3.9,10.07-.76.55-1.42,1.26-1.94,2.11-.46.76-.76,1.58-.92,2.4-9.21,12.63-25.14,19.42-41.24,16.38"/>
  <path class="st0" d="M232.49,685.72c-2.03-3.62-5.81-.37-8.05,1.45-2.72,2.18-6.33,3.81-9.38-.19-1.46-4.73,1.92-6.78,5.25-7.75,2.77-.79,7.59-2.06,5.78-5.77-2.23-4.63-10.03-1.81-14.65-4.22-4.71-2.2-7.17-10.13-12.23-9.13-4.05.8-2.14,5.41-1.1,8.11,1.25,3.23,1.67,7.16-3.03,8.84-5-.05-5.9-3.89-5.8-7.35.1-2.91.4-7.88-3.69-7.3-5.11.7-4.83,8.95-8.52,12.61h0c-3.55,3.81-11.88,3.69-12.49,8.81-.47,4.13,4.51,3.7,7.39,3.57,3.48-.19,7.34.64,7.47,5.66-1.59,4.7-5.51,4.35-8.77,3.19-2.73-.98-7.37-2.81-8.08,1.26-.92,5.08,7.09,7.37,9.38,12.06,2.5,4.55-.17,12.39,4.5,14.53,3.75,1.74,4.92-3.11,5.67-5.9.9-3.36,2.87-6.79,7.66-5.38,4.03,2.98,2.47,6.61.35,9.36-1.78,2.29-4.96,6.14-1.29,8.08,4.53,2.44,9.19-4.45,14.34-5.19,5.11-.97,11.75,3.97,15.24.21,2.81-3.05-1.47-5.65-3.89-7.22-2.91-1.89-5.56-4.83-2.74-8.95,4.07-2.91,7.06-.31,9,2.56,1.64,2.4,4.32,6.6,7.28,3.73,3.72-3.58-1.39-10.14-.51-15.27.66-5.16,7.42-9.94,4.91-14.41M209.66,701.08c-3.1,6.24-10.65,8.77-16.88,5.68-6.21-3.08-8.77-10.64-5.66-16.86,3.08-6.23,10.64-8.78,16.88-5.68,6.21,3.1,8.75,10.64,5.67,16.86M211.66,708.96h-.01l.08-.5-.07.5Z"/>
  <path class="st0" d="M247.94,670.16s-6.38-4.95-9.97-3.04c-.69.37-1.29.83-1.81,1.36-4.28-6.01-10.05-11.09-17.1-14.6-6.73-3.33-13.88-4.88-20.92-4.83.14-.82.16-1.67,0-2.53-.71-4.01-8.54-5.98-8.54-5.98,0,0-6.68,4.52-5.98,8.53.14.78.39,1.5.75,2.17-11.6,3.67-21.76,11.85-27.59,23.58-1.07,2.15-1.95,4.33-2.66,6.54-.73-.38-1.53-.66-2.39-.79-4.03-.56-8.34,6.27-8.34,6.27,0,0,2.24,7.77,6.28,8.33.78.11,1.54.09,2.27-.03-.09,14.79,6.92,29.15,19.33,38.05-.6.58-1.11,1.26-1.49,2.05-1.78,3.65,3.4,9.85,3.4,9.85,0,0,8.07.27,9.85-3.39.34-.7.56-1.43.67-2.16,14.54,4.87,30.26,2.09,42.18-6.64.37.74.85,1.44,1.48,2.04,2.92,2.84,10.43-.17,10.43-.17,0,0,2.74-7.6-.18-10.42-.56-.54-1.19-.98-1.85-1.31,1.58-2.14,3-4.44,4.22-6.89,5.66-11.4,6.19-24.04,2.47-35.26.82-.11,1.64-.37,2.42-.78,3.59-1.91,3.05-9.97,3.05-9.97M235.56,713.97c-1.64,3.31-3.68,6.3-6.01,8.95-.85.37-1.66.91-2.35,1.62-.62.65-1.09,1.38-1.44,2.15-11.75,10.28-28.79,13.41-43.81,6.92-.62-.71-1.39-1.31-2.29-1.75-.8-.39-1.64-.61-2.47-.7-14.04-8.34-21.56-23.96-20.11-39.57.47-.8.79-1.71.93-2.68.13-.88.08-1.73-.09-2.56.71-3.16,1.8-6.29,3.31-9.33,5.78-11.65,16.34-19.37,28.14-22.01.89.19,1.84.22,2.79.05.86-.15,1.66-.46,2.37-.87,7.44-.7,15.15.58,22.32,4.13,7.46,3.71,13.31,9.38,17.25,16.07.1.92.36,1.83.81,2.69.42.77.95,1.43,1.56,1.98,4.66,10.82,4.72,23.54-.92,34.89"/>
  <path class="st0" d="M454.41,696.25c-3.25,1.16-7.15,1.51-8.77-3.16.11-5.05,3.98-5.87,7.46-5.69,2.89.13,7.86.56,7.39-3.57-.6-5.11-8.95-5-12.47-8.81h0c-3.71-3.65-3.43-11.91-8.53-12.61-4.09-.58-3.79,4.39-3.7,7.3.1,3.47-.8,7.3-5.8,7.35-4.69-1.68-4.25-5.61-3.01-8.84,1.03-2.71,2.94-7.32-1.11-8.11-5.06-1-7.52,6.94-12.23,9.13-4.6,2.42-12.4-.4-14.64,4.22-1.81,3.71,3.01,4.98,5.8,5.77,3.33.97,6.71,3.01,5.22,7.77-3.05,3.97-6.65,2.34-9.36.17-2.25-1.82-6.03-5.07-8.05-1.45-2.53,4.48,4.29,9.28,4.91,14.46.85,5.12-4.22,11.65-.52,15.22,2.98,2.86,5.67-1.33,7.3-3.73,1.94-2.87,4.92-5.47,9-2.56,2.82,4.13.15,7.06-2.76,8.95-2.42,1.57-6.67,4.17-3.87,7.22,3.49,3.77,10.12-1.17,15.23-.21,5.16.74,9.81,7.63,14.36,5.19,3.65-1.94.49-5.79-1.29-8.08-2.12-2.74-3.68-6.38.33-9.36,4.81-1.41,6.77,2.02,7.68,5.38.76,2.79,1.9,7.64,5.65,5.9,4.67-2.14,2.02-9.98,4.52-14.53,2.27-4.69,10.29-6.98,9.37-12.06-.73-4.08-5.35-2.24-8.1-1.26M413.41,708.96l-.07-.49.08.49h-.01ZM432.29,706.76c-6.23,3.09-13.79.56-16.88-5.68-3.08-6.21-.56-13.76,5.67-16.86,6.23-3.1,13.78-.55,16.88,5.68,3.09,6.21.55,13.78-5.66,16.86"/>
  <path class="st0" d="M473.33,680.58c-.86.13-1.66.4-2.39.79-.71-2.21-1.59-4.4-2.66-6.54-5.83-11.73-15.99-19.91-27.6-23.58.35-.66.61-1.4.74-2.17.71-4-5.98-8.53-5.98-8.53,0,0-7.83,1.97-8.53,5.98-.15.86-.14,1.72,0,2.53-7.04-.05-14.19,1.49-20.91,4.83-7.06,3.51-12.82,8.59-17.11,14.6-.52-.53-1.12-.99-1.82-1.36-3.59-1.91-9.97,3.04-9.97,3.04,0,0-.53,8.06,3.06,9.97.78.41,1.6.66,2.43.78-3.71,11.23-3.19,23.86,2.46,35.26,1.22,2.46,2.65,4.76,4.23,6.9-.66.33-1.28.76-1.84,1.3-2.94,2.81-.18,10.42-.18,10.42,0,0,7.49,3.01,10.41.17.63-.61,1.12-1.3,1.49-2.05,11.91,8.73,27.64,11.51,42.19,6.64.11.73.33,1.46.67,2.16,1.76,3.66,9.85,3.39,9.85,3.39,0,0,5.17-6.2,3.37-9.85-.38-.79-.89-1.47-1.48-2.05,12.42-8.9,19.42-23.26,19.34-38.06.73.13,1.5.14,2.27.03,4.02-.56,6.26-8.33,6.26-8.33,0,0-4.28-6.83-8.32-6.27M447.89,731.16c-.84.09-1.67.31-2.47.7-.9.44-1.68,1.04-2.3,1.75-15.03,6.48-32.05,3.36-43.81-6.92-.34-.77-.81-1.5-1.43-2.15-.7-.71-1.5-1.26-2.37-1.63-2.33-2.65-4.36-5.63-6.01-8.94-5.63-11.35-5.57-24.07-.91-34.89.61-.56,1.14-1.22,1.55-1.99.46-.86.72-1.77.82-2.68,3.94-6.7,9.8-12.38,17.26-16.08,7.17-3.56,14.88-4.84,22.31-4.13.72.41,1.51.71,2.37.86.95.17,1.9.14,2.8-.05,11.8,2.64,22.36,10.36,28.16,22.01,1.5,3.03,2.59,6.16,3.3,9.32-.18.82-.23,1.69-.1,2.56.14.98.47,1.88.94,2.68,1.45,15.61-6.07,31.23-20.1,39.57"/>
  <path class="st0" d="M591.8,470.79c2.79.79,7.53,2.27,7.97-1.85.54-5.11-7.6-6.84-10.22-11.34-2.82-4.36-.74-12.38-5.55-14.2-3.87-1.45-4.67,3.47-5.23,6.31-.65,3.42-2.36,6.98-7.27,5.9-4.21-2.68-2.92-6.41-.99-9.3,1.6-2.41,4.48-6.47.71-8.16-4.72-2.1-8.87,5.13-13.97,6.22h0c-5.02,1.31-11.98-3.14-15.17.88-2.59,3.23,1.83,5.51,4.36,6.92,3.04,1.68,5.89,4.4,3.41,8.72-3.87,3.21-7.03.84-9.18-1.9-1.81-2.27-4.76-6.27-7.55-3.19-3.46,3.83,2.13,10.02,1.6,15.2-.31,5.19-6.69,10.42-3.86,14.72,2.29,3.46,5.81-.05,7.94-2.04,2.53-2.35,6-4.22,9.33-.52,1.86,4.66-1.38,6.94-4.65,8.15-2.7,1-7.43,2.59-5.35,6.19,2.56,4.45,10.14,1.07,14.93,3.16,4.84,1.87,7.85,9.59,12.82,8.23,3.99-1.11,1.75-5.56.52-8.18-1.48-3.12-2.17-7,2.36-9.02,5-.33,6.18,3.44,6.33,6.91.12,2.89.16,7.88,4.22,7.02,5.04-1.07,4.17-9.36,7.64-13.23,3.3-4.02,11.55-4.51,11.77-9.64.19-4.13-4.73-3.38-7.61-3.03-3.46.43-7.38-.1-7.86-5.1,1.27-4.82,5.19-4.74,8.55-3.81M548.33,483.08h0s.04-.44.04-.44l-.03.44ZM567.21,485.07c-6.75,1.66-13.57-2.48-15.22-9.24-1.63-6.75,2.51-13.55,9.25-15.2,6.76-1.64,13.57,2.49,15.22,9.25,1.63,6.75-2.5,13.56-9.25,15.19"/>
  <path class="st0" d="M613.01,468.6c-.87-.07-1.71.02-2.5.23-.2-2.31-.58-4.64-1.15-6.97-3.1-12.72-11.2-22.94-21.71-29.08.49-.57.91-1.22,1.22-1.95,1.55-3.75-3.96-9.64-3.96-9.64,0,0-8.07.19-9.64,3.95-.34.81-.51,1.64-.56,2.47-6.85-1.6-14.17-1.68-21.47.1-7.65,1.87-14.39,5.54-19.9,10.45-.39-.63-.88-1.22-1.47-1.73-3.07-2.65-10.39.78-10.39.78,0,0-2.31,7.74.78,10.39.66.57,1.41,1,2.19,1.3-6.09,10.13-8.37,22.56-5.35,34.93.65,2.67,1.53,5.23,2.6,7.67-.72.17-1.43.46-2.1.86-3.47,2.11-2.46,10.12-2.46,10.12,0,0,6.65,4.59,10.13,2.48.75-.46,1.38-1.03,1.9-1.68,9.7,11.13,24.42,17.31,39.66,15.78-.05.73,0,1.49.18,2.24.94,3.97,8.86,5.48,8.86,5.48,0,0,6.41-4.91,5.48-8.87-.2-.85-.55-1.62-1-2.31,14.07-5.96,24.07-18.42,27.25-32.86.68.28,1.41.47,2.19.53,4.07.34,7.95-6.73,7.95-6.73,0,0-2.67-7.62-6.73-7.96M577.01,512.32c-.82-.09-1.66-.05-2.51.14-.96.23-1.83.63-2.58,1.17-16.11,3.05-32.06-3.75-41.26-16.4-.16-.82-.46-1.63-.92-2.39-.51-.84-1.17-1.55-1.92-2.1-1.7-3.11-3.03-6.48-3.9-10.08-3-12.32-.13-24.71,6.8-34.24.71-.41,1.38-.93,1.95-1.59.63-.74,1.09-1.56,1.39-2.43,5.32-5.66,12.28-9.9,20.37-11.88,7.77-1.89,15.57-1.45,22.66.88.61.56,1.32,1.03,2.14,1.37.89.38,1.83.56,2.74.57,10.93,5.18,19.53,15.05,22.6,27.68.8,3.29,1.17,6.58,1.17,9.82-.36.77-.59,1.6-.67,2.49-.08.98.04,1.93.32,2.81-2.02,15.56-12.82,29.14-28.37,34.16"/>
  <path class="st0" d="M489.64,260.33c-1.7-4.92,2.22-12.21-2.02-15.11-3.42-2.34-5.37,2.26-6.57,4.89-1.45,3.16-3.95,6.21-8.44,4.02-3.48-3.6-1.34-6.93,1.22-9.28,2.12-1.95,5.89-5.22,2.61-7.75-4.07-3.15-9.8,2.86-15,2.74-5.2.12-10.93-5.89-15-2.74-3.28,2.53.51,5.8,2.62,7.75,2.54,2.35,4.69,5.68,1.2,9.29-4.5,2.17-6.99-.88-8.44-4.03-1.2-2.63-3.14-7.23-6.57-4.89-4.24,2.89-.31,10.18-2,15.1h-.01c-1.48,4.99-8.99,8.59-7.26,13.45,1.41,3.89,5.67,1.33,8.17-.09,3.04-1.7,6.84-2.69,9.2,1.68.7,4.97-2.96,6.42-6.43,6.82-2.86.33-7.83.76-6.67,4.74,1.43,4.93,9.56,3.47,13.72,6.58h0c4.3,2.95,5.4,11.21,10.55,11.06,4.15-.13,3.03-4.97,2.45-7.82-.69-3.4-.46-7.34,4.47-8.23,4.93.88,5.16,4.83,4.47,8.23-.56,2.84-1.69,7.69,2.44,7.82,5.12.15,6.24-8.09,10.53-11.05,4.13-3.14,12.29-1.65,13.74-6.6,1.17-3.97-3.81-4.4-6.68-4.74-3.46-.4-7.13-1.86-6.41-6.83,2.34-4.37,6.17-3.37,9.19-1.67,2.5,1.41,6.78,3.98,8.17.08,1.75-4.84-5.76-8.44-7.25-13.42M443.56,275.32h0l.12-.33-.11.33ZM461.43,281.74c-6.95,0-12.59-5.63-12.59-12.59s5.64-12.58,12.59-12.58,12.58,5.63,12.58,12.58-5.64,12.59-12.58,12.59"/>
  <path class="st0" d="M509.83,276.57c-.82-.28-1.66-.39-2.48-.37.35-2.3.53-4.65.53-7.05,0-13.1-5.46-24.94-14.21-33.39.61-.44,1.15-.97,1.62-1.6,2.42-3.28-1.57-10.31-1.57-10.31,0,0-7.88-1.72-10.28,1.56-.52.7-.89,1.47-1.12,2.27-6.28-3.18-13.37-4.98-20.88-4.98-7.88,0-15.31,1.98-21.82,5.45-.23-.7-.56-1.39-1.02-2.02-2.36-3.3-10.28-1.7-10.28-1.7,0,0-4.06,6.97-1.69,10.29.51.71,1.13,1.3,1.81,1.77-8.32,8.4-13.47,19.94-13.47,32.67,0,2.75.25,5.45.71,8.07-.74,0-1.49.11-2.23.34-3.87,1.22-4.79,9.25-4.79,9.25,0,0,5.37,6.02,9.24,4.79.84-.27,1.59-.67,2.25-1.18,6.79,13.11,19.64,22.59,34.81,24.71-.23.7-.35,1.45-.36,2.23-.03,4.07,7.3,7.41,7.3,7.41,0,0,7.4-3.24,7.43-7.31,0-.88-.14-1.71-.42-2.49,15.08-2.46,27.75-12.19,34.26-25.48.6.43,1.27.78,2,1.03,3.87,1.29,9.33-4.66,9.33-4.66,0,0-.81-8.02-4.67-9.31M464.53,310.53c-.78-.29-1.62-.46-2.5-.47-.99,0-1.94.19-2.8.53-16.37-.86-30.24-11.24-36.19-25.69.04-.84-.06-1.69-.33-2.54-.3-.95-.78-1.79-1.38-2.51-.91-3.42-1.41-7-1.41-10.7,0-12.68,5.72-24.04,14.7-31.65.8-.23,1.56-.58,2.27-1.09.79-.56,1.43-1.26,1.92-2.03,6.51-4.24,14.27-6.72,22.61-6.72s15.47,2.28,21.81,6.22c.47.69,1.05,1.32,1.76,1.84.78.58,1.64.97,2.52,1.2,9.39,7.61,15.4,19.23,15.4,32.24,0,3.39-.42,6.69-1.19,9.84-.52.65-.94,1.4-1.22,2.23-.31.93-.42,1.88-.36,2.8-5.64,14.64-19.33,25.29-35.63,26.5"/>
  <path class="st0" d="M273.79,486.67c-4.97,2.87-13.03,7.57-13.03,7.57,0,0,27.11-8.35,28.41-9.14l-3.66-7.56s-6.78,6.26-11.72,9.13"/>
  <path class="st0" d="M420.29,522.15c14.06-41.57,14.28-133.31,14.28-133.31l-3.9.18.26-.62-5.12.85-12.13.57c10.27-5.55,19.12-13.95,19.75-26.47l.34-6.78-6.21,2.73c-5.63,2.47-11.53,4.97-17.16,7.26,7.06-6.17,12.73-14.73,13.05-26.39l.2-7.3-6.4,3.52c-15.9,8.72-33.72,18.28-39.86,21.24l-.62-.87h-2.23c-2.89,0-20.94,9.98-29.77,18.51-.81-1.96-2.15-3.61-4.09-4.5,1.52-.95,3.08-1.92,4.57-2.81l8.55-5.2-41.52-10.47-.45-.09c-.29-.04-7.12-.98-11.88-.98-2.96,0-5.24.31-6.77,1.84-.18.16-.83.33-1.22.35h-.85l-.78.33c-.7.29-2.32,1.04-3.48,2.04-.65.29-2.13.83-3.25,1.24-4.7,1.72-6.89,2.61-8.17,3.88-2.78,2.81-3.16,7.84-.8,10.8.32.39.68.73,1.08,1.01.07,1.39.77,3.71,2.89,8.42-4.11-1-8.52-2.21-11.01-2.92-.57-.28-1.3-.52-2.11-.52l-2.58.05-1.19,2.17c-1.32,2.39.11,4.64.72,5.61,2.08,3.27,5.61,5.63,9.17,7.18l-26.64-1.25c.33-.38.72-.75,1.17-1.07,2.6-1.88,3.95-3.87,4.13-6.09.05-.59,0-1.19-.14-1.75.33-4.61-2.39-9.09-4.87-12.14-4.4-5.43-6.66-5.43-7.52-5.43-1.31,0-2.55.58-3.37,1.6l-1.28,1.69.43,1.96c.1.74-.14,2.87-.41,4.3-.91.22-2.13.59-3.54,1.35-.27.14-.53.29-.77.45-.53-1.4-1.02-2.97-1.43-4.4-.48-1.64-.42-2.67-.36-3.76.09-1.55.23-3.88-1.71-6.04-1.47-1.66-3.95-2.69-11.79-2.69-2.28,0-4.08.09-4.08.09l-7.35.38,4.09,6.12c.44.67,1.38,1.67,3.38,2.71.07.17.16.4.26.65-.39.43-.75.97-1.05,1.64-.98,2.25-1.27,4.52-1.32,7.16-.34-.06-.67-.09-1.01-.09l-.45.02c-3.18.27-10.05,6.2-12.53,10.71h-4.42c-.6,47.27,3.94,83.35,8.05,105.99l-.17.22c-.86,1.1-8.35,11.04-7.09,20.34l1.07,7.9,5.9-5.36c1.4-1.27,3.04-2.69,4.36-3.78,1.29,5.27,2.15,8.01,2.15,8.01,8.39,31.71,28.85,59.38,49.74,80.8,1.91,4.76,4.39,9.35,7.54,13.59,7.88,10.58,18.97,17.74,32.58,21.16,10.98,8.08,18.37,12.48,18.37,12.48,6.74-4.76,13.13-9.68,19.2-14.7,13.07-4.68,29.03-14.11,35.92-32.94l1.98-1.32c.1-.07,2.55-1.71,4.26-3.14,1.87-1.56,1.85-3.65,1.48-5.79,3.37-3.96,6.53-7.87,9.52-11.69,3.74,3.54,8.13,5.32,11.02,5.85l7.88,1.51-3.27-7.27c-.68-1.99-.39-9.13.85-21.27,14.87-21.88,19.41-35.41,19.94-37.27M267.03,384.09c-1.36-2.15,0-1.18,0-1.18,0,0,7.79,2.24,14.16,3.7,0,0,.67.17,1.68.37,1.98.42,3.71.73,4.89.82,1.02.08,1.85.08,2.55.05h.04s.02,0,.03,0c2.27-.1,2.96-.56,3.4-.06.09.09.18.22.26.41.28.64,1.02,1.67,1.37,2.62.11.36.17.61.17.63.05.35.02.66-.15.93-.17.21-.46.42-.94.6-.19.05-.4.09-.64.12-1.1.12-2,.13-2.73.09-.51-.04-.98-.1-1.37-.17-.67-.14-.99-.29-.99-.29h0c-.36-.37-2.67-2.68-2.72-2.73h0s-.64.04-2.16,1.36c-1.17,1.03-7.92-.21-12.82-3.41-1.64-1.07-3.06-2.35-4.01-3.84M207.23,383.17c2.36-.19,10.58,7.04,14.67,6.26,4.11-.78,2.15-.39.38-1.56-1.75-1.17-9.77-5.09-9.77-7.83s.2-4.69.98-6.45c.79-1.76,2.75-.59,1.77-3.13-.98-2.53-1.17-3.71-2.74-4.5-1.56-.78-1.96-1.38-1.96-1.38,0,0,10.96-.57,12.52,1.18,1.57,1.76-.19,3.52,1.19,8.21,1.36,4.69,2.53,7.62,4.09,9.39,1.57,1.76,2.54,2.15,2.54.79s-1.35-2.15,1.57-3.72c2.93-1.57,4.49-.78,5.1-2.15.58-1.37,1.35-6.26.97-8.02-.39-1.76,9.58,7.24,8.21,13.69,0,0,1.36,1.36-2.15,3.91-3.53,2.54-5.87,7.43-1.77,12.32,4.11,4.89,19.76,14.07,19.76,14.07,0,0-9,13.11-7.24,23.28,0,0-14.07-8.41-18.19-13.1,0,0-1.38,1.75.4,4.3,1.75,2.54,19.15,19.94,19.15,19.94v7.24s-4.26-3.26-8.29-3.62c-.63-.1-1.26-.11-1.87.02-.31.07-.61.16-.91.28-4.11,1.28-6.83,5.5-8.48,5.86-1.77.4-9.98-7.62-8.81-11.53,1.19-3.92,5.67-6.66,6.66-7.43.98-.78-12.13,4.11-15.07-3.32-2.92-7.43-3.13-8.8-2.34-9,.77-.19,9.78-.39,10.37-1.76.58-1.36-13.5-.19-15.05-9.39-1.57-9.19-.4-6.25-.4-6.25,0,0,5.86,1.55,6.85-.59.98-2.15,1.17-6.85-2.55-7.63-3.71-.78-8.6-.58-11.34-7.23,0,0-4.89-1.17-7.44-1.36-2.53-.19,6.85-9.58,9.19-9.78M337.76,629.36h0c-.38.19-.76.37-1.14.54-.05.02-.09.04-.14.06-.33.15-.67.31-1.01.46-.12.05-.23.1-.35.15-.27.12-.54.23-.8.34-11.89,4.99-22.46,5.67-22.46,5.67-11.58-.28-21.13-2.76-28.93-6.72.05.04.09.08.14.11-7.99-4.02-14.14-9.61-18.73-16.03.07.06.14.13.21.2-11.92-16.54-13.42-38.7-9.27-53.95,7.07-26.01,41.03-35.4,43.16-35.96.04,0,.06-.02.06-.02,9.87,1.83,17.43,19.68,17.48,19.81-1.17.07-2.39.25-3.61.54-18.67,4.36-41.87,33.24-20.65,50.85,7.55,6.26,14.26,7.38,19.85,6.07,11.44-2.64,18.27-15.47,18.27-15.47,12.52-41.47-31.55-75.09-31.82-76.65-.25-1.56,1.44-1.73,1.44-3.35,0-.24-.07-.49-.18-.74-.44-1.31-1.83-2.42-1.83-2.42-.52-17.21,13.03-8.87,13.03-8.87-.03-.03-.05-.05-.08-.08.08.05.12.07.12.07-7.81-8.08-8.85-20.85-8.85-20.85,0,0-.02,0-.05.02h0s-2.22.6-2.22,6.03,3.01,3.35,0,6.52c-3,3.18-7.43,6.99-8.22,11.42-.77,4.44,2.09,7.83,2.09,7.83,0,0-5.44,3.61-9.86,4.68-4.44,1.03-5.8-9.2-5.8-9.2,0,0-.33-.52-1.17-.59-.02,0-.06,0-.11.02-.28.06-1.01.5-1.12,1.36-.37,2.98-.43,10.02-2.02,11.8-.71.8-2.5,1.48-4.53,1.97-3.89.94-8.64,1.2-8.46.35.47-2.36,1.04-6.59.15-8.91-.38-.98-.88-1.33-1.33-1.23-.57.09-1.09.89-1.21,2.08-.25,2.6.79,6.25-4.17,9.37-.92.58-1.94.97-3,1.21-4.65,1.04-9.99-.69-9.99-.69,0,0,1.55-7.04,0-8.34-.77-.65-1.45-.8-2.05-.63-2.57.67-3.59,7.6-4.01,8.93-1.14,3.56-4.28,6.76-7.89,7.87-.46.1-4.88.63-4.85.53,0,0,0,0,0,.02-.02,0-.04,0-.04,0,0,0-.25.8-1.29,5.45-.45,2.03-.84,2.69-1.16,2.8-.38.06-.62-.72-.62-.72-5.2-6.25-4.7-15.11-4.7-15.11,8.88-7.31,7.04-12.51,7.04-12.51-.01.01-.03.03-.04.04,0-.02-.01-.03-.01-.03-3.49,4.06-6.46,5.9-8.94,6.52-5.24,1.31-8.3-2.76-9.62-2.43-.07.01-.14.03-.2.07-1.84,1.04-7.3,5.99-7.3,5.99-.61-4.53,1.59-9.59,3.54-13.04,0,.02,0,.04,0,.05,1.33-2.36,2.56-3.99,2.72-4.21,2.94,1.33,7.57,1.08,10.88.28,3.17-.75,5.14-2.02,3.23-2.91-3.92-1.83-6.01-8.09-6.01-8.09-.86-.03-5.5-.66-6.83-.42-.14.02-.23.05-.3.09,3.04-4.22,6.6-7.55,11.53-8.79.7-.18,1.42-.31,2.18-.39.62-.07,7.57-.38,7.71.66.79,5.48,4.44,7.83,6.52,7.3,0,0,.02,0,.03,0,0,0,.01,0,.02,0,2.07-.51,12.81-8.9,31.15-19.93,21.64-13.05,19.42-18.9,19.42-18.9l-.04.02s0-.01,0-.01l-16.39,9.36-1.55-2.81c-2.08-15.33,13.55-25.08,9.39-24.56-4.17.52-10.17.52-10.17.52,2.48-10.05,9.54-14.24,15.97-15.92,4.39-1.14,8.48-1.12,10.59-1.02,2.47-.14,4.67-.43,6.63-.83,0,0,0,0,.01,0,.42-.09.83-.18,1.23-.28l.47-.12c.23-.06.46-.12.68-.19.2-.06.41-.12.61-.18.13-.04.26-.09.38-.13,10.55-3.4,12.12-10.91,11.54-16.64h-.05c-.42-4.2-1.97-7.44-1.97-7.44.24,2.54.12,5.01-.39,7.33h0c-.03.14-.07.28-.11.42-.05.2-.1.4-.15.6-.06.21-.13.42-.19.63-.06.18-.12.36-.19.54-.08.22-.15.43-.24.65-.12.3-.25.6-.38.9-.06.14-.13.27-.19.4-.14.28-.29.57-.44.85-.04.07-.08.14-.12.21-.22.38-.46.75-.71,1.12,0,0-.01.02-.02.03-1.61,2.31-3.84,4.31-6.77,5.87-.97.52-1.97.89-2.98,1.16-7.13,1.83-14.7-1.95-14.7-1.95,1.04-.52.79-2.09,1.29-4.7.4-1.93,2.06-4.85,2.89-6.24l.43.44.62.31c.31.15.95.42,1.94.62.26.22.54.46.85.72,1.7,1.44,4.19,1.24,6.24.68,2.06-.55,3.71-1.47,3.71-1.47.48-.71.81-1.44,1.05-2.17h-.03c1.84-5.68-2.92-11.58-5.23-13.21-2.61-1.82-3.65-1.82-4.7-1.04-.53.41-1.57,1.81-2.44,3.06-.05,0-.1,0-.16-.01-.63-.05-1.5-.18-2.51-.37-1.5-3.23-3.84-8.48-3.49-9.19.53-1.04,2.36-1.04,3.14-2.34.78-1.3-1.32-1.3-1.32-1.3,0,0-2.85,1.55-3.9.26-1.03-1.3-.77-3.91.52-5.21,1.31-1.3,10.16-3.91,10.96-4.69.77-.79,2.6-1.56,2.6-1.56,0,0,2.61,0,4.18-1.57,1.56-1.56,15.11.32,15.11.32l31.81,8.02s-15.89,9.65-14.61,9.9c1.31.27,5.22-.51,9.39,0,4.18.52,3.66,7.05,3.66,7.05.25,15.13-13.56,10.17-13.56,10.17,0,0,1.04,3.39,3.12,5.22,2.09,1.82,2.61,3.13,2.61,3.13-2.09,6.52,8.35,20.33,7.3,23.73-.16.52-.57.84-1.15.99-2.97.75-10.17-2.38-11.19-1.96-.11.03-.17.09-.17.18,0,1.31.53,19.04.53,19.04-1.05.5-2.04.84-2.98,1.06-11.25,2.47-15.23-14.29-15.23-13.33,0,0,0,.02,0,.02-.03-.06-.05-.07-.05,0,0,1.04-8.6,16.16-8.6,16.16l.05-.03s0,.02,0,.02l8.04-4.15c5.72,8.33,18.24,5.72,18.24,5.72,0,0,0,0,.01,0,.02,0,.03,0,.03,0,24.27-8.76,19.04-39.03,16.48-55.07h-.05c-.72-4.47-1.22-7.84-.83-9.32,1.82-6.77,29.99-22.68,30.51-21.91.52.8,0,1.58,1.83,1.58s42.81-22.49,42.81-22.49c-.77,28.16-38.13,36.57-38.13,36.57,0,0-3.71,1.56.6,3.52,4.37,1.97,47.51-17.02,47.51-17.02-.67,13.4-12.77,21.51-24.42,26.25-10.78,4.38-21.18,5.88-21.8,6.01-.01,0-.02,0-.04,0,0,0,0,0-.01,0-1.31.26-3.2,4.3,1.83,4.17,5.37-.14,39.36-5.81,39.36-5.81-1.74,4.18-5.04,8.6-8.22,11.8-5.29,5.34-12.46,7.93-19.59,9.8-.02,0-.06.02-.09.03-1.65.39-13.96,2.95-13.89,2.28,0,.02-.01.04-.02.05-.01-.01-.02-.03-.02-.04-1.57,3.9.2,2,2.92,2.55,4.66.91,8.78,1.68,13.51,2.47,5,.81,10.27,1.49,15.24.26v.2c-2.81,6.05-9.87,11.62-16.39,12.9-4.61.88-9.55.21-14.12-.55-2.24-.37-4.87-1.47-7.11-1.47-.33,0-.61.04-.84.11-3.38.94,4.5,8.63,5.34,9.47,3.86,3.89,7.39,6.29,10.77,10.61,1.42,1.82,4.04,3.33,1.33,4.98-1.65,1.02-4.11.9-5.98,1.09-2.77.28-4.84.17-7.51-.28-.21-.05-.43-.09-.65-.13-3.74-.69-6.75-2.59-9.73-4.83-.82-.62-3.61-3.19-5.44-2.69-.43.1-.81.38-1.11.89-2.28,4.02,6.26,11.35,9.02,16.13,1.18,2.07,2.93,4.41,4.22,6.41,1.61,2.51.99,3.1-.52,4.27-4.22,3.23-10.61-.6-14.67-1.97l-.57-.59c-1.07-.71-9.67-7.59-11.28-9.18-.16-.19-.24-.32-.21-.34-.01.01-.03.02-.05.04,0,0,0-.02,0-.03-1.13.98-2.14,1.53-1.2,3.06,1.36,2.2,2.03,7.25,3.14,9.59,1.88,3.99.74,11.67.74,11.67,0,0-1.72,1.41-3.16,1.77-.09.02-.19.04-.28.05-5.99.79-17.67-15.58-18.97-15.84-1.31-.27-9.19,1.17-9.19,1.17h0s-.05.01-.05.01c27.36,14.34,47,79.91,47,79.91,0-.05,0-.09,0-.14.02.08.04.13.04.13,1.57-17.48-17.72-58.66-17.72-58.66.12-.04.24-.08.37-.11,4.13-1.11,13.14-.14,13.14-.14-9.66,23.2,13.57,29.2,13.57,29.2-16.44,15.65,2.07,32.33,2.07,32.33-15.38,15.91-6.26,31.55-7.83,32.86-1.45,1.21-3.57,2.65-3.86,2.85l-1.82-2.61s0,.04-.01.06l-.03-.05c-4.04,17.72-16.09,27.76-27.76,33.44M382,566.77h0c-.09-.6-.23-1.71-.26-2.58l2.32-2.4-3.22-2.91c-.07-.06-7.38-6.87-7.49-14.82-.05-4.06,1.74-7.78,5.5-11.35l5.39-5.16-7.22-1.93c-.08-.02-8.29-2.28-11.49-8.78-1.08-2.19-1.48-4.68-1.22-7.46l3.4-.99s12.59-2.96,18.58-17.29c5.99-14.35,11.35-31.31,28.55-27.91,0,0-5.35,2.35-4.82,35.2,0,0-1.05,15.66-17.22,22.95,0,0,7.82,9.13,7.05,16.17-.79,7.05-5.48,40.4-3.13,45.61,0,0-12.89-2.53-14.71-16.36"/>
  <path class="st0" d="M295.01,367.65s.59,2.94.99,3.92c.37.98.96.77,3.5,0,2.55-.79,7.64-2.16,13.11-1.76,5.48.39,3.14-1.95,3.14-1.95-4.5-2.34-24.44-4.11-24.44-4.11l.19,1.37c1.17,0,3.52,2.54,3.52,2.54"/>
  <path class="st0" d="M247.51,194.09c0,1.47-1.33,2.66-2.98,2.66s-3.01-1.19-3.01-2.66v-11.02c0-1.46,1.35-2.66,3.01-2.66s2.98,1.19,2.98,2.66v11.02Z"/>
  <path class="st0" d="M247.51,216.88c0,1.47-1.33,2.65-2.98,2.65s-3.01-1.18-3.01-2.65v-11.01c0-1.47,1.35-2.66,3.01-2.66s2.98,1.19,2.98,2.66v11.01Z"/>
  <path class="st0" d="M247.51,239.67c0,1.46-1.33,2.66-2.98,2.66s-3.01-1.19-3.01-2.66v-11.02c0-1.46,1.35-2.66,3.01-2.66s2.98,1.2,2.98,2.66v11.02Z"/>
  <path class="st0" d="M247.51,262.46c0,1.46-1.33,2.66-2.98,2.66s-3.01-1.19-3.01-2.66v-11.01c0-1.47,1.35-2.66,3.01-2.66s2.98,1.19,2.98,2.66v11.01Z"/>
  <path class="st0" d="M233.45,174.13c0,1.53.8,5.53,1.87,6.7.74.83,1.9,1.13,3,1.47v-8.17c0-3.37,2.74-6.11,6.11-6.11s6.13,2.74,6.13,6.11v8.17c.96-.3,2.22-.41,2.79-1.24,1.63-2.32,2.06-4.2,2.06-6.93,0-6.05-4.92-10.98-10.97-10.98s-10.97,4.92-10.97,10.98"/>
  <path class="st0" d="M233.45,273.11c0-1.53.8-5.53,1.87-6.7.74-.82,1.9-1.12,3-1.47v8.17c0,3.37,2.74,6.11,6.11,6.11s6.13-2.74,6.13-6.11v-8.17c.96.3,2.22.41,2.79,1.24,1.63,2.32,2.06,4.2,2.06,6.93,0,6.05-4.92,10.98-10.97,10.98s-10.97-4.92-10.97-10.98"/>
  <path class="st0" d="M376.59,194.09c0,1.47,1.34,2.66,3,2.66s2.98-1.19,2.98-2.66v-11.02c0-1.46-1.33-2.66-2.98-2.66s-3,1.19-3,2.66v11.02Z"/>
  <path class="st0" d="M376.59,216.88c0,1.47,1.34,2.65,3,2.65s2.98-1.18,2.98-2.65v-11.01c0-1.47-1.33-2.66-2.98-2.66s-3,1.19-3,2.66v11.01Z"/>
  <path class="st0" d="M376.59,239.67c0,1.46,1.34,2.66,3,2.66s2.98-1.19,2.98-2.66v-11.02c0-1.46-1.33-2.66-2.98-2.66s-3,1.2-3,2.66v11.02Z"/>
  <path class="st0" d="M376.59,262.46c0,1.46,1.34,2.66,3,2.66s2.98-1.19,2.98-2.66v-11.01c0-1.47-1.33-2.66-2.98-2.66s-3,1.19-3,2.66v11.01Z"/>
  <path class="st0" d="M390.65,174.13c0,1.53-.8,5.53-1.87,6.7-.75.83-1.88,1.13-3,1.47v-8.17c0-3.37-2.73-6.11-6.11-6.11s-6.11,2.74-6.11,6.11v8.17c-.96-.3-2.24-.41-2.82-1.24-1.63-2.32-2.04-4.2-2.04-6.93,0-6.05,4.92-10.98,10.97-10.98s10.97,4.92,10.97,10.98"/>
  <path class="st0" d="M390.65,273.11c0-1.53-.8-5.53-1.87-6.7-.75-.82-1.88-1.12-3-1.47v8.17c0,3.37-2.73,6.11-6.11,6.11s-6.11-2.74-6.11-6.11v-8.17c-.96.3-2.24.41-2.82,1.24-1.63,2.32-2.04,4.2-2.04,6.93,0,6.05,4.92,10.98,10.97,10.98s10.97-4.92,10.97-10.98"/>
  <path class="st0" d="M258.97,166.62v115.57l14.91-21.43-3.66-3.87v-18.29h19.65v18.34l-4.98,3.86,9.95,21.76,10.25-21.76-4.98-3.86v-18.34h24.17v18.34l-4.98,3.86,9.94,21.76,10.25-21.76-4.97-3.86v-18.34h19.65v18.29l-3.68,3.87,14.12,21.43v-115.57h-105.63ZM289.87,227.65h-19.65v-20.06h19.65v20.06ZM289.87,197.22h-19.65v-20.06h19.65v20.06ZM324.28,227.65h-24.78v-20.06h24.78v20.06ZM324.28,197.22h-24.78v-20.06h24.78v20.06ZM354.45,227.65h-19.65v-20.06h19.65v20.06ZM354.45,197.22h-19.65v-20.06h19.65v20.06Z"/>
  <path class="st0" d="M482.46,631.41c.92.59,1.13,1.9.47,2.92-.66,1.04-1.95,1.41-2.86.82l-6.88-4.41c-.91-.59-1.12-1.91-.45-2.94.66-1.03,1.93-1.39,2.85-.8l6.88,4.41Z"/>
  <path class="st0" d="M496.69,640.53c.92.59,1.12,1.89.47,2.92-.66,1.03-1.94,1.41-2.86.82l-6.88-4.4c-.92-.59-1.12-1.91-.46-2.95.66-1.03,1.93-1.39,2.86-.8l6.87,4.4Z"/>
  <path class="st0" d="M510.93,649.65c.91.59,1.12,1.89.47,2.92-.66,1.03-1.95,1.41-2.86.82l-6.88-4.41c-.92-.59-1.12-1.91-.46-2.95.66-1.03,1.94-1.38,2.85-.8l6.88,4.41Z"/>
  <path class="st0" d="M525.16,658.76c.91.59,1.12,1.9.47,2.92-.66,1.04-1.95,1.41-2.86.82l-6.88-4.41c-.92-.59-1.12-1.91-.45-2.94.66-1.03,1.93-1.39,2.85-.8l6.88,4.41Z"/>
  <path class="st0" d="M464.38,632.21c.95.61,3.77,1.71,4.93,1.51.82-.13,1.46-.73,2.12-1.28l-5.1-3.27c-2.11-1.35-2.72-4.16-1.37-6.26,1.35-2.1,4.16-2.73,6.27-1.38l5.1,3.27c.2-.72.63-1.55.34-2.24-.8-1.95-1.8-2.97-3.5-4.06-3.78-2.42-8.82-1.31-11.25,2.46-2.42,3.78-1.31,8.82,2.47,11.25"/>
  <path class="st0" d="M526.19,671.8c-.95-.61-3.13-2.71-3.43-3.84-.22-.79.06-1.64.28-2.46l5.1,3.27c2.1,1.35,4.91.73,6.26-1.37,1.35-2.1.74-4.92-1.36-6.27l-5.1-3.27c.57-.48,1.14-1.23,1.89-1.24,2.11-.09,3.45.39,5.15,1.48,3.78,2.42,4.89,7.47,2.47,11.25-2.42,3.78-7.46,4.88-11.25,2.46"/>
  <path class="st0" d="M534.09,550.81c.92.59,2.2.23,2.86-.81.66-1.03.45-2.34-.47-2.92l-6.88-4.41c-.91-.58-2.19-.23-2.85.8-.66,1.04-.46,2.35.46,2.94l6.88,4.41Z"/>
  <path class="st0" d="M548.32,559.92c.92.59,2.19.23,2.86-.81.66-1.03.46-2.33-.47-2.92l-6.87-4.41c-.92-.59-2.2-.23-2.86.8-.66,1.04-.46,2.35.47,2.94l6.87,4.4Z"/>
  <path class="st0" d="M562.56,569.04c.91.59,2.19.23,2.86-.81.66-1.03.45-2.34-.47-2.92l-6.88-4.41c-.92-.59-2.2-.23-2.86.8-.66,1.04-.45,2.35.46,2.94l6.88,4.41Z"/>
  <path class="st0" d="M576.79,578.15c.91.59,2.2.23,2.86-.81.66-1.03.44-2.34-.47-2.92l-6.88-4.41c-.92-.59-2.19-.23-2.85.8-.66,1.04-.46,2.35.46,2.94l6.88,4.41Z"/>
  <path class="st0" d="M527.25,534.04c.95.61,3.13,2.71,3.43,3.84.22.8-.05,1.63-.28,2.46l-5.1-3.27c-2.11-1.35-4.91-.74-6.26,1.37-1.35,2.1-.74,4.91,1.37,6.26l5.1,3.27c-.57.48-1.15,1.23-1.9,1.26-2.1.09-3.44-.4-5.14-1.49-3.78-2.42-4.89-7.47-2.47-11.25,2.42-3.78,7.46-4.88,11.25-2.46"/>
  <path class="st0" d="M589.06,573.63c-.95-.61-3.77-1.71-4.93-1.51-.82.14-1.45.73-2.12,1.28l5.1,3.27c2.11,1.35,2.72,4.15,1.37,6.26-1.35,2.1-4.16,2.72-6.26,1.37l-5.1-3.27c-.19.72-.64,1.56-.35,2.25.8,1.95,1.8,2.96,3.51,4.05,3.78,2.42,8.82,1.31,11.25-2.46,2.42-3.78,1.31-8.82-2.47-11.25"/>
  <path class="st0" d="M469.89,613.27l72.18,46.23-7.42-17.89-3.89.74-11.42-7.32,7.86-12.27,11.46,7.34.42,4.66,17.57,2.49-9.49-15.1-4.41,1.57-11.46-7.34,9.67-15.1,11.46,7.34.42,4.66,17.56,2.5-9.49-15.1-4.4,1.56-11.46-7.34,7.86-12.27,11.43,7.31.94,3.84,19.03-.24-72.17-46.23-42.25,65.97ZM520.37,618.38l-7.86,12.27-12.53-8.02,7.86-12.27,12.53,8.02ZM501.36,606.21l-7.86,12.27-12.53-8.02,7.86-12.27,12.53,8.02ZM534.13,596.9l-9.91,15.48-12.53-8.02,9.91-15.47,12.53,8.02ZM515.12,584.72l-9.91,15.47-12.53-8.02,9.91-15.48,12.53,8.02ZM546.2,578.05l-7.86,12.27-12.53-8.02,7.86-12.27,12.53,8.02ZM527.19,565.88l-7.86,12.27-12.52-8.02,7.86-12.27,12.53,8.02Z"/>
  <path class="st0" d="M143.5,631.41c-.92.59-1.13,1.9-.47,2.92.66,1.04,1.95,1.41,2.86.82l6.88-4.41c.91-.59,1.12-1.91.45-2.94-.66-1.03-1.93-1.39-2.85-.8l-6.88,4.41Z"/>
  <path class="st0" d="M129.26,640.53c-.92.59-1.12,1.89-.47,2.92.66,1.03,1.94,1.41,2.86.82l6.88-4.4c.92-.59,1.12-1.91.46-2.95-.66-1.03-1.93-1.39-2.86-.8l-6.87,4.4Z"/>
  <path class="st0" d="M115.03,649.65c-.91.59-1.12,1.89-.47,2.92.66,1.03,1.95,1.41,2.86.82l6.88-4.41c.92-.59,1.12-1.91.46-2.95-.66-1.03-1.94-1.38-2.85-.8l-6.88,4.41Z"/>
  <path class="st0" d="M100.8,658.76c-.91.59-1.12,1.9-.47,2.92.66,1.04,1.95,1.41,2.86.82l6.88-4.41c.92-.59,1.12-1.91.45-2.94-.66-1.03-1.93-1.39-2.85-.8l-6.88,4.41Z"/>
  <path class="st0" d="M161.58,632.21c-.95.61-3.77,1.71-4.93,1.51-.82-.13-1.46-.73-2.12-1.28l5.1-3.27c2.11-1.35,2.72-4.16,1.37-6.26-1.35-2.1-4.16-2.73-6.27-1.38l-5.1,3.27c-.2-.72-.63-1.55-.34-2.24.8-1.95,1.8-2.97,3.5-4.06,3.78-2.42,8.82-1.31,11.25,2.46,2.42,3.78,1.31,8.82-2.47,11.25"/>
  <path class="st0" d="M99.77,671.8c.95-.61,3.13-2.71,3.43-3.84.22-.79-.06-1.64-.28-2.46l-5.1,3.27c-2.1,1.35-4.91.73-6.26-1.37-1.35-2.1-.74-4.92,1.36-6.27l5.1-3.27c-.57-.48-1.14-1.23-1.89-1.24-2.11-.09-3.45.39-5.15,1.48-3.78,2.42-4.89,7.47-2.47,11.25,2.42,3.78,7.46,4.88,11.25,2.46"/>
  <path class="st0" d="M91.87,550.81c-.92.59-2.2.23-2.86-.81-.66-1.03-.45-2.34.47-2.92l6.88-4.41c.91-.58,2.19-.23,2.85.8.66,1.04.46,2.35-.46,2.94l-6.88,4.41Z"/>
  <path class="st0" d="M77.64,559.92c-.92.59-2.19.23-2.86-.81-.66-1.03-.46-2.33.47-2.92l6.87-4.41c.92-.59,2.2-.23,2.86.8.66,1.04.46,2.35-.47,2.94l-6.87,4.4Z"/>
  <path class="st0" d="M63.4,569.04c-.91.59-2.19.23-2.86-.81-.66-1.03-.45-2.34.47-2.92l6.88-4.41c.92-.59,2.2-.23,2.86.8.66,1.04.45,2.35-.46,2.94l-6.88,4.41Z"/>
  <path class="st0" d="M49.17,578.15c-.91.59-2.2.23-2.86-.81-.66-1.03-.44-2.34.47-2.92l6.88-4.41c.92-.59,2.19-.23,2.85.8.66,1.04.46,2.35-.46,2.94l-6.88,4.41Z"/>
  <path class="st0" d="M98.71,534.04c-.95.61-3.13,2.71-3.43,3.84-.22.8.05,1.63.28,2.46l5.1-3.27c2.11-1.35,4.91-.74,6.26,1.37,1.35,2.1.74,4.91-1.37,6.26l-5.1,3.27c.57.48,1.15,1.23,1.9,1.26,2.1.09,3.44-.4,5.14-1.49,3.78-2.42,4.89-7.47,2.47-11.25-2.42-3.78-7.46-4.88-11.25-2.46"/>
  <path class="st0" d="M36.9,573.63c.95-.61,3.77-1.71,4.93-1.51.82.14,1.45.73,2.12,1.28l-5.1,3.27c-2.11,1.35-2.72,4.15-1.37,6.26,1.35,2.1,4.16,2.72,6.26,1.37l5.1-3.27c.19.72.64,1.56.35,2.25-.8,1.95-1.8,2.96-3.51,4.05-3.78,2.42-8.82,1.31-11.25-2.46-2.42-3.78-1.31-8.82,2.47-11.25"/>
  <path class="st0" d="M113.82,547.3l-72.18,46.23,19.03.24.95-3.84,11.42-7.32,7.86,12.28-11.45,7.34-4.4-1.56-9.49,15.1,17.56-2.5.42-4.66,11.45-7.34,9.67,15.1-11.45,7.34-4.41-1.57-9.49,15.1,17.57-2.48.42-4.66,11.45-7.34,7.86,12.27-11.43,7.32-3.88-.74-7.42,17.89,72.17-46.23-42.25-65.97ZM118.12,610.36l7.86,12.27-12.53,8.02-7.86-12.27,12.52-8.02ZM137.13,598.19l7.86,12.27-12.53,8.02-7.86-12.27,12.53-8.02ZM104.36,588.87l9.91,15.48-12.52,8.02-9.91-15.48,12.52-8.02ZM123.36,576.7l9.91,15.47-12.52,8.02-9.91-15.47,12.52-8.02ZM92.29,570.03l7.86,12.27-12.53,8.02-7.86-12.27,12.53-8.02ZM111.3,557.86l7.86,12.27-12.53,8.02-7.86-12.27,12.53-8.02Z"/>
</svg>