<svg width="479" height="150" viewBox="0 0 479 150" fill="none" xmlns="http://www.w3.org/2000/svg">
<path d="M151.2 81.8H150.8L149.7 78.9C150.1 78.2 150.5 77.2 149.7 76.7C148.7 76.3 145.7 72.9 144.9 75.1C144.6 75.2 142.2 75.3 142 75.8C140.9 74 140 72.1 139.2 70.1C139.6 67.6 146 64.6 146 64.6C146 64.6 144.2 62 143.4 60.5C143.1 61.2 142.7 60.9 142.1 61.3C145.7 54.9 146.5 46.7 141.7 40.6C141.3 39.6 141.5 38.1 140.9 37.1C140.1 36 139.6 33.9 138.1 33.6C138.1 35.5 137.9 37.3 138.8 39.1C139.8 40.3 137.5 41.3 136.8 40.3C138.1 40.2 138.4 39.9 137.9 39.1C132 37.8 128.7 41.9 123.2 42.6C122.8 42.6 122.3 42.8 122 43.3C118.5 48 126.4 44.8 127 47.9C125.7 49 125.5 48.2 124.3 47.9C122.5 48 120.8 48.5 123.1 50C121.8 52.1 121.9 52.8 119.1 53C120.3 54.7 120 57 120.3 58.9C118.4 59.2 117.1 60.2 117.1 62.3C116.2 62.5 115.3 62.1 114.6 63C113.4 62 112 61.8 110.6 61.8C109.9 61.2 108.1 60 106.4 59.1C106.7 57.8 107.1 56.4 107.4 55.3C108 55 109.9 53.7 110.4 53.4C110.2 52.8 109.1 50.8 108.8 50.3C112.3 38.3 113.4 37.7 115.2 37.5L115.3 37.2L108.9 35.2L108.8 35.6C110.4 36.8 110.9 38.7 110.3 41.1C108.6 40.3 107.6 38.8 107.8 37.3L107.4 37.2L105.3 44.3L105.6 44.4C106.5 43.2 107.9 42.5 109.6 42.7C107.6 49.1 98.7004 47.1 100.3 41.7C101.4 39.5 103.7 40.9 102.5 43.3C107.5 41.5 104.5 34.4 100.3 38.6C101.8 35.7 102.5 33.5 100.7 30.6C98.4003 32.1 97.8003 34.7 98.2003 38.3C95.4003 31.6 90.4004 38.3 94.4004 41.7C93.6004 36.9 99.6003 40 95.6003 43.9C91.8003 46.6 87.1004 43.5 86.9004 38.8C89.1004 39 90.8004 40.3 91.0004 41.9H91.4004L91.6003 33.7H91.2003C90.9003 35.4 89.1004 36.7 86.8004 36.8C86.9004 34.3 88.4004 32.3 90.3004 32V31.6H80.9004V32C82.8004 32.3 84.3004 34.2 84.4004 36.8C82.2004 36.8 80.4004 35.3 80.0004 33.7H79.6003L79.8004 41.9H80.2003C80.4003 40.2 82.1004 39 84.3004 38.8C84.2004 43.6 79.5003 46.7 75.6003 43.9C71.6003 40 77.5004 36.9 76.8004 41.7C80.8004 38.3 75.9004 31.6 73.0004 38.1C73.4004 34.5 72.9004 31.8 70.5004 30.4C68.7004 33.2 69.5004 35.5 70.9004 38.4C66.7004 34 63.6003 41.3 68.7003 43.1C67.7003 40.8 69.8004 39.4 70.9004 41.5C72.5004 46.9 63.5003 48.9 61.6003 42.5C63.3003 42.2 64.7003 42.9 65.6003 44.2L65.9004 44.1L63.8004 37L63.4004 37.1C63.6004 38.6 62.6004 40.2 60.9004 40.9C60.1004 38.7 60.7004 36.7 62.4004 35.4L62.0004 35L55.6003 37L55.7004 37.3C57.5004 37.5 58.6003 38.2 62.1003 50.1C61.8003 50.7 60.8004 52.7 60.5004 53.2C60.9004 53.5 63.0004 54.8 63.5004 55.1C63.8004 56.2 64.2004 57.3 64.4004 58.6C55.8004 62.6 57.7003 65.4 51.1003 64.6C50.5003 65.9 50.0003 67.4 48.6003 68.3C48.4003 66.2 47.4003 64.6 46.1003 63.1C45.5003 62.4 44.6004 63.2 43.8004 63.2C42.0004 67.1 40.8004 63.5 37.5004 65.7C37.6004 67.5 37.9004 69.4 39.0004 71.1C36.7004 71 34.6003 70.3 33.1003 69.2C26.1003 77.1 18.7004 84.6 12.7004 93.3C9.50035 97.5 0.900351 95.1 3.10035 89.2C4.10035 85 10.4004 85.8 9.90035 90.1C12.9004 86.7 11.0004 83.3 6.30035 84.1C10.5004 82.2 13.1004 85.8 17.0004 81C14.1004 81.1 11.5004 80.1 8.60035 80.8C12.3004 78.6 17.4004 81.9 20.7004 75.8C17.9004 76.1 15.5004 77.3 12.5004 77.7C29.7004 61.3 13.2004 60.5 15.3004 53.4C14.0004 54.5 13.2004 55.6 13.8004 57.2C9.90035 55.6 4.20035 56.1 2.60035 51.4C2.30035 58.1 5.20035 57.5 10.2004 59C7.90035 58.8 5.60035 58.7 3.40035 57.9C3.80035 60.9 6.10035 61.6 8.80035 61.3C6.20035 62.8 6.80035 66.4 9.50035 67.8C7.80035 58.1 22.2004 61.4 15.6004 70.4C12.6004 75 8.10035 78.3 4.30035 82.4C3.60035 81.2 2.80035 79.9 1.30035 80.2C4.10035 83.4 1.00035 87 0.200351 90.5C-0.899649 94.6 2.80035 98.2 6.80035 98.8C5.20035 100.7 5.10035 102.4 6.40035 103.8C7.60035 97.7 16.5004 99 17.3004 92.4C17.4004 91.6 17.9004 91.1 18.8004 90.6C14.8004 95.2 24.4004 104.8 15.3004 105.9C14.0004 105.9 13.7004 107.4 14.4004 108.2C10.6004 108 9.60035 109.4 9.00035 113C10.7004 112.6 12.2004 112.2 13.7004 111.8C12.0004 116 8.30035 111.6 9.00035 119.2C10.6004 118.5 11.9004 117.7 13.4004 116.9C14.7004 121.1 6.60035 119.4 12.7004 126.2C13.0004 125 14.7004 122.3 15.6004 121.7C14.8004 123.8 15.0004 126.3 17.4004 127.3C17.5004 126.7 17.6004 126.2 17.7004 125.7H17.9004C18.2004 127.2 18.3004 129.1 19.7004 129.9C20.1004 130.1 20.4004 130.3 20.6004 130.8C20.8004 131.6 21.6004 131.8 22.3004 131.9C23.2004 132.1 23.4004 131.1 24.1004 130.7C24.3004 131.8 25.7004 132 26.2004 132.9C26.6004 127.3 19.4004 129.3 21.1004 125.8C21.8004 128 23.8004 127.6 25.3004 128.5C25.9004 129.4 27.2004 130.2 28.0004 128.9C28.7004 129.5 29.3004 129.9 29.9004 130.4C28.4004 123.8 25.1004 127.9 22.9004 124.5C24.4004 124.6 26.0004 126.7 27.6004 125.3C28.5004 126.2 29.2004 127.2 29.8004 128.3C30.0004 126.2 29.2004 124.6 27.7004 123.4C25.8004 122.3 23.3004 124.3 21.7004 122.1C19.5004 119.4 19.6004 115.6 20.7004 112.5C21.7004 110.2 24.6004 109.1 25.9004 106.9C25.6004 108.9 25.7004 112.4 28.0004 113C27.4004 109.3 30.1004 106 30.7004 102.3C31.4004 101.4 31.4004 100.7 30.8004 99.7C29.7004 97.8 29.3004 95.6 28.1004 93.8C26.2004 91.1 23.7004 91 27.8004 88.1C25.5004 91.8 27.4004 90.4 29.5004 93.9C29.8004 92.7 31.6004 91.2 29.4004 91.2C25.9004 89.5 34.0004 85.1 35.8004 84.9C37.6004 84.8 40.0004 85 41.4004 83.2C40.5004 81.6 39.7004 81.4 41.2004 79.7C40.2004 79.1 39.4004 78.5 39.2004 77.1C38.3004 77.4 37.4004 77.7 36.5004 78C37.4004 77 40.0004 75 40.2004 77.2C40.3004 78.4 41.5004 78.7 42.4004 79C41.7004 80 40.5003 81 41.6003 82.2C42.4003 83 42.8004 84.4 43.9004 84.7C44.2004 83.6 44.5004 82.5 44.8004 81.3C47.4004 84 42.2004 85.4 49.2004 87.8C49.0004 86.3 48.8004 85 48.9004 83.4C52.3004 86.2 47.4004 88 55.2004 88.9C54.3004 87.9 54.2004 86.8 53.9004 85.7C55.2004 85.9 56.2004 87.2 57.0004 88C57.8004 89.2 58.3004 89.9 60.2004 88.7C60.3004 88.9 60.3004 89.1 60.4004 89.4C61.2004 90.1 60.8004 90.7 60.8004 91.6H61.0004C62.1004 90.5 62.1004 89.3 61.8004 87.9C61.0004 85.3 57.9004 87.3 56.9004 84.8C58.4004 85.8 59.8004 86.4 61.5004 85.6C62.4004 86.5 62.7004 87.1 63.2004 88.3C64.0004 85.5 63.1004 82.7 60.2004 83.6C59.3004 83.9 59.0004 83.8 58.0004 83C59.3004 83.4 60.2003 82.8 61.1003 82.1C61.3003 82.3 61.4004 82.7 61.5004 82.7C62.3004 82.7 62.8004 83.3 63.4004 83.8C63.6004 81.5 61.3004 79.6 58.9004 80.1C58.3004 83 55.9004 81.3 54.0004 81C50.8004 78.9 49.2004 75.5 46.5004 73.4C46.7004 70.2 44.0004 67.6 40.8004 67.8C43.7004 66.6 47.2004 69 47.4004 72C47.5004 73.2 48.3003 74 49.1003 75C58.9003 55.1 90.9003 50 109.1 62.6C110.7 64.1 112.3 65.2 114 66.7C114.7 64.8 114.2 62.6 117.1 63.7L117.7 63.4C117.1 61.8 118.4 59.9 120 59.8V60.9C119.2 61 118.7 61.7 118.8 62.5C119.4 62.4 119.9 63.2 119.6 63.6C120.2 63.9 120.8 63.8 121.3 63.4C121.7 63.4 122.2 63.5 122.8 63.5C122.1 65.1 119.9 65.5 118.7 64.4C118.9 64.7 117.8 68.1 117.8 68.5C117.7 68.9 117.2 69.3 116.7 69.3C116.9 69.6 117 69.9 117.3 70.2C118.1 69.8 119.2 69.8 119.1 68.6C119.2 67.9 118.9 65 119.8 65.2C120.1 66.3 119.5 67.7 120.4 68.8C123.1 68.1 121.9 65.8 125.1 65.1C126.3 65 129 64.3 129.7 65.7C126.9 64.9 123.3 65.7 122.7 68.9C119.8 69.6 117.3 71.7 114.2 71.7C111.7 71.8 111.1 74.8 111 76.8C110.6 79.1 110.4 81.5 109.4 83.7C108.8 84.5 109.3 85.5 109.6 86.3C110.5 86.7 111.2 90.1 111.4 91.2C111.4 93.3 115.1 94 116.5 95.3C116.9 92.6 111.8 93.4 112.6 89.6C113.5 92.1 115.5 92.6 117.6 93.8C116.9 91.3 116.7 87.1 113.2 87.7C111.9 85.8 113.9 85.7 113.2 83.5C114.2 83.8 114.7 84.2 115 84.7C114.7 84.6 114.4 84.5 114 84.4C114.1 86 115.5 86.4 116.6 87.4C116.4 84.8 116.2 83.2 113.8 81.9C112.5 80.7 114 77.8 113.9 76.1C113.9 75.5 117.1 74 117.6 74.1C120.1 74.4 122.5 74 124.9 74.7C127.2 75.5 125.2 70.3 129 73C126.2 72.2 127.9 75.2 126 75.3C124.7 75.3 123.4 75.2 122 75.2C126.9 86.3 138 83 141 92.8C143.6 90.6 141.8 90.6 141.1 88.2C146.8 92 135.7 96.5 139.9 103.2C139.7 102.4 142.2 99.3 142.6 98.7C143 98 143.8 97.9 144.4 98.5L145.2 96.8C143.6 95.9 146.4 92.3 146.7 91.3C147 90.6 147.6 90.4 148.2 90.6L149 88.5C147.5 88.1 148.7 84.6 148.6 83.6C146.6 81.7 144.9 79.5 143.2 77.2L144.2 77.1C144.1 77.5 144.3 78.1 144.6 78.4C145.3 78.6 148 81.3 148.8 80.6L149.2 81.7C148.5 81.9 148.4 82.8 148.4 83.5C148.7 83.8 149.2 84.1 149.5 84.4C149.5 84.2 149.5 83.2 149.7 82.9C150 83.3 150.6 83.3 150.9 83C151.2 83.2 150.8 85.5 150.9 85.8C151.3 86.2 151.7 86.7 152 87.1C151.8 86 153 82 151.2 81.8ZM122.4 44.5C122.7 44.5 123.1 44.4 123.5 44.4C122.8 43.8 123.5 43.2 124.1 43.6C125.5 44.7 122.6 46.6 122.4 44.5ZM65.0004 55L62.0004 53.1L63.6003 49.9L68.0004 51.5L65.0004 55ZM74.8004 52.4C70.1004 53.4 69.1004 48.2 73.8004 47.3C78.6004 46.4 79.6004 51.6 74.8004 52.4ZM85.6003 52.1L80.9004 48.9L85.6003 45.7L90.3004 48.9L85.6003 52.1ZM100.4 50.6C99.8004 54 92.4003 52.5 93.1003 49.1C93.6003 45.8 101.1 47.3 100.4 50.6ZM103.2 51.3L107.6 49.7L109.2 52.9L106.2 54.8L103.2 51.3ZM139 36.1C139.9 37 140.2 38.1 140.2 39.2C139.4 38.9 139 38 139 36.1ZM135.1 42.3C134 43.1 132.9 44.2 131.7 42.6C131.5 42.6 131.3 42.7 130.9 42.7C132.7 40.1 132.6 40.6 135.1 42.3ZM125.5 52C126.3 52.2 127 52.7 127.7 51.9C126.9 51.9 126.7 51.3 126.5 50.9C126.2 48.3 130.3 49.2 131.9 49.4C135.8 51.7 142.4 50.3 140.2 44.6C142 45.7 141.4 48.8 140 50C136.4 51.9 133 50.4 129.4 54.2C128.8 52.4 126.8 52.5 126 54.4C125.3 54.4 125.1 54.4 124.4 54.5C124.3 53.6 125.2 53 125.5 52ZM139 68.7C138.9 68.9 138.6 69.4 138.6 69.4C135.6 65.9 125.5 62 121.2 62.7C121.2 62.7 121.2 62.1 121.3 61.9L123 60.9L121.5 59.7C121.5 59.6 120.6 53.8 120.6 53.8L123.1 53.7C123.1 53.7 122.2 54.7 122.2 55.6C122.3 55.7 122.4 55.8 122.5 56C122.9 55.8 123.5 54.8 123.5 54.8L123.7 58.2C123.7 58.2 123 57.2 122.5 57.1C122.5 57.2 122.4 57.3 122.3 57.4C123 59.6 126.3 59.7 126.3 57.8C126.2 56.8 125.1 56.9 125.2 58C123.4 56.5 125.9 54.3 126.9 56.5C126.8 55.2 126.9 54.4 127.9 53.8C128.6 54.7 128.5 55.5 127.8 56.7C130 54.7 130.8 58.2 128.8 58.6C129.8 56.8 126.9 57.4 128 59.3C129 60.8 131.4 60.5 132.2 59C132.1 58.9 132.1 58.8 132.1 58.7C131.3 58.6 130 59.3 130 59.3L131.1 56.2C131.1 56.2 131.5 57.5 132.3 58C132.4 57.9 132.6 57.8 132.7 57.8C132.8 57 132 55.7 132 55.7L135.8 57.2C135.8 57.2 134.2 57.5 133.8 58.3C133.9 58.4 133.9 58.6 133.9 58.7C134.7 58.8 136 58.3 136 58.3L134.7 61.3C134.7 61.3 134.3 60 133.6 59.5C133.5 59.6 133.4 59.6 133.3 59.6C132.7 61.4 134.3 63.1 136.1 62.6C138.2 61.9 136.5 59.6 136 61.6C134.9 59.8 137.9 57.9 138.1 60.8C138.4 59.3 139 58.7 140.1 58.6C140.4 59.7 140 60.4 138.9 61.3C141.2 60.3 141.4 63.6 139.1 63.4C139.9 62.6 139.2 61.8 138.4 62.5C137.1 64 139.6 66 141.6 65C141.6 64.9 141.6 64.8 141.7 64.7C141.3 64.4 140 64.4 140 64.4L142.5 62.6C142.5 62.6 142.2 63.7 142.4 64.3C142.6 64.3 142.7 64.3 143 64.4C143.6 63.8 143.6 62.4 143.6 62.4L145.4 64.7C145.4 64.7 140.8 66.8 139.9 67.5L138.7 67.4L139 68.7ZM149 78.1C148.4 78.1 148 78.5 148.1 79.2C148.034 79.2 148 79.1667 148 79.1L145.3 77.2C145.1 77.1 145.1 76.9 145.2 76.6C145.8 76.6 146.2 76.3 146.2 75.7C146.3 76.1 149.2 77.7 149 78.1Z" fill="#00494E"/>
<path d="M116.4 64.9C116.2 64.7 116.2 64.3 116.3 64C116 63.9 115.4 67 115.3 67.1C115.5 67.3 115.7 67.5 115.9 67.8C116.2 67.9 116.7 68 116.8 67.6L117.4 64.9C117.2 65.3 116.6 65.4 116.4 64.9Z" fill="#00494E"/>
<path d="M75.7003 141C68.1003 138 62.5004 145.4 68.8004 146.6C62.0004 146.9 63.3004 137.2 60.4004 137.9C62.9004 140.6 62.9003 145.5 65.2003 146.9C69.8003 148.8 74.6004 149.1 79.5004 148.9C77.1004 146.7 76.4003 144 75.7003 141Z" fill="#00494E"/>
<path d="M99.1003 146.6C105.4 145.4 99.8003 138 92.2003 141C91.5003 143.9 91.0004 146.7 88.4004 148.9C93.3004 149.1 98.1003 148.8 102.7 146.9C104.9 145.6 104.9 140.5 107.5 137.9C104.5 137.2 105.9 146.8 99.1003 146.6Z" fill="#00494E"/>
<path d="M149.1 86.8C149.1 86.9 149.1 87.1 149.2 87.1C149.5 86.8 150.1 86.9 150.3 87.3C150.7 87.2 150.5 86 150.6 85.6C150.2 85.2 149.7 84.6 149.1 84.3V86.8Z" fill="#00494E"/>
<path d="M147.2 96C147.2 95.7 149.2 92.4 148.7 92.2C148.4 92.3 147.9 92.1 147.8 91.8C147.4 91.6 146.1 95 145.9 95.3C146.5 95 147.2 95.5 147.1 96.3C147.1 96.1 147.2 96 147.2 96Z" fill="#00494E"/>
<path d="M169.1 81.2C167.5 81.6 166.9 83 166.2 84.6C162.2 78.3 154.6 74 153.4 66.4C154.3 60.3 162.4 61.7 160.8 68.1C165 65.9 162.9 61.6 159 60.8C163.4 61.1 165.7 64.8 168.6 58.7C166 59.6 162.1 58.9 160.8 58.8C166.2 58 169.1 58.1 169 51.4C167.2 55.4 162.1 55.4 158.4 56.8C158.6 55 158.1 53.9 156.6 53.3C158.1 63 139.6 59.9 159.8 80.9C157.3 79.6 154.4 80 152 78.4C153.9 83.4 157 82.5 161.2 84.3C156.7 84.3 155.4 88.7 158.6 90.7C157.7 87.3 162.4 85 164.6 87.7C169.8 94.5 160.2 103.9 151.6 86.9C151.7 87.8 151 88.7 150.1 88.4L149.1 91.1C151.1 91.9 148.1 95.6 147.9 96.7C147.6 97.5 146.8 97.6 146.2 97.3L145.3 99.3C146.5 100.4 143.3 103.4 143 104.4C142.7 105 142 105.2 141.5 104.8L141.2 105.5L141.3 105.6C143.4 108.2 144.4 110.2 143.9 112.9C145.7 111.4 146.5 107.2 145 105C146.6 106.7 148.9 107.8 149.8 109.9C150.7 113.7 150 117.6 147.5 120.6C146.4 121.7 146.7 122.3 146.5 123.6C145.7 125.7 143.1 125.9 142.1 127.7C141.4 129.3 140.3 130.6 139.8 132.3C142.7 131.9 142.3 127.7 145 126.9C143.9 128.6 142.8 130.1 142 132.1C144.3 131.5 148.7 130.9 148 127.6C147.4 126 148.9 125.1 148.9 123.7C150.7 123 150.4 122.2 151.2 120.9C151.6 121.8 151.6 122.5 151.5 123.5C151.3 123.1 151.2 122.7 150.9 122.4C149.6 124.2 150.7 125.9 150.5 127.8C157 122 148.4 122.1 155.1 109.4C156.7 106.8 150.7 107.2 150.3 101.4C149.9 98.9 152.1 96.9 152.5 94.5C155.1 99.1 164 99 162.8 104.8C164.6 103.5 164.5 100.9 163.8 99.1C173.3 95.9 166.1 87.3 169.1 81.2Z" fill="#00494E"/>
<path d="M141.5 103.2C141.7 103.3 141.8 103.4 141.9 103.6C142 103.6 142.2 103.6 142.3 103.4C142.4 103.2 144.6 100.2 144.4 99.9C144.2 99.8 144 99.7 143.8 99.3C143.6 99.1 143.2 99 143 99.3C142.9 99.6 140.4 102.5 141 102.9C141.3 103.1 141.4 103.1 141.5 103.2Z" fill="#00494E"/>
<path d="M140.2 103.8C140.2 103.9 140.3 103.9 140.3 104V103.9L140.2 103.8Z" fill="#00494E"/>
<path d="M50.6003 116.7C51.5003 116.8 52.6004 117 53.5004 116.6C52.0004 114.3 50.7004 111.9 49.3004 109.5C46.8004 112.5 42.5004 110.7 39.8004 108.8C37.6004 107.1 42.4004 104.7 40.8004 99.2C42.9004 102.7 39.0004 105.6 45.0004 107.5C43.3004 104.9 43.5004 101.6 42.9004 98.7C42.8004 98.1 42.6004 97.7 43.0004 97.1C43.2004 96.4 43.2004 95.4 42.3004 95.3C35.6004 91.5 36.9004 93.3 30.5004 92.4C28.9004 95.2 32.3004 97.8 31.7004 100.4C31.3004 101.7 33.3004 101.7 33.3004 103C33.7004 105 33.5004 107.9 31.2004 108.7C30.1004 109.4 31.0004 110.9 32.0004 111.3C30.0004 115 31.6004 115.7 34.7004 117.4C34.7004 115.9 34.7004 114.7 35.4004 113.5C39.8004 116.4 33.3004 116.9 41.9004 120.4C41.0004 118.9 41.0004 117.4 40.9004 115.9C41.7004 116.1 42.5004 116.2 43.4004 116.5C44.3004 120.5 46.5004 120.9 50.3004 120.5C49.0004 119.2 48.5004 117.4 47.5004 115.9C48.5004 116.6 49.6003 115.9 50.6003 116.7Z" fill="#00494E"/>
<path d="M128.3 94.5C127.1 94.7 126.8 95.2 127.1 96.3C125.8 99.1 125.8 102.6 123.5 105C128.3 103.7 127.3 101.8 128.4 98.1C128.2 103.1 128.4 103 130.2 106.5C126.5 109.1 120.4 106.9 118.4 112C119 112.7 119.7 112 120.4 112.2C120 112.8 119.7 113.4 118.9 114C119.1 113.6 119.1 113.2 119.2 112.9C117.7 112.5 116.6 115.6 115.6 116.7C125.5 114.7 114.4 111.8 134 109.4C137.5 107.7 130.8 105.2 137.6 100.9C138.2 98.6 138.6 96.1 139.8 94C140.1 93.3 139.6 92.3 139 91.9C136.3 94 134.8 90.5 128.3 94.5Z" fill="#00494E"/>
<path d="M27.8004 53.5C27.8004 52.8 27.9004 52.2 27.9004 51.5C27.1004 51.4 26.4004 51.3 25.7004 51.2C26.6004 50.5 27.7004 50.3 28.6004 50.6C27.8004 53.8 29.2003 56.1 32.6003 56.3C33.6003 54.7 34.6003 54.5 35.6003 55.6C31.0003 55.2 34.5004 60 36.7004 58.3C37.4004 57.4 39.3004 56.6 38.7004 55.4C35.1004 52.7 35.3004 56.6 34.7004 50.2H34.3004C34.0004 51.4 32.7004 52.4 31.7004 51.2C31.4004 50.9 31.0004 50.4 30.5004 50.3C33.0004 48.3 35.9004 51.2 35.7004 46.5C38.5004 50 38.7004 46.2 41.4004 46.1C41.3004 48.8 40.7004 48.7 38.4004 48.4C39.2004 49 42.1004 51.9 40.4004 52.2C39.7004 50.4 38.5004 48.6 36.5004 48.2C34.8004 49.9 35.7004 51.7 35.9004 53.6C37.4004 53.2 38.6003 52.1 40.1003 52.3C40.7003 53.8 38.2004 54.6 39.5004 56.1C41.8004 56.4 44.4003 56.5 43.6003 53.2C42.8003 52.8 42.0004 52.4 41.3004 53.3C41.3004 52 42.6004 51.7 43.5004 52.1C45.6004 49.8 45.0003 46.7 42.6003 45C43.3003 44.1 43.8004 43.4 44.9004 43.2C44.6004 44 43.8003 44.3 43.6003 45C44.2003 45.7 44.6003 46.2 45.1003 46.8C46.3003 46.2 46.7004 44.3 45.8004 42.3C44.2004 42.7 41.6003 44 41.6003 44C40.3003 43.4 40.8004 44.1 41.0004 44.8C36.8004 45.6 32.6004 46.7 29.3004 49.5C28.7004 49.9 28.4004 49.7 28.2004 48.8C27.8004 48.1 27.6004 49.2 27.5004 49.5C27.5004 49.5 24.9004 50.2 23.8004 51.1C24.9004 52.2 26.0004 54.2 27.8004 53.5Z" fill="#00494E"/>
<path d="M44.3004 52.3C44.6004 54.2 44.2004 55.8 42.8004 57.3C44.7004 60.7 47.8004 63.2 49.3004 66.9C52.4004 61 49.1004 59.1 44.7004 55.8C47.5004 56.8 50.3004 57.7 51.8004 60.4C52.1004 55.4 49.9004 52.8 45.0004 52V51.8C47.0004 51.7 49.0004 51.7 50.9004 52.9C50.3004 51.3 49.1004 49 47.3004 49.2C48.0004 47.9 48.0004 46.9 47.3004 46.1C47.0004 47.1 46.4004 47.7 45.4004 47.7C45.9004 49.5 45.3004 51 44.3004 52.3Z" fill="#00494E"/>
<path d="M28.8004 63.7C29.4004 65.2 30.3004 66.7 31.7004 67.3C30.9004 64.5 32.8004 62.2 33.7004 59.6C33.7004 65.4 30.5004 68.5 38.4004 70.7C36.3004 67.3 37.7004 63.2 36.4004 59.6C35.2004 58.8 33.7004 58.7 32.8004 57.6C32.6004 57 32.1004 56.9 31.7004 56.8C30.2004 56.5 28.8004 56 28.1004 54.8C27.0004 55.1 26.3004 55.1 25.3004 54.7C25.2004 55.9 26.3004 57.2 27.6004 56.7C26.5004 58.3 27.2004 59.7 27.5004 61.4C28.3004 59.7 29.5004 58.7 30.9004 57.9C29.8004 59.8 28.0004 61.6 28.8004 63.7Z" fill="#00494E"/>
<path d="M60.6003 122.8C61.7003 121.8 60.3003 121.2 59.6003 120.5C50.0003 111.6 46.4004 100.1 47.3004 87.2C47.1004 87.1 46.7004 87 46.3004 86.8C44.8004 100.2 50.0003 114 60.6003 122.8Z" fill="#00494E"/>
<path d="M146.1 48.7C145.2 50.5 147.8 51.2 147.9 52.8C147.2 52.2 146.7 51.8 146 51.2C145.2 54.4 149 55.4 150.1 58C151.7 53.4 150.8 50.5 146.1 48.7Z" fill="#00494E"/>
<path d="M41.0004 62.7C38.4004 62.8 38.9003 59.7 38.1003 57.9C37.7003 58.5 37.2004 58.9 36.9004 59.4C37.5004 61.2 37.9004 63 38.5004 64.9C38.9004 64.6 39.3003 64.3 39.6003 64.1C41.4003 65.3 43.0003 64.4 43.6003 62.5C44.2003 62.6 44.6004 62.8 44.9004 62.5C44.1004 60.8 43.2004 59.1 42.4004 57.5C41.8004 57.6 41.4004 56.9 40.8004 57.5C41.4004 58.8 43.6004 61.9 41.0004 62.7Z" fill="#00494E"/>
<path d="M145.6 40.8V41C144.8 41 144 40.9 143.1 40.9C144 43.8 147.3 42.4 149.5 43.7C148.3 41.4 147.4 39.1 144.6 38.7C144.9 37.4 144.5 36 143.7 35.6C143.7 36.8 143.3 37.7 142.1 38.2C141.6 40.4 144.1 40.2 145.6 40.8Z" fill="#00494E"/>
<path d="M144.9 57.3H144.7C144.1 59.9 145.9 62.1 146.9 64.2C148.8 60.8 148.7 56.9 145.7 54.3C144.8 56.1 146 57.9 146.5 59.5C146.434 59.5 146.367 59.5333 146.3 59.6C145.9 58.8 145.4 58.1 144.9 57.3Z" fill="#00494E"/>
<path d="M144.2 43C145.3 45.6 147 45 148.2 46.7C147.2 46.4 146.4 46.1 145.6 45.8C145.6 48.6 149.1 48.8 151 49.9C150.6 45.5 148.4 43.8 144.2 43Z" fill="#00494E"/>
<path d="M134.1 38.3C135.3 38.3 137 39.1 138 38.4C138 34.6 133.4 35.2 130.7 35C131.6 36.4 132.6 37.8 134.1 38.3Z" fill="#00494E"/>
<path d="M136.8 34.8C136.8 34.7 136.9 34.7 136.9 34.6C135.4 32.5 134.8 32 132.1 32C132.3 34.5 134.9 34.5 136.8 34.8Z" fill="#00494E"/>
<path d="M130.1 28.4C130 30.2 131.6 31.3 134 31.1C133.5 29.3 132.1 28.3 130.1 28.4Z" fill="#00494E"/>
<path d="M124.2 47.3C122.2 46.3 120.5 47.5 118.4 47.1C119.1 50 122.4 47.8 124.2 47.3Z" fill="#00494E"/>
<path d="M128.1 25.5C128.7 27.3 129.3 27.7 131.2 27.4C130.7 25.9 129.7 25.4 128.1 25.5Z" fill="#00494E"/>
<path d="M129.1 24.6C128.3 23 128 22.8 126.4 23C127.1 24.5 128.1 25.1 129.1 24.6Z" fill="#00494E"/>
<path d="M119.7 75.2C120.1 76 120.7 76.9 121.2 77.7C123.1 77.7 121.5 76.1 121.1 75.5C120.9 75.3 120.3 75.3 119.9 75.2C119.834 75.1333 119.767 75.1333 119.7 75.2Z" fill="#00494E"/>
<path d="M126.9 22C127.1 21 125.8 19.7 124.8 20.1C124.9 21.3 126 22.1 126.9 22Z" fill="#00494E"/>
<path d="M32.1003 38.9C32.7003 38.5 31.9004 37.6 31.3004 38.1C30.8004 38.7 31.6003 39.5 32.1003 38.9Z" fill="#00494E"/>
<path d="M32.8004 40.4C33.4004 40 32.6004 39.1 32.0004 39.6C31.5004 40.1 32.3004 40.9 32.8004 40.4Z" fill="#00494E"/>
<path d="M29.2004 33.9L28.0004 34L28.7004 35.7L29.6004 34.7C29.6004 34.7 29.7004 34.7 29.7004 34.8L29.8004 37C30.0004 38.9 32.9004 37.8 31.8004 36.2L30.3004 34.5C30.3004 34.5 30.3004 34.4 30.4004 34.4L31.7004 34.5L31.0004 32.7L30.0004 33.5C30.0004 33.5 29.9004 33.5 29.9004 33.4L29.8004 31.9C29.4004 32 28.6004 32.3 28.2004 32.6L29.2004 33.8C29.3004 33.8 29.2004 33.9 29.2004 33.9Z" fill="#00494E"/>
<path d="M25.6004 42.5C26.4004 42.5 26.4004 41.3 25.6004 41.3C24.8004 41.1 24.8004 42.5 25.6004 42.5Z" fill="#00494E"/>
<path d="M25.5004 44C26.3004 44 26.3004 42.8 25.5004 42.8C24.7004 42.8 24.7004 44 25.5004 44Z" fill="#00494E"/>
<path d="M28.0004 38.6C28.8004 38.6 28.8004 37.4 28.0004 37.4C27.3004 37.2 27.3004 38.6 28.0004 38.6Z" fill="#00494E"/>
<path d="M26.1004 40.9C26.9004 40.9 26.9004 39.7 26.1004 39.7C25.4004 39.7 25.4004 40.9 26.1004 40.9Z" fill="#00494E"/>
<path d="M33.6003 42.5C33.6003 41.8 34.0004 40.6 34.0004 40.6C33.3004 40.8 32.1004 41.4 31.4004 41.6C31.4004 41.6 32.5004 42.2 33.0004 42.6C32.4004 42.8 32.0004 42.9 31.2004 42.5L32.2004 44.5C32.4004 43.6 32.9004 43.2 33.2004 43C34.3004 44.7 31.6004 46.5 30.4004 45C30.1004 44.4 30.5004 43.8 31.2004 44.2C31.1004 43 30.1004 43 29.7004 43.9C29.7004 42.7 29.4004 41.9 28.1004 41.6C27.8004 42.8 28.2004 43.6 29.4004 44.2C28.7004 44.1 27.9004 44.8 28.8004 45.7C28.8004 44.9 29.5004 44.8 29.8004 45.4C30.4004 46.9 28.7004 47.4 27.2004 46C27.5004 45.9 27.9004 45.9 28.3004 46L27.0004 44.3C27.1004 44.9 27.0004 45.3 26.9004 45.6C26.6004 45.3 26.6004 44.9 26.3004 44.4L25.3004 45.3C26.3004 45.9 27.4004 46.9 28.8004 48.8C30.6004 47 37.7004 44 40.5004 44.1C40.2004 41.8 40.3003 40.3 40.6003 39.2H39.3004C39.6004 39.8 39.7004 40 39.9004 40.4C39.7004 40.3 39.3004 40 38.9004 39.5L39.1003 41.6C39.3003 41.3 39.5004 40.9 39.9004 40.8C39.9004 42.8 38.2004 43.6 37.7004 42.1C37.6004 41.4 38.1004 41.1 38.7004 41.7C38.8004 40.4 37.8004 40.5 37.4004 41C38.0004 39.8 37.7003 38.9 36.6003 38.2C35.9003 39.3 36.2004 40.1 37.0004 41C36.1004 40.6 35.3003 41.3 36.1003 42.2C36.2003 41.4 37.0003 41.5 37.1003 42.2C37.2003 44 34.1004 44.5 33.7004 42.6C34.0004 42.4 34.7004 42.5 35.4004 42.9L34.7004 41.2C34.6004 42 34.2003 42.3 33.6003 42.5Z" fill="#00494E"/>
<path d="M67.2003 109.3C68.2003 109.9 69.2003 110.5 70.2003 111C67.9003 113.9 72.1004 115.1 71.9004 112.3C73.5004 113 79.8004 115 77.3004 111.2C69.0004 111.4 64.8004 102.8 69.4004 96.1C72.2004 97.3 82.0003 92.6 81.1003 97.4C81.7003 98 81.8004 98 82.9004 98C85.7004 91.5 76.0004 93.4 72.5004 94.2C69.4004 95.1 66.5004 90.5 63.8004 93.1C62.7004 94.1 63.5004 96.2 64.9004 96.3C66.2004 96.3 66.6004 94.5 65.5004 94C68.1004 93.1 66.8004 97.2 65.9004 98.4C63.0004 96.8 62.4004 101.6 65.3004 100.4C65.4004 101.3 65.4004 102.1 65.3004 102.9C62.1004 102.2 63.0004 106.8 65.3004 104.9C66.0004 105.6 66.3004 106.6 66.4004 107.6C63.2004 107.8 65.8003 111.9 67.2003 109.3Z" fill="#00494E"/>
<path d="M76.5004 114.2C76.4004 114.2 76.3003 114.1 76.1003 114.1C75.9003 114.7 75.5003 115.8 76.1003 116.2L78.8004 117.3L82.3004 114.7L83.2003 100.9L82.2003 101C82.0003 101 80.1003 117 79.1003 116.1C79.3003 115.1 81.6003 101 81.6003 101C81.6003 101 80.9003 100.9 80.6003 100.9C80.5003 101.2 80.5004 101.7 80.5004 101.7L76.7003 96.7L76.1003 96.9L80.2003 102.3L80.0004 103.2C79.7004 103 75.6004 97.5 75.3004 96.9L74.5004 96.8L79.7003 103.7L79.4004 104.6L73.5004 96.8H72.7003L79.2003 105.3L78.9004 106.5L71.9004 96.9H71.0004L78.8004 107.2L78.5004 108.2L69.7003 97L69.5004 97.9C69.5004 97.9 77.5004 108.5 78.0004 109.2C77.6004 110.5 77.9004 110.7 78.4004 111.7C78.7004 112.7 78.0004 114.6 76.5004 114.2Z" fill="#00494E"/>
<path d="M77.4004 109.8L69.1003 98.9C69.1003 98.9 69.0004 99.5 68.9004 99.7C69.6004 100.5 76.8004 110.2 76.8004 110.2L77.4004 109.8Z" fill="#00494E"/>
<path d="M69.0004 102.6C70.9004 105.1 72.8003 107.5 74.6003 110C74.8003 110 75.4004 110.1 75.4004 110.1L68.7003 101.2C68.8003 101.1 68.7004 102 69.0004 102.6Z" fill="#00494E"/>
<path d="M83.4004 98.4C82.5004 98.3 81.5003 98.2 80.6003 98.1C78.8003 99.7 80.8003 100.4 82.2003 100.3C83.3003 100.7 84.8004 99.2 83.4004 98.4Z" fill="#00494E"/>
<path d="M83.2003 137.5C83.0003 138.7 84.9003 139.2 85.1003 137.8C85.3003 136.6 83.4003 136.3 83.2003 137.5Z" fill="#00494E"/>
<path d="M84.9004 130.1C85.2004 128.5 82.8003 128.1 82.6003 129.7C82.2003 131.2 84.7004 131.6 84.9004 130.1Z" fill="#00494E"/>
<path d="M76.7003 126C77.0003 124.4 74.6004 124 74.4004 125.6C73.9004 127 76.4003 127.6 76.7003 126Z" fill="#00494E"/>
<path d="M89.9004 141C88.9004 146.5 86.3004 149 84.0004 149C81.7004 149 79.0003 146.5 78.1003 141C78.4003 141.2 78.7004 141.7 79.0004 142.1L79.6003 142.8L80.3004 142.4C80.6004 142.2 80.9003 142.1 81.2003 142C80.9003 142.7 80.8004 143.3 81.0004 144.1C81.3004 145.8 82.7003 146.9 84.2003 146.9C85.7003 146.9 87.1004 145.8 87.4004 144.1C87.5004 143.3 87.4003 142.5 87.2003 142C87.4003 142.1 87.8003 142.2 88.1003 142.4L88.8004 142.8L89.4004 142.1C89.3004 141.7 89.7004 141.3 89.9004 141ZM91.1003 139.5C89.8003 139.6 89.0004 140.6 88.3004 141.5C87.6004 141.1 86.8003 140.7 86.1003 140.7C85.7003 140.7 85.3004 140.8 84.9004 141.1C87.5004 142.1 86.5003 145.9 84.1003 145.9C81.7003 145.9 80.7004 142.1 83.3004 141.1C83.0004 140.8 82.5003 140.7 82.1003 140.7C81.3003 140.7 80.4004 141.1 79.9004 141.5C79.1004 140.5 78.4003 139.6 77.1003 139.5C77.9003 146.4 81.0003 150 84.2003 150C87.4003 150 90.4003 146.5 91.1003 139.5Z" fill="#00494E"/>
<path d="M68.4004 121.2C69.4004 120 65.7003 118.3 65.2003 117.6C64.8003 117.4 64.2004 117.4 64.0004 117.8C63.0004 119 66.6003 120.7 67.1003 121.4C67.5003 121.7 68.0004 121.7 68.4004 121.2Z" fill="#00494E"/>
<path d="M67.9004 123.9C72.0004 123.9 71.5004 117.4 67.5004 118.1C69.4004 119.1 71.0003 121.8 68.1003 122.6C67.0003 122.8 65.9003 121.6 65.1003 121C65.0003 122.7 66.3004 123.9 67.9004 123.9Z" fill="#00494E"/>
<path d="M62.1003 125C63.0003 126.7 68.2003 131.4 69.7003 129.1C67.1003 127.8 62.8004 124.6 64.5004 120.5C60.7004 118.2 64.1004 114.5 67.0004 117.6C70.1004 115.7 73.6003 117 76.7003 119.2C77.8003 116.9 72.5003 115.2 71.2003 114.4C69.6003 113.8 64.6004 115 62.9004 115.1C61.8004 115.2 61.0004 116.2 61.0004 117.4C61.2004 118.8 61.2003 124 62.1003 125Z" fill="#00494E"/>
<path d="M108.3 33.7L110.6 34.5C106.9 26.8 100.2 21 92.2003 18.9C92.0003 19.5 91.9003 20 91.6003 20.6C98.7003 22.3 104.8 27.2 108.3 33.7Z" fill="#00494E"/>
<path d="M60.4004 34.4L62.7004 33.6C66.3004 27.2 72.4004 22.3 79.4004 20.5C79.3004 19.9 79.1004 19.3 78.8004 18.8C70.8004 20.8 64.1004 26.6 60.4004 34.4Z" fill="#00494E"/>
<path d="M103 21.9C104.7 21.9 104.7 19.3 103 19.3C101.4 19.2 101.4 21.9 103 21.9Z" fill="#00494E"/>
<path d="M97.2003 18.6C98.9003 18.6 98.9003 16 97.2003 16C95.5003 16 95.5003 18.6 97.2003 18.6Z" fill="#00494E"/>
<path d="M93.9004 17.3C95.6004 17.3 95.6004 14.7 93.9004 14.7C92.4004 14.8 92.4004 17.5 93.9004 17.3Z" fill="#00494E"/>
<path d="M100.2 20C101.9 20 101.9 17.4 100.2 17.4C98.5003 17.5 98.5003 20 100.2 20Z" fill="#00494E"/>
<path d="M105.7 24C107.4 24 107.4 21.4 105.7 21.4C104 21.5 104 24 105.7 24Z" fill="#00494E"/>
<path d="M112.2 33.7C112.2 35.4 114.8 35.4 114.8 33.7C114.8 32 112.2 32 112.2 33.7Z" fill="#00494E"/>
<path d="M110.7 30.6C110.7 32.3 113.3 32.3 113.3 30.6C113.4 29 110.7 29 110.7 30.6Z" fill="#00494E"/>
<path d="M108 26.4C109.7 26.4 109.7 23.8 108 23.8C106.3 23.8 106.3 26.4 108 26.4Z" fill="#00494E"/>
<path d="M108.9 27.7C108.9 29.4 111.5 29.4 111.5 27.7C111.5 26.1 108.9 26.1 108.9 27.7Z" fill="#00494E"/>
<path d="M68.0004 21.9C69.7004 21.9 69.7004 19.3 68.0004 19.3C66.5004 19.2 66.5004 21.9 68.0004 21.9Z" fill="#00494E"/>
<path d="M65.4004 24C67.1004 24 67.1004 21.4 65.4004 21.4C63.7004 21.4 63.8004 24 65.4004 24Z" fill="#00494E"/>
<path d="M57.5004 34.9C59.2004 34.9 59.2004 32.3 57.5004 32.3C55.8004 32.3 55.8004 34.9 57.5004 34.9Z" fill="#00494E"/>
<path d="M70.9004 20C72.6004 20 72.6004 17.4 70.9004 17.4C69.2004 17.5 69.2004 20 70.9004 20Z" fill="#00494E"/>
<path d="M61.0004 29.1C62.7004 29.1 62.7004 26.5 61.0004 26.5C59.3004 26.5 59.3004 29.1 61.0004 29.1Z" fill="#00494E"/>
<path d="M59.1003 31.9C60.8003 31.9 60.8003 29.3 59.1003 29.3C57.4003 29.3 57.4003 31.9 59.1003 31.9Z" fill="#00494E"/>
<path d="M77.1003 17.3C78.8003 17.3 78.8003 14.7 77.1003 14.7C75.5003 14.8 75.5003 17.5 77.1003 17.3Z" fill="#00494E"/>
<path d="M63.1003 26.4C64.8003 26.4 64.8003 23.8 63.1003 23.8C61.4003 23.8 61.4003 26.4 63.1003 26.4Z" fill="#00494E"/>
<path d="M73.9004 18.6C75.6004 18.6 75.6004 16 73.9004 16C72.3004 16 72.3004 18.6 73.9004 18.6Z" fill="#00494E"/>
<path d="M87.8004 30.4H89.5004C89.5004 25 90.3003 20.3 91.7003 17.2C92.1003 16.2 90.6003 15.5 90.1003 16.5C88.0003 21 87.8004 27.2 87.8004 30.4Z" fill="#00494E"/>
<path d="M81.6003 30.4H83.3004C83.3004 27.2 83.0004 21 81.0004 16.6C80.6004 15.6 79.0004 16.3 79.4004 17.3C80.9004 20.4 81.6003 25.1 81.6003 30.4Z" fill="#00494E"/>
<path d="M85.6003 30.4C87.4003 30.4 87.4003 27.6 85.6003 27.6C83.8003 27.6 83.8003 30.4 85.6003 30.4Z" fill="#00494E"/>
<path d="M85.6003 27C87.4003 27 87.4003 24.2 85.6003 24.2C83.8003 24.2 83.8003 27 85.6003 27Z" fill="#00494E"/>
<path d="M85.6003 23.5C87.4003 23.5 87.4003 20.7 85.6003 20.7C83.8003 20.7 83.8003 23.5 85.6003 23.5Z" fill="#00494E"/>
<path d="M84.5004 20C85.1004 19.7 85.8004 19.7 86.5004 20C88.5004 17 82.5004 17 84.5004 20Z" fill="#00494E"/>
<path d="M86.7003 17.1C88.3003 14.2 82.9004 14.2 84.5004 17.1C85.1004 16.8 86.0003 16.8 86.7003 17.1Z" fill="#00494E"/>
<path d="M84.7003 5.5C84.4003 7.3 83.5004 8.6 82.3004 8.9V9.3H84.5004C84.4004 9.4 84.3003 9.5 84.2003 9.5C80.2003 10.4 79.7003 16.5 83.6003 18C82.1003 16.5 83.3004 13.8 85.4004 13.9C87.5004 13.8 88.6003 16.6 87.2003 18C91.0003 16.5 90.7003 10.4 86.6003 9.5C86.5003 9.4 86.4004 9.3 86.3004 9.3H88.5004V8.9C87.4004 8.6 86.4003 7.3 86.2003 5.5C88.0003 5.7 89.3003 6.6 89.6003 7.8H90.0004V1.5H89.7003C89.5003 2.6 88.1004 3.6 86.3004 3.8C86.5004 2 87.4003 0.7 88.6003 0.4V0H82.4004V0.4C83.5004 0.6 84.5003 2 84.7003 3.8C82.9003 3.6 81.6004 2.7 81.3004 1.5H80.9004V7.8H81.4004C81.5004 6.6 83.0003 5.7 84.7003 5.5Z" fill="#00494E"/>
<path d="M140.2 103.8C140.1 103.6 140 103.4 139.8 103.1C139.8 103.3 139.9 103.6 140.2 103.8Z" fill="#00494E"/>
<path d="M139 106.5C137.2 105.4 136.2 110.3 135.5 111.2C135.2 111.9 135.5 112.7 136.2 112.9L134.9 115.6C134.2 115.5 133.6 116 133.6 116.8C133.8 117.8 132.8 122.5 134.7 122.5V123.7C130.2 124.5 130.9 131.6 135.5 131.5C140.1 131.6 140.9 124.6 136.4 123.7V122.5C137.1 122.6 137.7 122.1 137.7 121.3C137.5 120.3 138.4 115.8 136.8 115.6L137.8 113.5C139.5 114.4 140.5 109.6 141.2 108.8C141.5 108.1 141.3 107.3 140.6 107.1L141.4 105.5C141.2 105.3 140.7 104.6 140.3 103.9L139 106.5ZM138.3 127.6C137.2 134 129 127.7 134.9 125C135.1 125.6 136.1 125.7 136.4 125C137.5 125.3 138.3 126.4 138.3 127.6ZM136.4 121.1C136.5 120.2 135.4 119.6 134.8 120.4C134.9 120.1 134.5 116.6 135.1 116.6C135.3 116.8 135.8 116.8 136 116.6C136.2 116.6 136.3 116.8 136.3 117V120.7C136.5 121 136.5 121.1 136.4 121.1ZM139.8 108.6C139.6 108.8 138.3 112.4 137.9 112.3C137.7 112 137.3 111.9 137 112C136.8 111.9 136.8 111.7 136.9 111.4C137.1 111.2 138.4 107.5 138.9 107.7C139 108 139.5 108.3 139.8 108.1C139.9 108.3 139.9 108.5 139.8 108.6Z" fill="#00494E"/>
<path d="M104.6 87.3H105.8V68.5H88.6003V87.2H104.6V87.3ZM89.1003 78.8V79C89.1003 78.7 89.7004 78.9 89.4004 79.1L89.5004 79.2C90.1004 79.3 90.2003 78.4 89.6003 78.4L90.3004 78.1V77.9L89.6003 77.6C90.2003 77.6 90.0004 76.7 89.5004 76.8V76.9C89.8004 77.1 89.2003 77.3 89.2003 77V77.2V69.6H89.8004V69H96.2003C96.5003 69.1 96.2004 69.6 96.0004 69.3L95.9004 69.4C95.8004 70 96.8004 70 96.8004 69.4L97.1003 70.1H97.3004L97.6003 69.4C97.6003 70 98.5004 70 98.5004 69.4L98.4004 69.3C98.2004 69.5 97.8003 69.1 98.2003 69H104.7V69.6H105.3C105.2 69.5 105.5 78.8 105 76.7L104.9 76.6C104.3 76.5 104.2 77.4 104.8 77.4L104.1 77.7V77.9L104.8 78.2C104.2 78.2 104.4 79.1 104.9 79L105 78.9C105.6 76.8 105.2 86.3 105.3 86H104.7V86.6H98.3004C98.0004 86.6 98.2004 86 98.4004 86.3L98.5004 86.2C98.6004 85.6 97.6003 85.6 97.6003 86.1L97.3004 85.4H97.1003L96.8004 86.1C96.8004 85.5 95.9004 85.7 95.9004 86.2L96.0004 86.3C96.2004 86.1 96.6003 86.5 96.1003 86.6H89.8004V86H89.2003V78.8H89.1003Z" fill="#00494E"/>
<path d="M108.3 88C108.3 87.7 107.9 87.3 107.5 87.4V87.5C106.8 90.6 107.2 77.9 107.1 78.3L107.8 78.5V77L107.1 77.2V67.8C107.2 67.4 107.9 67.7 107.5 68V68.1C108.4 68.3 108.6 67 107.7 67L108.3 66L108.2 65.9L107.2 66.5C107.2 65.6 105.7 65.8 106 66.7H106.1C106.4 66.4 106.9 67 106.3 67.1H97.7003L97.9004 66.5H96.4004L96.6003 67.1H88.0004C87.4004 67 87.9003 66.3 88.2003 66.7H88.3004C88.6004 65.9 87.1003 65.7 87.1003 66.5L86.1003 65.9L86.0004 66L86.6003 67C85.7003 67 85.9004 68.5 86.8004 68.1V68C87.5004 64.9 87.1003 77.6 87.2003 77.2L86.5004 77V78.5L87.2003 78.3C87.1003 78.1 87.4004 90.5 86.8004 87.5V87.4C85.9004 87.2 85.7003 88.5 86.6003 88.5L86.0004 89.5L86.1003 89.6L87.1003 89C87.1003 89.9 88.6004 89.7 88.3004 88.8H88.2003C88.1003 89 87.8004 88.9 87.8004 88.7C87.8004 88.6 87.9004 88.5 88.0004 88.5H96.7003L96.5004 89.1H98.1003L97.9004 88.5H106.5C106.6 88.5 106.7 88.6 106.7 88.7C106.7 88.9 106.4 89 106.3 88.8H106.2C106 89.6 107.4 89.8 107.4 89L108.4 89.6L108.5 89.5L107.9 88.5C108.1 88.6 108.3 88.4 108.3 88ZM106.6 67.8V88H87.8004V67.8H106.6Z" fill="#00494E"/>
<path d="M26.5004 43.4L26.9004 43.1C27.0004 41.4 27.9004 39.9 29.2004 38.9C29.1004 38.8 29.0004 38.7 29.0004 38.6C27.5004 39.6 26.6004 41.4 26.5004 43.4Z" fill="#00494E"/>
<path d="M30.6004 41L31.0004 40.9C30.8004 40.1 30.1004 38.8 29.3004 38C29.1004 37.8 28.9004 38.1 29.0004 38.3C29.6004 38.8 30.2004 39.8 30.6004 41Z" fill="#00494E"/>
<path d="M26.9004 39.6C27.7004 39.6 27.7004 38.4 26.9004 38.4C26.1004 38.4 26.1004 39.6 26.9004 39.6Z" fill="#00494E"/>
<path d="M38.8004 36.9C38.2004 37.5 37.3004 36.6 37.9004 36C38.4004 35.6 39.3004 36.3 38.8004 36.9Z" fill="#00494E"/>
<path d="M40.0004 38C39.4004 38.6 38.5003 37.7 39.1003 37.1C39.6003 36.6 40.5004 37.5 40.0004 38Z" fill="#00494E"/>
<path d="M34.3004 36C33.7004 36.6 32.8004 35.7 33.4004 35.1C33.8004 34.5 34.8004 35.4 34.3004 36Z" fill="#00494E"/>
<path d="M37.3004 36.3C36.7004 36.9 35.8004 36 36.4004 35.4C37.0004 34.9 38.0004 35.7 37.3004 36.3Z" fill="#00494E"/>
<path d="M38.9004 38.2L38.3004 38.3C37.0004 37.2 35.3004 36.7 33.7004 37C33.7004 36.9 33.7003 36.7 33.6003 36.6C35.4003 36.3 37.3004 36.9 38.9004 38.2Z" fill="#00494E"/>
<path d="M34.2004 39.5L33.9004 39.7C33.6004 39 33.0004 37.6 33.0004 36.5C33.0004 36.3 33.4004 36.2 33.4004 36.5C33.3004 37.2 33.6004 38.3 34.2004 39.5Z" fill="#00494E"/>
<path d="M35.9004 35.9C35.3004 36.5 34.4004 35.6 35.0004 35C35.4004 34.5 36.4004 35.3 35.9004 35.9Z" fill="#00494E"/>
<path d="M102.5 102.6C104.3 102.6 108.4 100.6 105.4 98.9C103.7 98.6 102 99.5 100.4 99.8C93.8004 102.4 97.7003 99.2 93.6003 99.6C94.9003 103.1 98.4003 101.3 101.1 100.5C101.2 100.8 100.7 100.9 100.8 101.4C101.7 101.2 102.5 101.1 103.4 100.8C103.7 99.1 106.9 99.1 105.4 100.8C101.8 102.4 97.6004 102 93.8004 103.1C91.2004 109.7 86.9004 105.2 87.0004 107.1C86.0004 107.2 86.0004 108.1 87.0004 108.1C87.0004 110 91.9004 107.8 92.8004 107.2C93.0004 106.8 93.2004 106.3 93.5004 105.9C95.0004 106.6 96.1004 104.4 97.3004 104.1C98.5004 103.9 100.2 102.6 101.3 103.8C102.5 105.1 104.3 103.1 105.4 104.5C105 105.5 105.5 105.1 105.7 105.7C105.7 106.3 106.7 106.3 106.7 105.7C106.7 105.5 106.7 105.3 107 105.1C107.6 104.3 106.4 103.4 106 102.6C104.9 101.9 103.4 103.5 102.5 102.6Z" fill="#00494E"/>
<path d="M86.3004 99.7C86.6004 99.8 86.5003 100.1 86.6003 100.4C88.2003 100.5 89.7004 100.1 91.3004 100C92.4004 100 92.4004 99 93.3004 98.9C95.3004 99 96.7004 97.2 98.5004 96.9C100.1 96.5 102.2 95.9 103.5 97C103.8 97.3 104.3 97.4 104.8 97.3C105.5 97.2 106.3 97.1 106.6 97.9L106.3 98.2C106.4 98.3 106.4 98.5 106.5 98.6C106.8 98.6 106.8 98.8 106.9 99C107.1 99.3 107.5 99.3 107.6 99C107.7 98.7 108 98.8 108.2 98.6C108.3 97.6 108.1 96.5 107.1 96C106.7 95.6 104.8 96.4 104.8 95.6C106.1 95.9 108.8 94.1 107 92.9C103.9 92.2 100.5 93.7 97.4004 94C96.2004 94.2 96.8004 92.3 94.0004 92.8C95.8004 96.5 99.5004 93.9 102.5 93.8C102.5 94.1 101.9 94.1 102.1 94.5C103 94.3 104.4 94.7 104.9 93.8C105.1 92.8 107.4 93 106.7 94.2C105 95.2 102.7 94.8 100.7 95C98.4003 95.2 95.8003 95.2 93.6003 96.1C93.2003 97.4 92.6004 98.9 91.0004 99.2C89.9004 98.1 88.3003 99.4 87.1003 98.3C86.8003 98.4 86.7004 98.6 86.5004 98.9C85.9004 99 85.7004 99.3 86.3004 99.7Z" fill="#00494E"/>
<path d="M103.6 109.3C100.5 108.9 101 111 99.5004 110.5C99.7004 110.2 100.5 109.9 100.3 109.5C98.1004 110.5 95.7004 111.2 93.4004 112.2C92.3004 113.4 92.6004 115.9 90.0004 116.1C89.9004 117.3 88.1003 118.2 87.1003 117.7C86.7003 118.1 86.9004 118.3 86.9004 118.6C86.6004 118.9 86.0004 119.7 86.8004 119.7C87.0004 119.7 87.2004 119.3 87.5004 119.4C87.5004 119.5 87.5004 119.7 87.4004 120C87.6004 120 87.8004 120.1 88.0004 120C88.3004 119.6 88.9003 119.9 89.2003 119.6C90.5003 118.7 92.4004 117.9 92.3004 116C94.6004 115 96.0004 111.2 99.0004 112.5C100.5 113.3 100.9 110.8 102.2 110.8C102.5 111.7 102.8 111.6 103.2 111.4C104.1 112.1 103.9 111.1 104.2 110.5C104.5 109.8 104.1 109.3 103.6 109.3Z" fill="#00494E"/>
<path d="M89.7003 94.4C89.3003 95.9 89.7004 97.6 91.0004 98.4C92.5004 97.7 93.5004 95.8 92.9004 94.2C93.2004 93.9 93.7003 93.8 93.6003 93.3C93.4003 92.7 92.5004 93.2 92.3004 92.5C91.7004 91.7 91.0004 92.4 90.5004 92.8C90.2004 92.8 89.8004 92.7 89.5004 92.8C89.2004 93.5 90.1003 93.9 89.7003 94.4Z" fill="#00494E"/>
<path d="M89.3004 114.1C90.8004 117.6 92.9004 113.2 92.4004 111.3C93.4004 110.5 93.1004 110 92.0004 110C91.6004 109.1 90.7004 109 90.0004 109.8C89.8004 110 89.4003 110 89.1003 110C88.4003 110.3 88.9004 111 89.3004 111.1C89.1004 111.9 88.9004 112.9 89.3004 114.1Z" fill="#00494E"/>
<path d="M93.3004 101.2C93.0004 101.1 92.6004 101 92.4004 101.1C91.8004 99.8 90.9003 100.3 90.2003 101.1C89.1003 100.7 89.2004 101.7 89.9004 102.2C89.3004 103.5 89.7003 105.6 91.1003 106.2C92.7003 105.5 93.1004 103.7 93.0004 102.2C93.5004 102 93.8004 101.4 93.3004 101.2Z" fill="#00494E"/>
<path d="M104.3 105.7C101.5 104.8 97.3004 110.7 95.4004 109.1C95.0004 108.1 93.6003 108.2 92.7003 108.5C93.7003 109.3 94.3004 110.8 95.8004 110.4C97.6004 110.1 98.9004 108.6 100.5 107.9C100.5 108.5 100.1 108.7 99.8004 109.1C100.8 108.8 101.8 108.4 102.6 107.8C102.5 104.9 106.6 106.9 102.6 108.7C103.3 108.7 103.8 109 104.3 108.5C105.3 107.6 105.3 106.5 104.3 105.7Z" fill="#00494E"/>
<path d="M98.1003 112.4C97.3003 112.6 96.5004 112.6 96.0004 113.5C96.2004 113.7 96.4003 114.1 96.6003 114.3C96.3003 115.3 95.3004 115.1 94.3004 115.2C94.4004 115.5 94.4004 115.6 94.5004 115.9C94.1004 116.1 93.9003 116.5 94.1003 116.9C94.2003 116.9 94.3004 117 94.4004 117C94.6004 116.7 95.2004 116.3 95.3004 117C97.0004 116.4 98.5004 115.4 99.3004 113.9C98.7004 113.5 98.3003 113.1 98.1003 112.4Z" fill="#00494E"/>
<path d="M95.8004 106.5C95.5004 106.5 95.4003 106.9 95.6003 107.2C95.8003 107.4 96.0004 107.2 96.4004 107.3V107.7C97.9004 107.8 100.1 106.5 100.9 105.2C100.6 104.8 100.3 104.3 100 103.7C99.2004 103.9 98.3004 103.9 97.8004 104.7C98.1004 105 98.4003 105.3 98.6003 105.6C98.0003 105.9 97.5004 106.4 96.8004 105.9C96.6004 105.7 95.9004 105.8 96.0004 106.2V106.4C96.0004 106.5 95.9004 106.5 95.8004 106.5Z" fill="#00494E"/>
<path d="M89.6003 115.4C89.0003 114.3 88.1004 113.4 87.8004 112.3C88.2004 111.6 88.0003 110.7 87.1003 111.3C86.9003 110.9 86.5003 110.7 86.1003 110.9C86.0003 111.2 85.9003 111.5 86.2003 111.7V111.8C86.1003 111.8 86.0004 111.9 85.9004 111.9C85.7004 112.5 86.2004 112.8 86.5004 113.2C87.1004 114.3 88.1003 116.7 89.6003 115.4Z" fill="#00494E"/>
<path d="M89.6003 97.9C89.5003 96.4 87.8004 95.4 88.4004 94C88.5004 93.8 88.5003 93.4 88.2003 93.2C87.9337 93.2667 87.6337 93.2333 87.3004 93.1C86.6004 92.8 86.5003 93.4 86.6003 94C86.5003 94.1 86.4003 94.1 86.2003 94.2C86.6003 95.3 87.9003 98.5 89.6003 97.9Z" fill="#00494E"/>
<path d="M86.2003 102.9C86.9003 103.9 87.0003 105.4 88.1003 105.9C88.5003 105.9 89.3003 106.3 89.7003 105.8C89.4003 104.7 88.0003 104 88.1003 102.7C88.2003 102.4 88.1004 102.1 87.8004 101.8C87.2004 101.9 86.1003 100.7 86.6003 102.2C86.2003 102.3 86.0003 102.6 86.2003 102.9Z" fill="#00494E"/>
<path d="M61.9004 73.3C62.1004 73.3 62.3003 73.1 62.6003 73.3C62.6003 73.4 62.6004 73.5 62.5004 73.6C64.0004 74.3 65.6003 73.5 67.2003 73.2C67.8003 73 68.1004 72.4 68.8004 72.4C70.4004 72.5 71.3004 71.2 72.5004 70.8C74.2004 70.5 75.7004 70.2 77.4004 70.2C79.3004 72.8 79.6004 70.6 81.4004 71.4C81.4004 71.6 81.3004 71.8 81.3004 72.2C81.5004 72.3 81.6003 72.3 81.7003 72.3C81.5003 73 82.5003 73.3 82.6003 72.5C82.6003 72.4 82.6003 72.3 82.7003 72.3C83.7003 71.7 82.1004 69.1 81.0004 69.7C80.4004 69.9 79.8004 70.3 79.3004 69.6C80.3004 69.3 81.4003 69.3 82.1003 68.4C82.5003 67.8 82.5003 66.6 81.7003 66.3C79.4003 65.6 76.8004 66.9 74.3004 67.1C69.7004 68.3 73.0004 66.1 69.4004 66.1C70.7004 69.8 74.5003 67.4 77.2003 67.1C77.0003 67.5 76.5004 67.7 76.4004 68.1C77.4004 67.9 78.6004 68.3 79.3004 67.5C79.6004 66.5 82.1004 66.4 81.5004 67.7C79.3004 69.9 72.1004 67.8 68.9004 69.3C68.5004 70.8 67.6003 71.8 66.2003 72.1C65.1003 71.4 64.5004 72.2 63.4004 71.9C63.1004 71.6 62.7004 71.1 62.3004 71.6V72.2C61.9004 72.2 61.3004 73 61.9004 73.3Z" fill="#00494E"/>
<path d="M65.8004 67.7C64.9004 69.3 65.2003 70.6 66.2003 71.9C68.1003 72 68.9004 69.4 68.5004 67.9C68.7004 67.8 68.8003 67.7 69.1003 67.5C69.1003 67.3 69.0004 67.2 69.0004 66.9H68.1003C67.4003 66 67.0003 66 66.2003 66.8C65.8003 66.6667 65.5004 66.7333 65.3004 67C65.3004 67.3 65.4004 67.5 65.8004 67.7Z" fill="#00494E"/>
<path d="M74.9004 71C74.8004 71.4 75.2003 71.7 75.2003 72C74.8003 72.3 74.2003 72.3 73.6003 72.4C73.3003 72.1 73.2003 71.6 72.7003 71.7C72.5003 71.8 72.6004 72 72.4004 72.1C72.0004 72.1 71.767 72.3 71.7003 72.7C71.8003 72.8 72.0004 72.9 72.3004 73C71.9004 74.9 77.1004 72.9 77.9004 72.3C77.7004 71.9 77.3003 71.5 77.2003 71.1C77.1003 70.3 75.5004 71 74.9004 71Z" fill="#00494E"/>
<path d="M65.0004 71.2C64.9004 70.5 64.8003 69.7 64.2003 69.3C63.6003 68.6 63.4004 67.8 64.0004 67.2C63.7004 66.9 63.3004 67.2 63.0004 66.8C62.7004 66.4 62.4004 66.9 62.3004 67.4C61.2004 67.5 61.9003 68 62.1003 68.5C62.5003 69.3 63.8004 71.6 65.0004 71.2Z" fill="#00494E"/>
<path d="M81.0004 78.4C80.4004 78.6 79.7004 79 79.3004 78.3C80.3004 78 81.4003 78 82.1003 77.1C82.5003 76.5 82.5003 75.3 81.7003 75C79.2003 74.3 76.7004 75.6 74.3004 75.8C69.7004 77 73.0004 74.8 69.4004 74.8C70.7004 78.5 74.6004 76.1 77.3004 75.8C77.1004 76.2 76.6004 76.4 76.5004 76.8C77.5004 76.6 78.7004 77 79.4004 76.2C79.7004 75.2 82.2003 75.1 81.6003 76.4C79.3003 78.6 72.1004 76.5 69.0004 78C68.6004 79.5 67.7004 80.5 66.3004 80.8C65.1004 80.4 64.5004 80.8 63.7004 80.8C63.7004 81 63.8004 81.4 63.9004 81.6V82.4C64.9004 82.3 65.8004 82 66.8004 81.7C67.4004 81.5 67.7004 80.9 68.4004 80.9C70.0004 81 70.9003 79.7 72.2003 79.3C73.9003 79 75.6003 78.7 77.2003 78.7C79.1003 81.4 79.4003 79.1 81.2003 80C81.2003 80.2 81.1003 80.6 81.1003 80.8C81.3003 80.9 81.4004 80.9 81.5004 80.9C81.3004 81.6 82.3004 81.9 82.4004 81.1C82.4004 81 82.4004 80.9 82.5004 80.9C83.7004 80.4 82.1004 77.7 81.0004 78.4Z" fill="#00494E"/>
<path d="M65.6003 76.1C64.7003 77.7 65.0004 79 66.0004 80.3C67.9004 80.4 68.7004 77.8 68.3004 76.3C68.5004 76.2 68.6004 76.1 68.9004 75.9C68.9004 75.7 68.8004 75.6 68.8004 75.3H67.9004C67.2004 74.4 66.8004 74.4 66.0004 75.2C65.6004 75.0667 65.3003 75.1667 65.1003 75.5C65.1003 75.8 65.2003 76 65.6003 76.1Z" fill="#00494E"/>
<path d="M74.7003 79.4C74.6003 79.8 75.0004 80.1 75.0004 80.4C74.6004 80.7 74.0004 80.7 73.4004 80.7C73.1004 80.4 73.0004 79.9 72.5004 80C72.3004 80.1 72.4003 80.3 72.2003 80.4C71.8003 80.4 71.567 80.6 71.5004 81C71.6004 81.1 71.8003 81.2 72.1003 81.3C71.7003 83.2 77.0004 81.2 77.8004 80.6C77.6004 80.2 77.2003 79.8 77.1003 79.4C77.0003 78.8 75.4003 79.4 74.7003 79.4Z" fill="#00494E"/>
<path d="M64.8004 79.7C64.7004 79 64.6004 78.2 64.0004 77.8C63.4004 77.1 63.2004 76.3 63.8004 75.7C63.5004 75.4 63.1004 75.7 62.8004 75.3C62.5004 74.9 62.1003 75.4 62.1003 75.9C61.0003 76 61.7004 76.5 61.9004 77C62.3004 77.8 63.5004 80.1 64.8004 79.7Z" fill="#00494E"/>
<path d="M81.1003 86.4C80.5003 86.6 79.8004 87 79.4004 86.3C80.4004 86 81.5003 86 82.2003 85.1C82.6003 84.5 82.6004 83.3 81.8004 83C79.3004 82.3 76.8004 83.6 74.4004 83.8C69.8004 85 73.1004 82.8 69.5004 82.8C70.8004 86.5 74.7004 84.1 77.4004 83.8C77.2004 84.2 76.7003 84.4 76.6003 84.8C77.6003 84.6 78.8004 85 79.5004 84.2C79.8004 83.2 82.3003 83.1 81.7003 84.4C79.5003 86.6 72.2003 84.5 69.1003 86C68.7003 87.5 67.8004 88.5 66.4004 88.8C65.3004 88.1 64.7003 88.9 63.6003 88.6C63.5003 88.5 63.4004 88.4 63.3004 88.3C63.3004 88.3 63.2004 88.3 63.2004 88.2C63.2004 88.2 63.1003 88.2 63.1003 88.1C63.1003 88.8 63.0004 89.4 62.7004 90C64.2004 90.6 65.8004 89.9 67.3004 89.4C67.9004 89.2 68.2004 88.6 68.9004 88.6C70.5004 88.7 71.4003 87.4 72.7003 87C74.4003 86.7 76.1003 86.4 77.7003 86.4C79.6003 89.1 79.9003 86.8 81.7003 87.7C81.7003 87.9 81.6003 88.3 81.6003 88.5C81.8003 88.6 81.9004 88.6 82.0004 88.6C81.8004 89.3 82.8004 89.6 82.9004 88.8C82.9004 88.7 82.9004 88.6 83.0004 88.6C83.8004 88.4 82.2003 85.6 81.1003 86.4Z" fill="#00494E"/>
<path d="M65.8004 84C64.9004 85.6 65.2003 86.9 66.2003 88.2C68.1003 88.3 68.9004 85.7 68.5004 84.2C68.7004 84.1 68.8003 84 69.1003 83.8C69.1003 83.6 69.0004 83.5 69.0004 83.2H68.1003C67.4003 82.3 67.0003 82.3 66.2003 83.1C65.8003 82.9667 65.5004 83.0667 65.3004 83.4C65.2004 83.7 65.4004 83.9 65.8004 84Z" fill="#00494E"/>
<path d="M74.9004 87.4C74.8004 87.8 75.2003 88.1 75.2003 88.4C74.6003 88.7 74.2003 88.7 73.6003 88.8C73.3003 88.5 73.2003 88 72.7003 88.1C72.4003 88.2 72.6004 88.4 72.4004 88.5C72.0004 88.5 71.767 88.7 71.7003 89.1C71.8003 89.2 72.0004 89.3 72.3004 89.4C71.9004 91.3 77.2004 89.3 78.0004 88.7C77.8004 88.3 77.4004 87.9 77.3004 87.5C77.2004 86.7 75.6004 87.4 74.9004 87.4Z" fill="#00494E"/>
<path d="M64.2003 85.7L63.9004 85.4C63.9004 85.7 64.0004 86.2 64.0004 86.5C64.0004 86.7 63.9004 87.2 63.8004 87.4C64.2004 87.8 64.5004 87.8 64.9004 87.7C65.0004 86.9 64.8003 86.1 64.2003 85.7Z" fill="#00494E"/>
<path d="M91.8004 72C92.2004 72.2 92.5004 73.5 92.8004 73.7C93.2004 74.4 94.3004 75.9 95.3004 75.6C95.6004 75.5 95.9004 74.7 95.9004 74.5L95.6003 74.2C94.7003 73.4 94.1003 72.6 94.1003 72C94.1003 71.8 94.7004 71.4 94.5004 71.2C94.5004 70.4 93.8004 71.3 93.5004 71.2C93.4004 71 92.8004 70.3 92.5004 70.6C92.3004 70.7 92.5004 71.2 92.4004 71.3C92.3004 71.4 92.3003 71.4 92.1003 71.4C91.2003 71.3 91.1004 71.7 91.8004 72Z" fill="#00494E"/>
<path d="M95.6003 77.5C95.8003 77.3 96.6003 76.5 96.6003 76.4C96.7003 76.3 96.7003 76.2 97.2003 76.2C98.7003 76 99.3004 75.4 99.8004 73.9C100 73.5 99.8004 72.4 99.5004 72.2C99.4004 72.1 99.4004 72 99.4004 72C99.6004 72 100.2 71.8 100.3 71.4C100.2 71.1 99.7004 71.3 99.3004 71.2C99.0004 71 98.0004 70.8 97.5004 71C97.2004 71.3 95.6004 71.3 95.8004 71.9C95.9004 72.1 96.0004 72.5 96.0004 72.5L96.8004 72.6V73.2C96.8004 73.2 96.2003 73.3 96.1003 73.3C95.7003 74 97.2003 74 97.6003 73.5C97.8003 73.2 98.3004 73.2 98.3004 73.5C98.1004 73.9 97.4004 74.2 97.0004 74.4C96.3004 74.5 96.2003 75.7 95.7003 76.2C94.4003 76.4 93.8004 76.4 92.5004 75.3C92.1004 74.7 91.6004 75.2 91.9004 75.6C91.7004 75.7 90.3004 74.9 91.0004 76.2L91.1003 76.3C90.4003 77.2 91.4004 76.9 91.9004 77.2C92.9004 77.4 94.2003 77.8 95.6003 77.5Z" fill="#00494E"/>
<path d="M100.1 76.7L100.7 77.9C100.7 77.9 101.9 78.5 102.2 78.7C102.9 79.3 102.8 80.6 102.2 80.5C101.2 80.1 100.5 78.6 99.9004 77.7C99.7004 77.6 99.2004 76 98.9004 76.5C94.5004 77.5 99.7004 78.6 98.9004 80.2C98.8004 80.4 98.2004 81.5 98.5004 81.8C98.8004 82.2 99.7003 82.6 100.1 83.1C100.8 83.8 100.2 84.6 99.3004 83.9C98.9004 83.6 98.2003 84 98.7003 84.6C98.7003 84.7 98.4004 84.8 98.4004 84.8C97.8004 85.5 98.7003 85.5 99.2003 85.1C99.4003 85 99.2003 85.8 99.6003 85.5C100.4 85.3 101.6 84.9 101.8 83.7C102.2 82.6 101.1 82.8 100.9 81.8C100.6 81.4 100.6 79.9 101.2 80.5C101.8 81.2 102.5 81.6 103.2 80.9C103.9 80.3 103.3 78.8 103 78.1C102.3 76.8 101.7 75.5 101.7 74C102.6 73 103.6 74.8 104.2 71.9C102.2 72 100.2 73.4 101.2 75.7C101.4 77 101.3 77 100.1 76.7Z" fill="#00494E"/>
<path d="M96.8004 79.1C95.7004 79.1 94.9003 79 95.2003 80.2C95.3003 80.5 95.4004 81.4 95.5004 81.7C95.6004 81.8 95.6004 81.9 95.5004 82C95.1004 82.2 93.4003 81.6 93.6003 81C93.6003 80.6 93.2004 80.4 93.0004 80.8C92.9004 80.9 92.8003 80.9 92.7003 80.8C92.4003 80.4 91.9003 80.9 92.1003 81.2C92.2003 81.3 92.1004 81.4 91.9004 81.5C91.5004 81.7 91.5003 82.3 92.1003 82.3C93.4003 83 94.7003 83.6 96.2003 83.4C98.0003 83.3 97.1004 83 97.0004 81.7C96.7004 80.4 99.0004 79.7 96.8004 79.1Z" fill="#00494E"/>
<path d="M98.4004 97.8C98.3004 97.7 98.0004 97.8 98.0004 97.9C98.0004 98.5 97.3003 98.3 97.2003 98.7C97.3003 98.9 97.5004 99.1 97.8004 99.1C98.1004 99.1 98.1004 99.4 98.4004 99.5C99.9004 98.8 101.5 99.1 102.8 97.9C102.4 97.6 102.2 97 102.1 96.4C101.3 96.5 100.4 96.3 99.8004 96.7C99.7004 97 100 97.3 100.1 97.6C99.5003 97.9 99.0004 98 98.4004 97.8Z" fill="#00494E"/>
<path d="M121.4 81.7C120.8 80.5 119.5 73.7 117.6 75.2C126.3 91.4 120.5 112.7 105.4 123C100.9 125.7 95.5004 130.1 90.3004 127.1C93.7004 113.9 109.8 119.5 113.3 94.5C112.9 94.3 112.7 94.2 112.3 94.1C111.7 97.6 111 101 109.6 104.2C111.1 100.5 110.2 88.8 110.4 88.1C110.3 87.9 110.1 87.9 109.6 87.2C109.7 88.7 109.6 89.1 109.6 91H85.1003V65.4H109.2V79.8C109.2 79.9 109.3 80.6 109.3 80.8C109.5 80.4 109.7 80.1667 109.9 80.1V64.6H59.5004V77.7H60.3004V65.4H84.5004V90.9H61.1003C61.0003 91 61.1004 90.5 61.0004 90.6C61.0004 90.5 60.9004 91 60.9004 90.9H60.2004V88.9H59.4004C58.8004 90.8 60.4003 106.9 63.1003 109.7C57.9003 104.6 56.2004 95.5 57.2004 88.7C57.2004 88.7 56.8004 88.4 56.2004 87.8C54.5004 97.4 58.2004 106.9 64.9004 113.8C65.5004 114.5 66.1004 113.8 66.8004 113.6L66.1003 112.9C66.3003 113.1 66.5004 113.5 66.8004 113.6L66.5004 112.6C61.3004 108.6 60.4004 97 60.2004 91.7H84.4004V123.9C79.3004 123.7 75.8004 118.1 70.8004 118C77.9004 122.2 91.0004 132.4 99.3004 127.9C99.4004 128 99.3004 128 99.4004 128C98.5004 129.1 95.5003 131.1 94.2003 130.6C92.0003 129.3 88.5003 131.7 90.1003 134.2C90.3003 134.5 90.4003 134.8 90.2003 135.1C81.3003 134.2 73.2003 129 65.7003 124.4L65.6003 124.5C68.5003 128.4 78.8004 133.2 78.8004 133.2V139C78.8004 139 79.5004 139.4 79.9004 139.8V133.5C82.6004 134.4 88.1003 136.2 88.1003 136.2V140.1L89.1003 139.4V136.5L90.6003 136.1C91.5003 135.9 92.2003 135 92.1003 134C91.7003 133.8 91.3004 133.3 91.5004 132.8C91.7004 131.7 93.1003 131.7 93.6003 132.4C94.7003 132.8 95.8004 131.5 97.0004 131.3C98.6004 130.4 100.5 129.5 101.2 127.7C101.3 127.3 101.5 127 102 126.8C105.1 125 108.1 123 110.7 120.4C121.2 111.2 125.1 95.2 121.4 81.7ZM85.2003 91.6H109.8C111.8 110.4 100.9 116.6 85.2003 123.2V91.6ZM85.6003 125.1C87.4003 123.5 88.5003 123 90.7003 122.5C90.0003 123.8 89.5004 125.2 88.9004 126.6C87.8004 126.1 86.8003 125.7 85.6003 125.1Z" fill="#00494E"/>
<path d="M62.4004 126.9C48.6004 126.9 34.7004 132.8 20.7004 132.8C19.0004 132.8 17.3004 132.7 15.7004 132.6C20.1004 136 19.7004 142.8 26.0004 142.8H26.9004C35.4004 141.9 43.9004 139.4 52.3004 138.1C53.8004 137.9 60.7003 136.2 64.7003 136.2C66.2003 136.2 67.3003 136.4 67.6003 137C68.0003 137.8 65.3004 140.1 65.3004 140.2C65.5004 140.2 67.1003 139.3 68.2003 138.5C72.7003 135.4 63.2004 126.9 62.4004 126.9Z" fill="#00494E"/>
<path d="M146.3 132.8C144.5 132.8 142.9 132.8 142.1 132.7C132.9 131.8 123.9 129.2 114.7 127.8C112 127.4 109.9 127 108 127C104.1 127 101.5 128.7 98.4004 135.4C97.1004 138 101.5 140.3 102.5 140.4C98.8004 137.3 100.2 136.4 103.1 136.4C107.1 136.4 114.2 138.2 115.6 138.3C124 139.6 132.5 142 141 143H141.9C148.2 143 147.8 136.2 152.2 132.8C151.2 132.8 148.8 132.8 146.3 132.8Z" fill="#00494E"/>
<path d="M190.1 54.1H195.6C195.6 57.3 197.5 59 201.4 59C205.3 59 207.2 57.8 207.2 55.4C207.2 53.3 205.7 52.5 200.1 51.6C193.4 50.5 190.5 48 190.5 43.2C190.5 37.8 194.4 34.7 201.2 34.7C208 34.7 211.9 37.9 211.9 43.5H206.4C206.4 40.8 204.7 39.5 201.2 39.5C197.7 39.5 196 40.6 196 43C196 45.1 197.5 45.9 203.1 46.9C209.9 48.1 212.8 50.6 212.8 55.3C212.8 60.7 208.7 63.8 201.4 63.8C194.1 63.8 190.1 60.2 190.1 54.1Z" fill="#00494E"/>
<path d="M237.7 58.1V63.1H217.2V35.3H237.4V40.2H222.5V46.5H236.5V51.3H222.5V58H237.6V58.1H237.7Z" fill="#00494E"/>
<path d="M241 49.4C241 40.6 246.4 34.8 254.4 34.8C261.1 34.8 265.3 38.3 266.2 44.4V45.1H260.7C260.1 41.5 258 39.7 254.3 39.7C249.2 39.7 246.5 42.8 246.5 49.3C246.5 55.4 249.1 58.7 254.1 58.7C258.1 58.7 260.5 56.7 261.1 52.7H266.6V53.4C265.5 60 260.9 63.8 254.1 63.8C246.3 63.7 241 58.1 241 49.4Z" fill="#00494E"/>
<path d="M293.8 62.5V63.2H288C288 63.2 287.6 62 287.1 58.1C286.8 54.2 285.3 53.1 281.1 53.1H276.7V63.3H271.2V35.3H283.7C289.8 35.3 293.3 38.5 293.3 44.1C293.3 47.7 291.8 50 288.8 51.1C291 52 292 53.8 292.4 56.9C293.1 61.4 293.8 62.5 293.8 62.5ZM283.2 48.3C286.6 48.3 288 47.1 288 44.3C288 41.5 286.5 40.3 283.3 40.3H276.9V48.3H283.2Z" fill="#00494E"/>
<path d="M319.3 63.1H298.8V35.3H319.1V40.2H304.2V46.5H318.2V51.3H304.2V58H319.3V63.1Z" fill="#00494E"/>
<path d="M346.8 40.2H337.3V63.1H331.7V40.2H322.2V35.3H346.8V40.2Z" fill="#00494E"/>
<path d="M191.5 70.4H197.1V98.2H191.5V70.4Z" fill="#00494E"/>
<path d="M203.6 70.4H209.2L222.5 89.5H222.6V70.4H227.8V98.2H222.2L208.9 79.1H208.8V98.2H203.6V70.4Z" fill="#00494E"/>
<path d="M255.9 75.3H246.4V98.2H240.8V75.3H231.3V70.4H255.9V75.3Z" fill="#00494E"/>
<path d="M279.8 98.2H259.3V70.4H279.6V75.3H264.7V81.6H278.7V86.4H264.7V93.1H279.8V98.2Z" fill="#00494E"/>
<path d="M303.8 93.1V98.1H284.6V70.4H290.2V93.1H303.8Z" fill="#00494E"/>
<path d="M326.9 93.1V98.1H307.7V70.4H313.3V93.1H326.9Z" fill="#00494E"/>
<path d="M330.6 70.4H336.2V98.2H330.6V70.4Z" fill="#00494E"/>
<path d="M341.2 84.7C341.2 75.3 346.4 69.7 355 69.7C361.5 69.7 366.1 73.3 366.7 78.6V79.3H361.2C360.9 76.4 358.6 74.7 354.9 74.7C349.4 74.7 346.6 77.9 346.6 84.6C346.6 90.3 349.4 93.6 354.3 93.6C358.3 93.6 361.1 91.3 361.8 87.2H354.9V82.9H367.4V98.1H363V93.7H362.8C361.5 97.1 358.6 98.6 353.9 98.6C346.2 98.8 341.2 93.3 341.2 84.7Z" fill="#00494E"/>
<path d="M393.6 98.2H373.1V70.4H393.5V75.3H378.6V81.6H392.6V86.4H378.6V93.1H393.6V98.2Z" fill="#00494E"/>
<path d="M398.4 70.4H404L417.3 89.5H417.4V70.4H422.6V98.2H417L403.7 79.1H403.6V98.2H398.4V70.4Z" fill="#00494E"/>
<path d="M427.5 84.4C427.5 75.6 432.9 69.8 440.9 69.8C447.6 69.8 451.8 73.3 452.7 79.4V80.1H447.2C446.6 76.5 444.5 74.7 440.8 74.7C435.7 74.7 433 77.8 433 84.3C433 90.4 435.6 93.7 440.6 93.7C444.6 93.7 447 91.7 447.6 87.7H453.1V88.4C452 95 447.4 98.8 440.6 98.8C432.8 98.8 427.5 93.1 427.5 84.4Z" fill="#00494E"/>
<path d="M478.3 98.2H457.8V70.4H478.1V75.3H463.2V81.6H477.2V86.4H463.2V93.1H478.3V98.2Z" fill="#00494E"/>
<path d="M190.1 124.1H195.6C195.6 127.3 197.5 129 201.4 129C205.3 129 207.2 127.8 207.2 125.4C207.2 123.3 205.7 122.5 200.1 121.6C193.4 120.5 190.5 118 190.5 113.2C190.5 107.8 194.4 104.7 201.2 104.7C208 104.7 211.9 107.9 211.9 113.5H206.4C206.4 110.8 204.7 109.5 201.2 109.5C197.7 109.5 196 110.6 196 113C196 115.1 197.5 115.9 203.1 116.9C209.9 118.1 212.8 120.6 212.8 125.3C212.8 130.7 208.7 133.8 201.4 133.8C194.1 133.8 190.1 130.3 190.1 124.1Z" fill="#00494E"/>
<path d="M237.7 128.1V133.1H217.2V105.3H237.4V110.2H222.5V116.5H236.5V121.3H222.5V128H237.6V128.1H237.7Z" fill="#00494E"/>
<path d="M264.9 132.5V133.2H259.1C259.1 133.2 258.7 132 258.2 128.1C257.9 124.2 256.4 123.1 252.2 123.1H247.8V133.3H242.4V105.5H254.9C261 105.5 264.5 108.7 264.5 114.3C264.5 117.9 263 120.2 260 121.3C262.2 122.2 263.2 124 263.6 127.1C264.1 131.4 264.9 132.5 264.9 132.5ZM254.3 118.2C257.7 118.2 259.1 117 259.1 114.2C259.1 111.4 257.6 110.2 254.4 110.2H248V118.2H254.3Z" fill="#00494E"/>
<path d="M266.7 106V105.3H272.4L279.5 126.5H279.6L286.9 105.3H292.5V106L282.6 133.1H276.6L266.7 106Z" fill="#00494E"/>
<path d="M296 105.4H301.6V133.2H296V105.4Z" fill="#00494E"/>
<path d="M306.5 119.3C306.5 110.5 311.9 104.7 319.9 104.7C326.6 104.7 330.8 108.2 331.7 114.3V115H326.2C325.6 111.4 323.5 109.6 319.8 109.6C314.7 109.6 312 112.7 312 119.2C312 125.3 314.6 128.6 319.6 128.6C323.6 128.6 326 126.6 326.6 122.6H332.1V123.3C331 129.9 326.4 133.7 319.6 133.7C311.7 133.7 306.5 128 306.5 119.3Z" fill="#00494E"/>
<path d="M357.4 133.1H336.9V105.3H357.2V110.2H342.3V116.5H356.3V121.3H342.3V128H357.4V133.1Z" fill="#00494E"/>
<path d="M373.6 105.4H376.1L387 130.8H387.1L398 105.4H400.5V133.2H398.8V109.2L398.9 107.9H398.8L387.7 133.3H386.4L375.4 107.8H375.3V133.1H373.6V105.4Z" fill="#00494E"/>
<path d="M408.2 105.4H410V133.2H408.2V105.4Z" fill="#00494E"/>
<path d="M435 124.5C435 130 431.5 133.7 426.3 133.7C420.2 133.7 416.8 129.3 416.8 120.5C416.8 110.3 420.3 105 426.6 105C430.8 105 433.6 107.6 434.4 112V112.3H432.8C432.2 108.5 430.1 106.4 426.5 106.4C421 106.4 418.3 111.1 418.3 120.5V121.8C419.6 117.8 422.5 115.4 426.5 115.4C431.7 115.4 435 119 435 124.5ZM433.3 124.5C433.3 119.8 430.7 116.9 426.4 116.9C422.4 116.9 419.6 119.7 418.7 124.6C419.5 129.6 422.1 132.1 426.2 132.1C430.7 132.2 433.3 129.3 433.3 124.5Z" fill="#00494E"/>
</svg>
