<?xml version="1.0" encoding="UTF-8"?>
<svg id="Layer_1" xmlns="http://www.w3.org/2000/svg" version="1.1" viewBox="0 0 220 220">
  <!-- Generator: Adobe Illustrator 30.1.0, SVG Export Plug-In . SVG Version: 2.1.1 Build 136)  -->
  <defs>
    <style>
      .st0 {
        fill: #025055;
      }

      .st1 {
        fill: #fff;
      }
    </style>
  </defs>
  <rect class="st1" x=".33" y=".49" width="219.34" height="219.34" rx="109.67" ry="109.67"/>
  <path class="st0" d="M41.69,107.47l111.76-45.99c5.39-2.22,11.11,2.36,10.12,8.1l-15.66,91.31c-1.16,6.78-9.04,9.97-14.59,5.91l-38.07-27.83c-3.34-2.44-3.74-7.29-.84-10.24l37.3-38.03c.69-.71.61-1.86-.17-2.46h0c-.56-.43-1.33-.46-1.92-.07l-52.04,34.53c-3.72,2.47-8.35,3.14-12.62,1.84l-22.78-6.95c-4.84-1.48-5.16-8.2-.48-10.13Z"/>
</svg>